%TF.GenerationSoftware,KiCad,Pcbnew,7.0.5*%
%TF.CreationDate,2024-02-12T16:47:11-03:00*%
%TF.ProjectId,baseSX1276,62617365-5358-4313-9237-362e6b696361,rev?*%
%TF.SameCoordinates,Original*%
%TF.FileFunction,Drillmap*%
%TF.FilePolarity,Positive*%
%FSLAX45Y45*%
G04 Gerber Fmt 4.5, Leading zero omitted, Abs format (unit mm)*
G04 Created by KiCad (PCBNEW 7.0.5) date 2024-02-12 16:47:11*
%MOMM*%
%LPD*%
G01*
G04 APERTURE LIST*
%ADD10C,0.100000*%
%ADD11C,0.200000*%
G04 APERTURE END LIST*
D10*
X11390000Y-6035000D02*
X15001000Y-6035000D01*
X15001000Y-8464000D01*
X11390000Y-8464000D01*
X11390000Y-6035000D01*
D11*
X11645777Y-8780484D02*
X11645777Y-8580484D01*
X11645777Y-8580484D02*
X11693396Y-8580484D01*
X11693396Y-8580484D02*
X11721967Y-8590008D01*
X11721967Y-8590008D02*
X11741015Y-8609055D01*
X11741015Y-8609055D02*
X11750539Y-8628103D01*
X11750539Y-8628103D02*
X11760062Y-8666198D01*
X11760062Y-8666198D02*
X11760062Y-8694770D01*
X11760062Y-8694770D02*
X11750539Y-8732865D01*
X11750539Y-8732865D02*
X11741015Y-8751912D01*
X11741015Y-8751912D02*
X11721967Y-8770960D01*
X11721967Y-8770960D02*
X11693396Y-8780484D01*
X11693396Y-8780484D02*
X11645777Y-8780484D01*
X11845777Y-8780484D02*
X11845777Y-8647150D01*
X11845777Y-8685246D02*
X11855301Y-8666198D01*
X11855301Y-8666198D02*
X11864824Y-8656674D01*
X11864824Y-8656674D02*
X11883872Y-8647150D01*
X11883872Y-8647150D02*
X11902920Y-8647150D01*
X11969586Y-8780484D02*
X11969586Y-8647150D01*
X11969586Y-8580484D02*
X11960062Y-8590008D01*
X11960062Y-8590008D02*
X11969586Y-8599531D01*
X11969586Y-8599531D02*
X11979110Y-8590008D01*
X11979110Y-8590008D02*
X11969586Y-8580484D01*
X11969586Y-8580484D02*
X11969586Y-8599531D01*
X12093396Y-8780484D02*
X12074348Y-8770960D01*
X12074348Y-8770960D02*
X12064824Y-8751912D01*
X12064824Y-8751912D02*
X12064824Y-8580484D01*
X12198158Y-8780484D02*
X12179110Y-8770960D01*
X12179110Y-8770960D02*
X12169586Y-8751912D01*
X12169586Y-8751912D02*
X12169586Y-8580484D01*
X12426729Y-8780484D02*
X12426729Y-8580484D01*
X12426729Y-8580484D02*
X12493396Y-8723341D01*
X12493396Y-8723341D02*
X12560062Y-8580484D01*
X12560062Y-8580484D02*
X12560062Y-8780484D01*
X12741015Y-8780484D02*
X12741015Y-8675722D01*
X12741015Y-8675722D02*
X12731491Y-8656674D01*
X12731491Y-8656674D02*
X12712443Y-8647150D01*
X12712443Y-8647150D02*
X12674348Y-8647150D01*
X12674348Y-8647150D02*
X12655301Y-8656674D01*
X12741015Y-8770960D02*
X12721967Y-8780484D01*
X12721967Y-8780484D02*
X12674348Y-8780484D01*
X12674348Y-8780484D02*
X12655301Y-8770960D01*
X12655301Y-8770960D02*
X12645777Y-8751912D01*
X12645777Y-8751912D02*
X12645777Y-8732865D01*
X12645777Y-8732865D02*
X12655301Y-8713817D01*
X12655301Y-8713817D02*
X12674348Y-8704293D01*
X12674348Y-8704293D02*
X12721967Y-8704293D01*
X12721967Y-8704293D02*
X12741015Y-8694770D01*
X12836253Y-8647150D02*
X12836253Y-8847150D01*
X12836253Y-8656674D02*
X12855301Y-8647150D01*
X12855301Y-8647150D02*
X12893396Y-8647150D01*
X12893396Y-8647150D02*
X12912443Y-8656674D01*
X12912443Y-8656674D02*
X12921967Y-8666198D01*
X12921967Y-8666198D02*
X12931491Y-8685246D01*
X12931491Y-8685246D02*
X12931491Y-8742389D01*
X12931491Y-8742389D02*
X12921967Y-8761436D01*
X12921967Y-8761436D02*
X12912443Y-8770960D01*
X12912443Y-8770960D02*
X12893396Y-8780484D01*
X12893396Y-8780484D02*
X12855301Y-8780484D01*
X12855301Y-8780484D02*
X12836253Y-8770960D01*
X13017205Y-8761436D02*
X13026729Y-8770960D01*
X13026729Y-8770960D02*
X13017205Y-8780484D01*
X13017205Y-8780484D02*
X13007682Y-8770960D01*
X13007682Y-8770960D02*
X13017205Y-8761436D01*
X13017205Y-8761436D02*
X13017205Y-8780484D01*
X13017205Y-8656674D02*
X13026729Y-8666198D01*
X13026729Y-8666198D02*
X13017205Y-8675722D01*
X13017205Y-8675722D02*
X13007682Y-8666198D01*
X13007682Y-8666198D02*
X13017205Y-8656674D01*
X13017205Y-8656674D02*
X13017205Y-8675722D01*
M02*
