%TF.GenerationSoftware,KiCad,Pcbnew,7.0.5*%
%TF.CreationDate,2024-02-12T15:58:31-03:00*%
%TF.ProjectId,baseSX1276,62617365-5358-4313-9237-362e6b696361,rev?*%
%TF.SameCoordinates,Original*%
%TF.FileFunction,Copper,L2,Bot*%
%TF.FilePolarity,Positive*%
%FSLAX46Y46*%
G04 Gerber Fmt 4.6, Leading zero omitted, Abs format (unit mm)*
G04 Created by KiCad (PCBNEW 7.0.5) date 2024-02-12 15:58:31*
%MOMM*%
%LPD*%
G01*
G04 APERTURE LIST*
%TA.AperFunction,NonConductor*%
%ADD10C,0.200000*%
%TD*%
%TA.AperFunction,ComponentPad*%
%ADD11R,1.700000X1.700000*%
%TD*%
%TA.AperFunction,ComponentPad*%
%ADD12O,1.700000X1.700000*%
%TD*%
%TA.AperFunction,Conductor*%
%ADD13C,1.000000*%
%TD*%
G04 APERTURE END LIST*
D10*
X138810000Y-69150000D02*
X141600000Y-69150000D01*
X141600000Y-70350000D01*
X138810000Y-70350000D01*
X138810000Y-69150000D01*
%TA.AperFunction,NonConductor*%
G36*
X138810000Y-69150000D02*
G01*
X141600000Y-69150000D01*
X141600000Y-70350000D01*
X138810000Y-70350000D01*
X138810000Y-69150000D01*
G37*
%TD.AperFunction*%
X123410000Y-73140000D02*
X126200000Y-73140000D01*
X126200000Y-74340000D01*
X123410000Y-74340000D01*
X123410000Y-73140000D01*
%TA.AperFunction,NonConductor*%
G36*
X123410000Y-73140000D02*
G01*
X126200000Y-73140000D01*
X126200000Y-74340000D01*
X123410000Y-74340000D01*
X123410000Y-73140000D01*
G37*
%TD.AperFunction*%
X123410000Y-79140000D02*
X126200000Y-79140000D01*
X126200000Y-80340000D01*
X123410000Y-80340000D01*
X123410000Y-79140000D01*
%TA.AperFunction,NonConductor*%
G36*
X123410000Y-79140000D02*
G01*
X126200000Y-79140000D01*
X126200000Y-80340000D01*
X123410000Y-80340000D01*
X123410000Y-79140000D01*
G37*
%TD.AperFunction*%
X123410000Y-65155000D02*
X126200000Y-65155000D01*
X126200000Y-66355000D01*
X123410000Y-66355000D01*
X123410000Y-65155000D01*
%TA.AperFunction,NonConductor*%
G36*
X123410000Y-65155000D02*
G01*
X126200000Y-65155000D01*
X126200000Y-66355000D01*
X123410000Y-66355000D01*
X123410000Y-65155000D01*
G37*
%TD.AperFunction*%
X123405000Y-67150000D02*
X126195000Y-67150000D01*
X126195000Y-68350000D01*
X123405000Y-68350000D01*
X123405000Y-67150000D01*
%TA.AperFunction,NonConductor*%
G36*
X123405000Y-67150000D02*
G01*
X126195000Y-67150000D01*
X126195000Y-68350000D01*
X123405000Y-68350000D01*
X123405000Y-67150000D01*
G37*
%TD.AperFunction*%
X123400000Y-75140000D02*
X126190000Y-75140000D01*
X126190000Y-76340000D01*
X123400000Y-76340000D01*
X123400000Y-75140000D01*
%TA.AperFunction,NonConductor*%
G36*
X123400000Y-75140000D02*
G01*
X126190000Y-75140000D01*
X126190000Y-76340000D01*
X123400000Y-76340000D01*
X123400000Y-75140000D01*
G37*
%TD.AperFunction*%
X138810000Y-75150000D02*
X141600000Y-75150000D01*
X141600000Y-76350000D01*
X138810000Y-76350000D01*
X138810000Y-75150000D01*
%TA.AperFunction,NonConductor*%
G36*
X138810000Y-75150000D02*
G01*
X141600000Y-75150000D01*
X141600000Y-76350000D01*
X138810000Y-76350000D01*
X138810000Y-75150000D01*
G37*
%TD.AperFunction*%
X138810000Y-77160000D02*
X141600000Y-77160000D01*
X141600000Y-78360000D01*
X138810000Y-78360000D01*
X138810000Y-77160000D01*
%TA.AperFunction,NonConductor*%
G36*
X138810000Y-77160000D02*
G01*
X141600000Y-77160000D01*
X141600000Y-78360000D01*
X138810000Y-78360000D01*
X138810000Y-77160000D01*
G37*
%TD.AperFunction*%
X138800000Y-71150000D02*
X141590000Y-71150000D01*
X141590000Y-72350000D01*
X138800000Y-72350000D01*
X138800000Y-71150000D01*
%TA.AperFunction,NonConductor*%
G36*
X138800000Y-71150000D02*
G01*
X141590000Y-71150000D01*
X141590000Y-72350000D01*
X138800000Y-72350000D01*
X138800000Y-71150000D01*
G37*
%TD.AperFunction*%
X123420000Y-69160000D02*
X126210000Y-69160000D01*
X126210000Y-70360000D01*
X123420000Y-70360000D01*
X123420000Y-69160000D01*
%TA.AperFunction,NonConductor*%
G36*
X123420000Y-69160000D02*
G01*
X126210000Y-69160000D01*
X126210000Y-70360000D01*
X123420000Y-70360000D01*
X123420000Y-69160000D01*
G37*
%TD.AperFunction*%
X123420000Y-71160000D02*
X126210000Y-71160000D01*
X126210000Y-72360000D01*
X123420000Y-72360000D01*
X123420000Y-71160000D01*
%TA.AperFunction,NonConductor*%
G36*
X123420000Y-71160000D02*
G01*
X126210000Y-71160000D01*
X126210000Y-72360000D01*
X123420000Y-72360000D01*
X123420000Y-71160000D01*
G37*
%TD.AperFunction*%
X138810000Y-65150000D02*
X141600000Y-65150000D01*
X141600000Y-66350000D01*
X138810000Y-66350000D01*
X138810000Y-65150000D01*
%TA.AperFunction,NonConductor*%
G36*
X138810000Y-65150000D02*
G01*
X141600000Y-65150000D01*
X141600000Y-66350000D01*
X138810000Y-66350000D01*
X138810000Y-65150000D01*
G37*
%TD.AperFunction*%
X123410000Y-77150000D02*
X126200000Y-77150000D01*
X126200000Y-78350000D01*
X123410000Y-78350000D01*
X123410000Y-77150000D01*
%TA.AperFunction,NonConductor*%
G36*
X123410000Y-77150000D02*
G01*
X126200000Y-77150000D01*
X126200000Y-78350000D01*
X123410000Y-78350000D01*
X123410000Y-77150000D01*
G37*
%TD.AperFunction*%
X138810000Y-67170000D02*
X141600000Y-67170000D01*
X141600000Y-68370000D01*
X138810000Y-68370000D01*
X138810000Y-67170000D01*
%TA.AperFunction,NonConductor*%
G36*
X138810000Y-67170000D02*
G01*
X141600000Y-67170000D01*
X141600000Y-68370000D01*
X138810000Y-68370000D01*
X138810000Y-67170000D01*
G37*
%TD.AperFunction*%
X138810000Y-73160000D02*
X141600000Y-73160000D01*
X141600000Y-74360000D01*
X138810000Y-74360000D01*
X138810000Y-73160000D01*
%TA.AperFunction,NonConductor*%
G36*
X138810000Y-73160000D02*
G01*
X141600000Y-73160000D01*
X141600000Y-74360000D01*
X138810000Y-74360000D01*
X138810000Y-73160000D01*
G37*
%TD.AperFunction*%
X138800000Y-79160000D02*
X141590000Y-79160000D01*
X141590000Y-80360000D01*
X138800000Y-80360000D01*
X138800000Y-79160000D01*
%TA.AperFunction,NonConductor*%
G36*
X138800000Y-79160000D02*
G01*
X141590000Y-79160000D01*
X141590000Y-80360000D01*
X138800000Y-80360000D01*
X138800000Y-79160000D01*
G37*
%TD.AperFunction*%
D11*
%TO.P,J2,1,Pin_1*%
%TO.N,Net-(J1-Pin_7)*%
X117602000Y-63246000D03*
D12*
%TO.P,J2,2,Pin_2*%
%TO.N,Net-(J2-Pin_2)*%
X117602000Y-65786000D03*
%TO.P,J2,3,Pin_3*%
%TO.N,Net-(J2-Pin_3)*%
X117602000Y-68326000D03*
%TO.P,J2,4,Pin_4*%
%TO.N,Net-(J2-Pin_4)*%
X117602000Y-70866000D03*
%TO.P,J2,5,Pin_5*%
%TO.N,Net-(J2-Pin_5)*%
X117602000Y-73406000D03*
%TO.P,J2,6,Pin_6*%
%TO.N,Net-(J2-Pin_6)*%
X117602000Y-75946000D03*
%TO.P,J2,7,Pin_7*%
%TO.N,Net-(J2-Pin_7)*%
X117602000Y-78486000D03*
%TO.P,J2,8,Pin_8*%
%TO.N,Net-(J1-Pin_7)*%
X117602000Y-81026000D03*
%TD*%
D11*
%TO.P,J1,1,Pin_1*%
%TO.N,Net-(J1-Pin_1)*%
X147066000Y-63246000D03*
D12*
%TO.P,J1,2,Pin_2*%
%TO.N,Net-(J1-Pin_2)*%
X147066000Y-65786000D03*
%TO.P,J1,3,Pin_3*%
%TO.N,Net-(J1-Pin_3)*%
X147066000Y-68326000D03*
%TO.P,J1,4,Pin_4*%
%TO.N,Net-(J1-Pin_4)*%
X147066000Y-70866000D03*
%TO.P,J1,5,Pin_5*%
%TO.N,Net-(J1-Pin_5)*%
X147066000Y-73406000D03*
%TO.P,J1,6,Pin_6*%
%TO.N,Net-(J1-Pin_6)*%
X147066000Y-75946000D03*
%TO.P,J1,7,Pin_7*%
%TO.N,Net-(J1-Pin_7)*%
X147066000Y-78486000D03*
%TO.P,J1,8,Pin_8*%
%TO.N,Net-(J1-Pin_8)*%
X147066000Y-81026000D03*
%TD*%
D13*
%TO.N,Net-(J1-Pin_1)*%
X143054000Y-63246000D02*
X140500000Y-65800000D01*
X147066000Y-63246000D02*
X143054000Y-63246000D01*
%TO.N,Net-(J1-Pin_2)*%
X144614000Y-65786000D02*
X142700000Y-67700000D01*
X147066000Y-65786000D02*
X144614000Y-65786000D01*
X142700000Y-67700000D02*
X140500000Y-67700000D01*
%TO.N,Net-(J1-Pin_3)*%
X142600000Y-69800000D02*
X142500000Y-69700000D01*
X144300000Y-69100000D02*
X143300000Y-69100000D01*
X142500000Y-69700000D02*
X140500000Y-69700000D01*
X143300000Y-69100000D02*
X142600000Y-69800000D01*
X145074000Y-68326000D02*
X144300000Y-69100000D01*
X147066000Y-68326000D02*
X145074000Y-68326000D01*
%TO.N,Net-(J1-Pin_4)*%
X143300000Y-71800000D02*
X140500000Y-71800000D01*
X147066000Y-70866000D02*
X144234000Y-70866000D01*
X144234000Y-70866000D02*
X143300000Y-71800000D01*
%TO.N,Net-(J1-Pin_5)*%
X143100000Y-73900000D02*
X143594000Y-73406000D01*
X143594000Y-73406000D02*
X147066000Y-73406000D01*
X140500000Y-73900000D02*
X143100000Y-73900000D01*
%TO.N,Net-(J1-Pin_6)*%
X146920000Y-75800000D02*
X147066000Y-75946000D01*
X140500000Y-75800000D02*
X146920000Y-75800000D01*
%TO.N,Net-(J1-Pin_7)*%
X140500000Y-77900000D02*
X142800000Y-77900000D01*
X143414000Y-78486000D02*
X147066000Y-78486000D01*
X121946000Y-63246000D02*
X124500000Y-65800000D01*
X123274000Y-81026000D02*
X124500000Y-79800000D01*
X117602000Y-63246000D02*
X121946000Y-63246000D01*
X143400000Y-78500000D02*
X143414000Y-78486000D01*
X142800000Y-77900000D02*
X143400000Y-78500000D01*
X117602000Y-81026000D02*
X123274000Y-81026000D01*
%TO.N,Net-(J1-Pin_8)*%
X142100000Y-81100000D02*
X142174000Y-81026000D01*
X140500000Y-79900000D02*
X141700000Y-81100000D01*
X142174000Y-81026000D02*
X147066000Y-81026000D01*
X141700000Y-81100000D02*
X142100000Y-81100000D01*
%TO.N,Net-(J2-Pin_2)*%
X117602000Y-65786000D02*
X120286000Y-65786000D01*
X120286000Y-65786000D02*
X122200000Y-67700000D01*
X122200000Y-67700000D02*
X124500000Y-67700000D01*
%TO.N,Net-(J2-Pin_3)*%
X121300000Y-69800000D02*
X124500000Y-69800000D01*
X117602000Y-68326000D02*
X119826000Y-68326000D01*
X119826000Y-68326000D02*
X121300000Y-69800000D01*
%TO.N,Net-(J2-Pin_4)*%
X119366000Y-70866000D02*
X120200000Y-71700000D01*
X124400000Y-71700000D02*
X124500000Y-71800000D01*
X117602000Y-70866000D02*
X119366000Y-70866000D01*
X120200000Y-71700000D02*
X124400000Y-71700000D01*
%TO.N,Net-(J2-Pin_5)*%
X117602000Y-73406000D02*
X118306000Y-73406000D01*
X118306000Y-73406000D02*
X118700000Y-73800000D01*
X118700000Y-73800000D02*
X124500000Y-73800000D01*
%TO.N,Net-(J2-Pin_6)*%
X119754000Y-75946000D02*
X119900000Y-75800000D01*
X119900000Y-75800000D02*
X124500000Y-75800000D01*
X117602000Y-75946000D02*
X119754000Y-75946000D01*
%TO.N,Net-(J2-Pin_7)*%
X121114000Y-78486000D02*
X121800000Y-77800000D01*
X117602000Y-78486000D02*
X121114000Y-78486000D01*
X121800000Y-77800000D02*
X124500000Y-77800000D01*
%TD*%
M02*
