M48
; DRILL file {KiCad 7.0.5} date Sun Feb  4 15:02:55 2024
; FORMAT={-:-/ absolute / metric / decimal}
; #@! TF.CreationDate,2024-02-04T15:02:55-03:00
; #@! TF.GenerationSoftware,Kicad,Pcbnew,7.0.5
; #@! TF.FileFunction,Plated,1,2,PTH
FMAT,2
METRIC
; #@! TA.AperFunction,Plated,PTH,ViaDrill
T1C0.400
; #@! TA.AperFunction,Plated,PTH,ComponentDrill
T2C0.800
; #@! TA.AperFunction,Plated,PTH,ComponentDrill
T3C1.000
; #@! TA.AperFunction,Plated,PTH,ComponentDrill
T4C1.020
%
G90
G05
T1
X88.0Y-80.0
X88.0Y-84.0
X137.15Y-52.45
X137.25Y-48.1
X137.3Y-45.55
X141.3Y-45.55
X142.15Y-74.5
X142.15Y-77.75
X144.25Y-52.45
X144.35Y-48.1
X146.95Y-74.55
X149.55Y-78.05
T2
X84.0Y-68.0
X84.0Y-73.08
X85.32Y-57.35
X85.32Y-62.35
X141.847Y-94.25
X146.847Y-94.25
T3
X83.2Y-79.56
X83.2Y-82.1
X83.2Y-84.64
X131.73Y-56.7
X131.73Y-85.7
X131.74Y-94.26
X134.27Y-56.7
X134.27Y-85.7
X136.81Y-56.7
X136.81Y-85.7
X139.35Y-56.7
X139.35Y-85.7
X141.89Y-56.7
X141.89Y-85.7
X144.43Y-56.7
X144.43Y-85.7
X146.97Y-56.7
X146.97Y-85.7
X149.51Y-56.7
X149.51Y-85.7
T4
X91.54Y-56.81
X91.54Y-59.35
X91.54Y-61.89
X91.54Y-64.43
X91.54Y-66.97
X91.54Y-69.51
X91.54Y-72.05
X91.54Y-74.59
X91.54Y-77.13
X91.54Y-79.67
X91.54Y-82.21
X91.54Y-84.75
X91.54Y-87.29
X91.54Y-89.83
X91.54Y-92.37
X116.94Y-56.81
X116.94Y-59.35
X116.94Y-61.89
X116.94Y-64.43
X116.94Y-66.97
X116.94Y-69.51
X116.94Y-72.05
X116.94Y-74.59
X116.94Y-77.13
X116.94Y-79.67
X116.94Y-82.21
X116.94Y-84.75
X116.94Y-87.29
X116.94Y-89.83
X116.94Y-92.37
T0
M30
