%TF.GenerationSoftware,KiCad,Pcbnew,7.0.5*%
%TF.CreationDate,2024-02-04T15:02:51-03:00*%
%TF.ProjectId,ESP32LoraWAN,45535033-324c-46f7-9261-57414e2e6b69,rev?*%
%TF.SameCoordinates,Original*%
%TF.FileFunction,Copper,L2,Bot*%
%TF.FilePolarity,Positive*%
%FSLAX46Y46*%
G04 Gerber Fmt 4.6, Leading zero omitted, Abs format (unit mm)*
G04 Created by KiCad (PCBNEW 7.0.5) date 2024-02-04 15:02:51*
%MOMM*%
%LPD*%
G01*
G04 APERTURE LIST*
%TA.AperFunction,ComponentPad*%
%ADD10R,2.000000X2.000000*%
%TD*%
%TA.AperFunction,ComponentPad*%
%ADD11C,2.000000*%
%TD*%
%TA.AperFunction,ComponentPad*%
%ADD12R,1.600000X1.600000*%
%TD*%
%TA.AperFunction,ComponentPad*%
%ADD13C,1.600000*%
%TD*%
%TA.AperFunction,ComponentPad*%
%ADD14R,1.700000X1.700000*%
%TD*%
%TA.AperFunction,ComponentPad*%
%ADD15O,1.700000X1.700000*%
%TD*%
%TA.AperFunction,ComponentPad*%
%ADD16O,1.600000X1.600000*%
%TD*%
%TA.AperFunction,ViaPad*%
%ADD17C,1.500000*%
%TD*%
%TA.AperFunction,Conductor*%
%ADD18C,1.000000*%
%TD*%
G04 APERTURE END LIST*
D10*
%TO.P,U1,1,3V3*%
%TO.N,+3.3V*%
X91540000Y-56810000D03*
D11*
%TO.P,U1,2,GND*%
%TO.N,GND*%
X91540000Y-59350000D03*
%TO.P,U1,3,D15*%
%TO.N,unconnected-(U1-D15-Pad3)*%
X91540000Y-61890000D03*
%TO.P,U1,4,D2*%
%TO.N,unconnected-(U1-D2-Pad4)*%
X91540000Y-64430000D03*
%TO.P,U1,5,D4*%
%TO.N,unconnected-(U1-D4-Pad5)*%
X91540000Y-66970000D03*
%TO.P,U1,6,RX2*%
%TO.N,unconnected-(U1-RX2-Pad6)*%
X91540000Y-69510000D03*
%TO.P,U1,7,TX2*%
%TO.N,unconnected-(U1-TX2-Pad7)*%
X91540000Y-72050000D03*
%TO.P,U1,8,D5*%
%TO.N,Net-(J4-Pin_5)*%
X91540000Y-74590000D03*
%TO.P,U1,9,D18*%
%TO.N,Net-(J4-Pin_4)*%
X91540000Y-77130000D03*
%TO.P,U1,10,D19*%
%TO.N,Net-(J4-Pin_2)*%
X91540000Y-79670000D03*
%TO.P,U1,11,D21*%
%TO.N,Net-(J2-Pin_2)*%
X91540000Y-82210000D03*
%TO.P,U1,12,RX0*%
%TO.N,unconnected-(U1-RX0-Pad12)*%
X91540000Y-84750000D03*
%TO.P,U1,13,TX0*%
%TO.N,unconnected-(U1-TX0-Pad13)*%
X91540000Y-87290000D03*
%TO.P,U1,14,D22*%
%TO.N,unconnected-(U1-D22-Pad14)*%
X91540000Y-89830000D03*
%TO.P,U1,15,D23*%
%TO.N,Net-(J4-Pin_3)*%
X91540000Y-92370000D03*
%TO.P,U1,16,EN*%
%TO.N,unconnected-(U1-EN-Pad16)*%
X116940000Y-92370000D03*
%TO.P,U1,17,VP*%
%TO.N,unconnected-(U1-VP-Pad17)*%
X116940000Y-89830000D03*
%TO.P,U1,18,VN*%
%TO.N,unconnected-(U1-VN-Pad18)*%
X116940000Y-87290000D03*
%TO.P,U1,19,D34*%
%TO.N,Net-(J3-Pin_1)*%
X116940000Y-84750000D03*
%TO.P,U1,20,D35*%
%TO.N,Net-(J3-Pin_2)*%
X116940000Y-82210000D03*
%TO.P,U1,21,D32*%
%TO.N,unconnected-(U1-D32-Pad21)*%
X116940000Y-79670000D03*
%TO.P,U1,22,D33*%
%TO.N,unconnected-(U1-D33-Pad22)*%
X116940000Y-77130000D03*
%TO.P,U1,23,D25*%
%TO.N,unconnected-(U1-D25-Pad23)*%
X116940000Y-74590000D03*
%TO.P,U1,24,D26*%
%TO.N,Net-(J3-Pin_3)*%
X116940000Y-72050000D03*
%TO.P,U1,25,D27*%
%TO.N,unconnected-(U1-D27-Pad25)*%
X116940000Y-69510000D03*
%TO.P,U1,26,D14*%
%TO.N,Net-(J4-Pin_6)*%
X116940000Y-66970000D03*
%TO.P,U1,27,D12*%
%TO.N,unconnected-(U1-D12-Pad27)*%
X116940000Y-64430000D03*
%TO.P,U1,28,D13*%
%TO.N,unconnected-(U1-D13-Pad28)*%
X116940000Y-61890000D03*
%TO.P,U1,29,GND*%
%TO.N,GND*%
X116940000Y-59350000D03*
%TO.P,U1,30,VIN*%
%TO.N,unconnected-(U1-VIN-Pad30)*%
X116940000Y-56810000D03*
%TD*%
D12*
%TO.P,C3,1*%
%TO.N,+3.3V*%
X141847349Y-94250000D03*
D13*
%TO.P,C3,2*%
%TO.N,GND*%
X146847349Y-94250000D03*
%TD*%
D12*
%TO.P,C1,1*%
%TO.N,+3.3V*%
X85320000Y-57350000D03*
D13*
%TO.P,C1,2*%
%TO.N,GND*%
X85320000Y-62350000D03*
%TD*%
D14*
%TO.P,J2,1,Pin_1*%
%TO.N,+3.3V*%
X83200000Y-79560000D03*
D15*
%TO.P,J2,2,Pin_2*%
%TO.N,Net-(J2-Pin_2)*%
X83200000Y-82100000D03*
%TO.P,J2,3,Pin_3*%
%TO.N,GND*%
X83200000Y-84640000D03*
%TD*%
%TO.P,J3,8,Pin_8*%
%TO.N,Net-(J1-Pin_1)*%
X131730000Y-85700000D03*
%TO.P,J3,7,Pin_7*%
%TO.N,unconnected-(J3-Pin_7-Pad7)*%
X134270000Y-85700000D03*
%TO.P,J3,6,Pin_6*%
%TO.N,unconnected-(J3-Pin_6-Pad6)*%
X136810000Y-85700000D03*
%TO.P,J3,5,Pin_5*%
%TO.N,unconnected-(J3-Pin_5-Pad5)*%
X139350000Y-85700000D03*
%TO.P,J3,4,Pin_4*%
%TO.N,+3.3V*%
X141890000Y-85700000D03*
%TO.P,J3,3,Pin_3*%
%TO.N,Net-(J3-Pin_3)*%
X144430000Y-85700000D03*
%TO.P,J3,2,Pin_2*%
%TO.N,Net-(J3-Pin_2)*%
X146970000Y-85700000D03*
D14*
%TO.P,J3,1,Pin_1*%
%TO.N,Net-(J3-Pin_1)*%
X149510000Y-85700000D03*
%TD*%
%TO.P,J1,1,Pin_1*%
%TO.N,Net-(J1-Pin_1)*%
X131740000Y-94260000D03*
%TD*%
D15*
%TO.P,J4,8,Pin_8*%
%TO.N,GND*%
X131730000Y-56700000D03*
%TO.P,J4,7,Pin_7*%
%TO.N,unconnected-(J4-Pin_7-Pad7)*%
X134270000Y-56700000D03*
%TO.P,J4,6,Pin_6*%
%TO.N,Net-(J4-Pin_6)*%
X136810000Y-56700000D03*
%TO.P,J4,5,Pin_5*%
%TO.N,Net-(J4-Pin_5)*%
X139350000Y-56700000D03*
%TO.P,J4,4,Pin_4*%
%TO.N,Net-(J4-Pin_4)*%
X141890000Y-56700000D03*
%TO.P,J4,3,Pin_3*%
%TO.N,Net-(J4-Pin_3)*%
X144430000Y-56700000D03*
%TO.P,J4,2,Pin_2*%
%TO.N,Net-(J4-Pin_2)*%
X146970000Y-56700000D03*
D14*
%TO.P,J4,1,Pin_1*%
%TO.N,unconnected-(J4-Pin_1-Pad1)*%
X149510000Y-56700000D03*
%TD*%
D13*
%TO.P,R1,1*%
%TO.N,+3.3V*%
X84000000Y-68000000D03*
D16*
%TO.P,R1,2*%
%TO.N,Net-(J2-Pin_2)*%
X84000000Y-73080000D03*
%TD*%
D17*
%TO.N,GND*%
X88000000Y-84000000D03*
X88000000Y-80000000D03*
%TO.N,Net-(J3-Pin_1)*%
X149550000Y-78050000D03*
%TO.N,Net-(J3-Pin_2)*%
X146950000Y-74550000D03*
%TO.N,Net-(J3-Pin_1)*%
X142150000Y-77750000D03*
%TO.N,Net-(J3-Pin_2)*%
X142150000Y-74500000D03*
%TO.N,Net-(J4-Pin_2)*%
X144350000Y-48100000D03*
X137250000Y-48100000D03*
%TO.N,Net-(J4-Pin_3)*%
X137150000Y-52450000D03*
X144250000Y-52450000D03*
%TO.N,Net-(J4-Pin_4)*%
X137300000Y-45550000D03*
X141300000Y-45550000D03*
%TD*%
D18*
%TO.N,Net-(J3-Pin_2)*%
X142100000Y-74450000D02*
X142150000Y-74500000D01*
X122490000Y-82210000D02*
X130250000Y-74450000D01*
X130250000Y-74450000D02*
X142100000Y-74450000D01*
X116940000Y-82210000D02*
X122490000Y-82210000D01*
%TO.N,Net-(J3-Pin_1)*%
X142000000Y-77600000D02*
X142150000Y-77750000D01*
X123450000Y-84750000D02*
X130600000Y-77600000D01*
X116940000Y-84750000D02*
X123450000Y-84750000D01*
X130600000Y-77600000D02*
X142000000Y-77600000D01*
%TO.N,Net-(J3-Pin_3)*%
X143250000Y-72050000D02*
X144430000Y-73230000D01*
X116940000Y-72050000D02*
X143250000Y-72050000D01*
X144430000Y-73230000D02*
X144430000Y-85700000D01*
%TO.N,Net-(J3-Pin_1)*%
X141950000Y-77550000D02*
X142150000Y-77750000D01*
X149510000Y-85700000D02*
X149510000Y-78090000D01*
X149510000Y-78090000D02*
X149550000Y-78050000D01*
%TO.N,Net-(J3-Pin_2)*%
X146970000Y-74570000D02*
X146970000Y-85700000D01*
X146950000Y-74550000D02*
X146970000Y-74570000D01*
X142050000Y-74400000D02*
X142150000Y-74500000D01*
%TO.N,+3.3V*%
X141847349Y-85742651D02*
X141890000Y-85700000D01*
X141847349Y-94250000D02*
X141847349Y-85742651D01*
X142000000Y-99600000D02*
X141847349Y-99447349D01*
X140100000Y-101500000D02*
X142000000Y-99600000D01*
X141847349Y-99447349D02*
X141847349Y-94250000D01*
X77950000Y-97650000D02*
X81800000Y-101500000D01*
X81800000Y-101500000D02*
X140100000Y-101500000D01*
X77950000Y-69050000D02*
X77950000Y-97650000D01*
X80000000Y-67000000D02*
X77950000Y-69050000D01*
%TO.N,Net-(J4-Pin_3)*%
X125000000Y-52450000D02*
X137150000Y-52450000D01*
X106550000Y-58100000D02*
X110700000Y-53950000D01*
X106550000Y-76250000D02*
X106550000Y-58100000D01*
X110700000Y-53950000D02*
X123500000Y-53950000D01*
X100650000Y-82150000D02*
X106550000Y-76250000D01*
X100650000Y-88850000D02*
X100650000Y-82150000D01*
X97130000Y-92370000D02*
X100650000Y-88850000D01*
X91540000Y-92370000D02*
X97130000Y-92370000D01*
X123500000Y-53950000D02*
X125000000Y-52450000D01*
%TO.N,Net-(J4-Pin_2)*%
X125750000Y-48100000D02*
X137250000Y-48100000D01*
X122200000Y-51650000D02*
X125750000Y-48100000D01*
X108500000Y-51650000D02*
X122200000Y-51650000D01*
X99230000Y-79670000D02*
X103750000Y-75150000D01*
X103750000Y-56400000D02*
X108500000Y-51650000D01*
X91540000Y-79670000D02*
X99230000Y-79670000D01*
X103750000Y-75150000D02*
X103750000Y-56400000D01*
%TO.N,Net-(J4-Pin_4)*%
X98220000Y-77130000D02*
X101650000Y-73700000D01*
X101650000Y-48700000D02*
X104800000Y-45550000D01*
X104800000Y-45550000D02*
X137300000Y-45550000D01*
X91540000Y-77130000D02*
X98220000Y-77130000D01*
X101650000Y-73700000D02*
X101650000Y-48700000D01*
%TO.N,Net-(J4-Pin_5)*%
X99350000Y-72400000D02*
X97160000Y-74590000D01*
X139350000Y-44050000D02*
X137900000Y-42600000D01*
X137900000Y-42600000D02*
X104400000Y-42600000D01*
X99350000Y-47650000D02*
X99350000Y-72400000D01*
X139350000Y-56700000D02*
X139350000Y-44050000D01*
X104400000Y-42600000D02*
X99350000Y-47650000D01*
X97160000Y-74590000D02*
X91540000Y-74590000D01*
%TO.N,Net-(J4-Pin_6)*%
X131780000Y-66970000D02*
X136810000Y-61940000D01*
X116940000Y-66970000D02*
X131780000Y-66970000D01*
X136810000Y-61940000D02*
X136810000Y-56700000D01*
%TO.N,Net-(J1-Pin_1)*%
X131730000Y-94250000D02*
X131740000Y-94260000D01*
X131730000Y-85700000D02*
X131730000Y-94250000D01*
%TO.N,Net-(J4-Pin_3)*%
X144430000Y-52630000D02*
X144250000Y-52450000D01*
X144430000Y-56700000D02*
X144430000Y-52630000D01*
%TO.N,Net-(J4-Pin_2)*%
X146970000Y-49730000D02*
X146970000Y-56700000D01*
X147000000Y-49700000D02*
X146970000Y-49730000D01*
X145400000Y-48100000D02*
X147000000Y-49700000D01*
X144350000Y-48100000D02*
X145400000Y-48100000D01*
X144330000Y-48120000D02*
X144350000Y-48100000D01*
%TO.N,Net-(J4-Pin_4)*%
X141890000Y-46140000D02*
X141300000Y-45550000D01*
X141890000Y-56700000D02*
X141890000Y-46140000D01*
X137150000Y-45700000D02*
X137300000Y-45550000D01*
%TO.N,Net-(J4-Pin_3)*%
X144230000Y-52470000D02*
X144250000Y-52450000D01*
%TO.N,Net-(J4-Pin_4)*%
X137300000Y-45550000D02*
X137300000Y-45500000D01*
%TO.N,+3.3V*%
X87000000Y-68000000D02*
X84000000Y-68000000D01*
X88000000Y-69000000D02*
X87000000Y-68000000D01*
X84440000Y-79560000D02*
X88000000Y-76000000D01*
X83200000Y-79560000D02*
X84440000Y-79560000D01*
X88000000Y-76000000D02*
X88000000Y-69000000D01*
X81000000Y-68000000D02*
X84000000Y-68000000D01*
X80000000Y-58000000D02*
X80000000Y-67000000D01*
X80650000Y-57350000D02*
X80000000Y-58000000D01*
X85320000Y-57350000D02*
X80650000Y-57350000D01*
X80000000Y-67000000D02*
X81000000Y-68000000D01*
%TO.N,Net-(J2-Pin_2)*%
X81920000Y-73080000D02*
X84000000Y-73080000D01*
X79700000Y-81450000D02*
X79700000Y-75300000D01*
X79700000Y-75300000D02*
X81920000Y-73080000D01*
X83200000Y-82100000D02*
X80350000Y-82100000D01*
X80350000Y-82100000D02*
X79700000Y-81450000D01*
%TO.N,+3.3V*%
X85860000Y-56810000D02*
X85320000Y-57350000D01*
X85280000Y-57310000D02*
X85320000Y-57350000D01*
X91540000Y-56810000D02*
X85860000Y-56810000D01*
%TO.N,Net-(J1-Pin_1)*%
X131790000Y-85640000D02*
X131730000Y-85700000D01*
X131800000Y-94200000D02*
X131740000Y-94260000D01*
%TO.N,Net-(J2-Pin_2)*%
X83200000Y-82100000D02*
X91430000Y-82100000D01*
X91430000Y-82100000D02*
X91540000Y-82210000D01*
%TD*%
%TA.AperFunction,Conductor*%
%TO.N,GND*%
G36*
X152942539Y-41020185D02*
G01*
X152988294Y-41072989D01*
X152999500Y-41124500D01*
X152999500Y-102875500D01*
X152979815Y-102942539D01*
X152927011Y-102988294D01*
X152875500Y-102999500D01*
X77124000Y-102999500D01*
X77056961Y-102979815D01*
X77011206Y-102927011D01*
X77000000Y-102875500D01*
X77000000Y-98414283D01*
X77019685Y-98347244D01*
X77072489Y-98301489D01*
X77141647Y-98291545D01*
X77205203Y-98320570D01*
X77211681Y-98326602D01*
X77213966Y-98328887D01*
X77217170Y-98332343D01*
X77257134Y-98378895D01*
X77271964Y-98390375D01*
X77284299Y-98399923D01*
X77290186Y-98405107D01*
X79209409Y-100324329D01*
X81082986Y-102197906D01*
X81084051Y-102198997D01*
X81119252Y-102236028D01*
X81144940Y-102263052D01*
X81144947Y-102263058D01*
X81179053Y-102286795D01*
X81195303Y-102298106D01*
X81199044Y-102300926D01*
X81246593Y-102339698D01*
X81277045Y-102355604D01*
X81283756Y-102359671D01*
X81311951Y-102379295D01*
X81368332Y-102403490D01*
X81372567Y-102405501D01*
X81426951Y-102433909D01*
X81459973Y-102443356D01*
X81467365Y-102445989D01*
X81498940Y-102459539D01*
X81498941Y-102459540D01*
X81512054Y-102462234D01*
X81559055Y-102471892D01*
X81563595Y-102473006D01*
X81622582Y-102489886D01*
X81656841Y-102492494D01*
X81664609Y-102493585D01*
X81698255Y-102500500D01*
X81698259Y-102500500D01*
X81759601Y-102500500D01*
X81764308Y-102500678D01*
X81791597Y-102502757D01*
X81825475Y-102505337D01*
X81825475Y-102505336D01*
X81825476Y-102505337D01*
X81859559Y-102500996D01*
X81867389Y-102500500D01*
X140086507Y-102500500D01*
X140088069Y-102500519D01*
X140125283Y-102501462D01*
X140176358Y-102502757D01*
X140176358Y-102502756D01*
X140176363Y-102502757D01*
X140236753Y-102491932D01*
X140241412Y-102491280D01*
X140283607Y-102486988D01*
X140302438Y-102485074D01*
X140335227Y-102474786D01*
X140342840Y-102472918D01*
X140376653Y-102466858D01*
X140433621Y-102444101D01*
X140438053Y-102442524D01*
X140496588Y-102424159D01*
X140526627Y-102407484D01*
X140533708Y-102404122D01*
X140565617Y-102391377D01*
X140616854Y-102357608D01*
X140620851Y-102355187D01*
X140674502Y-102325409D01*
X140700568Y-102303030D01*
X140706843Y-102298300D01*
X140707145Y-102298101D01*
X140735519Y-102279402D01*
X140778917Y-102236002D01*
X140782336Y-102232834D01*
X140828895Y-102192866D01*
X140849931Y-102165688D01*
X140855101Y-102159818D01*
X142688444Y-100326475D01*
X142690670Y-100324358D01*
X142746213Y-100274179D01*
X142790498Y-100213868D01*
X142792378Y-100211438D01*
X142839698Y-100153407D01*
X142847158Y-100139123D01*
X142857118Y-100123143D01*
X142866649Y-100110167D01*
X142897893Y-100042164D01*
X142899270Y-100039360D01*
X142933909Y-99973049D01*
X142938339Y-99957567D01*
X142944881Y-99939901D01*
X142951605Y-99925268D01*
X142968518Y-99852384D01*
X142969299Y-99849364D01*
X142989887Y-99777418D01*
X142991110Y-99761358D01*
X142993962Y-99742737D01*
X142997602Y-99727054D01*
X142999497Y-99652257D01*
X142999656Y-99649122D01*
X143005337Y-99574522D01*
X143003303Y-99558556D01*
X143002348Y-99539741D01*
X143002757Y-99523637D01*
X142989558Y-99449999D01*
X142989082Y-99446892D01*
X142987358Y-99433358D01*
X142979630Y-99372672D01*
X142974418Y-99357427D01*
X142969698Y-99339198D01*
X142966858Y-99323347D01*
X142939098Y-99253852D01*
X142938015Y-99250926D01*
X142913818Y-99180134D01*
X142913814Y-99180124D01*
X142911546Y-99176272D01*
X142905644Y-99166246D01*
X142897350Y-99149337D01*
X142891379Y-99134387D01*
X142891377Y-99134385D01*
X142891377Y-99134383D01*
X142868311Y-99099385D01*
X142847857Y-99032579D01*
X142847849Y-99031151D01*
X142847849Y-95587180D01*
X142867534Y-95520141D01*
X142897536Y-95487914D01*
X143004895Y-95407546D01*
X143091145Y-95292331D01*
X143141440Y-95157483D01*
X143147849Y-95097873D01*
X143147849Y-94250002D01*
X145542383Y-94250002D01*
X145562207Y-94476599D01*
X145562209Y-94476610D01*
X145621079Y-94696317D01*
X145621083Y-94696326D01*
X145717214Y-94902481D01*
X145717215Y-94902483D01*
X145768322Y-94975471D01*
X145768323Y-94975472D01*
X146449395Y-94294399D01*
X146462184Y-94375148D01*
X146519708Y-94488045D01*
X146609304Y-94577641D01*
X146722201Y-94635165D01*
X146802948Y-94647953D01*
X146121875Y-95329025D01*
X146121875Y-95329026D01*
X146194861Y-95380131D01*
X146194865Y-95380133D01*
X146401022Y-95476265D01*
X146401031Y-95476269D01*
X146620738Y-95535139D01*
X146620749Y-95535141D01*
X146847347Y-95554966D01*
X146847351Y-95554966D01*
X147073948Y-95535141D01*
X147073959Y-95535139D01*
X147293666Y-95476269D01*
X147293680Y-95476264D01*
X147499827Y-95380136D01*
X147572821Y-95329025D01*
X146891750Y-94647953D01*
X146972497Y-94635165D01*
X147085394Y-94577641D01*
X147174990Y-94488045D01*
X147232514Y-94375148D01*
X147245302Y-94294400D01*
X147926374Y-94975472D01*
X147977485Y-94902478D01*
X148073613Y-94696331D01*
X148073618Y-94696317D01*
X148132488Y-94476610D01*
X148132490Y-94476599D01*
X148152315Y-94250002D01*
X148152315Y-94249997D01*
X148132490Y-94023400D01*
X148132488Y-94023389D01*
X148073618Y-93803682D01*
X148073614Y-93803673D01*
X147977482Y-93597516D01*
X147977480Y-93597512D01*
X147926375Y-93524526D01*
X147926374Y-93524526D01*
X147245302Y-94205598D01*
X147232514Y-94124852D01*
X147174990Y-94011955D01*
X147085394Y-93922359D01*
X146972497Y-93864835D01*
X146891749Y-93852046D01*
X147572821Y-93170974D01*
X147572820Y-93170973D01*
X147499832Y-93119866D01*
X147499830Y-93119865D01*
X147293675Y-93023734D01*
X147293666Y-93023730D01*
X147073959Y-92964860D01*
X147073948Y-92964858D01*
X146847351Y-92945034D01*
X146847347Y-92945034D01*
X146620749Y-92964858D01*
X146620738Y-92964860D01*
X146401031Y-93023730D01*
X146401022Y-93023734D01*
X146194862Y-93119868D01*
X146121876Y-93170972D01*
X146121875Y-93170973D01*
X146802949Y-93852046D01*
X146722201Y-93864835D01*
X146609304Y-93922359D01*
X146519708Y-94011955D01*
X146462184Y-94124852D01*
X146449395Y-94205599D01*
X145768322Y-93524526D01*
X145768321Y-93524527D01*
X145717217Y-93597513D01*
X145621083Y-93803673D01*
X145621079Y-93803682D01*
X145562209Y-94023389D01*
X145562207Y-94023400D01*
X145542383Y-94249997D01*
X145542383Y-94250002D01*
X143147849Y-94250002D01*
X143147848Y-93402128D01*
X143141440Y-93342517D01*
X143139329Y-93336858D01*
X143091146Y-93207671D01*
X143091142Y-93207664D01*
X143004896Y-93092455D01*
X142897537Y-93012085D01*
X142855667Y-92956151D01*
X142847849Y-92912819D01*
X142847849Y-86703409D01*
X142867534Y-86636370D01*
X142884168Y-86615728D01*
X142906177Y-86593719D01*
X142928495Y-86571401D01*
X143058426Y-86385841D01*
X143113002Y-86342217D01*
X143182500Y-86335023D01*
X143244855Y-86366546D01*
X143261575Y-86385842D01*
X143391500Y-86571395D01*
X143391505Y-86571401D01*
X143558599Y-86738495D01*
X143648034Y-86801118D01*
X143752165Y-86874032D01*
X143752167Y-86874033D01*
X143752170Y-86874035D01*
X143966337Y-86973903D01*
X144194592Y-87035063D01*
X144371034Y-87050500D01*
X144429999Y-87055659D01*
X144430000Y-87055659D01*
X144430001Y-87055659D01*
X144488966Y-87050500D01*
X144665408Y-87035063D01*
X144893663Y-86973903D01*
X145107830Y-86874035D01*
X145301401Y-86738495D01*
X145468495Y-86571401D01*
X145598426Y-86385841D01*
X145653002Y-86342217D01*
X145722500Y-86335023D01*
X145784855Y-86366546D01*
X145801575Y-86385842D01*
X145931500Y-86571395D01*
X145931505Y-86571401D01*
X146098599Y-86738495D01*
X146188034Y-86801118D01*
X146292165Y-86874032D01*
X146292167Y-86874033D01*
X146292170Y-86874035D01*
X146506337Y-86973903D01*
X146734592Y-87035063D01*
X146911034Y-87050500D01*
X146969999Y-87055659D01*
X146970000Y-87055659D01*
X146970001Y-87055659D01*
X147028966Y-87050500D01*
X147205408Y-87035063D01*
X147433663Y-86973903D01*
X147647830Y-86874035D01*
X147841401Y-86738495D01*
X147963329Y-86616566D01*
X148024648Y-86583084D01*
X148094340Y-86588068D01*
X148150274Y-86629939D01*
X148167189Y-86660917D01*
X148216202Y-86792328D01*
X148216206Y-86792335D01*
X148302452Y-86907544D01*
X148302455Y-86907547D01*
X148417664Y-86993793D01*
X148417671Y-86993797D01*
X148552517Y-87044091D01*
X148552516Y-87044091D01*
X148559444Y-87044835D01*
X148612127Y-87050500D01*
X150407872Y-87050499D01*
X150467483Y-87044091D01*
X150602331Y-86993796D01*
X150717546Y-86907546D01*
X150803796Y-86792331D01*
X150854091Y-86657483D01*
X150860500Y-86597873D01*
X150860499Y-84802128D01*
X150854091Y-84742517D01*
X150852869Y-84739241D01*
X150803797Y-84607671D01*
X150803793Y-84607664D01*
X150717547Y-84492455D01*
X150717544Y-84492452D01*
X150602335Y-84406206D01*
X150602332Y-84406205D01*
X150602331Y-84406204D01*
X150591161Y-84402038D01*
X150535231Y-84360166D01*
X150510816Y-84294701D01*
X150510500Y-84285858D01*
X150510500Y-78897541D01*
X150530185Y-78830502D01*
X150532894Y-78826463D01*
X150637102Y-78677639D01*
X150729575Y-78479330D01*
X150786207Y-78267977D01*
X150803306Y-78072524D01*
X150805277Y-78050002D01*
X150805277Y-78049997D01*
X150801569Y-78007618D01*
X150786207Y-77832023D01*
X150729575Y-77620670D01*
X150637102Y-77422362D01*
X150637100Y-77422359D01*
X150637099Y-77422357D01*
X150511599Y-77243124D01*
X150511596Y-77243121D01*
X150356877Y-77088402D01*
X150182715Y-76966452D01*
X150177638Y-76962897D01*
X150058057Y-76907136D01*
X149979330Y-76870425D01*
X149979326Y-76870424D01*
X149979322Y-76870422D01*
X149767977Y-76813793D01*
X149550002Y-76794723D01*
X149549998Y-76794723D01*
X149404682Y-76807436D01*
X149332023Y-76813793D01*
X149332020Y-76813793D01*
X149120677Y-76870422D01*
X149120668Y-76870426D01*
X148922361Y-76962898D01*
X148922357Y-76962900D01*
X148743121Y-77088402D01*
X148588402Y-77243121D01*
X148462900Y-77422357D01*
X148462898Y-77422361D01*
X148370426Y-77620668D01*
X148370422Y-77620677D01*
X148313793Y-77832020D01*
X148313793Y-77832024D01*
X148294723Y-78049997D01*
X148294723Y-78050002D01*
X148299413Y-78103612D01*
X148312268Y-78250550D01*
X148313793Y-78267975D01*
X148313793Y-78267979D01*
X148370422Y-78479322D01*
X148370424Y-78479326D01*
X148370425Y-78479330D01*
X148455660Y-78662116D01*
X148462898Y-78677639D01*
X148462901Y-78677645D01*
X148487074Y-78712166D01*
X148509402Y-78778372D01*
X148509500Y-78783290D01*
X148509500Y-84285858D01*
X148489815Y-84352897D01*
X148437011Y-84398652D01*
X148428847Y-84402034D01*
X148417669Y-84406204D01*
X148417664Y-84406206D01*
X148302455Y-84492452D01*
X148302452Y-84492455D01*
X148216206Y-84607664D01*
X148216202Y-84607671D01*
X148210682Y-84622473D01*
X148168811Y-84678407D01*
X148103346Y-84702824D01*
X148035073Y-84687972D01*
X147985668Y-84638567D01*
X147970500Y-84579140D01*
X147970500Y-75311853D01*
X147990185Y-75244814D01*
X147992909Y-75240751D01*
X148037102Y-75177639D01*
X148129575Y-74979330D01*
X148186207Y-74767977D01*
X148205277Y-74550000D01*
X148186207Y-74332023D01*
X148129575Y-74120670D01*
X148037102Y-73922362D01*
X148037100Y-73922359D01*
X148037099Y-73922357D01*
X147911599Y-73743124D01*
X147837899Y-73669424D01*
X147756877Y-73588402D01*
X147618978Y-73491844D01*
X147577638Y-73462897D01*
X147470414Y-73412898D01*
X147379330Y-73370425D01*
X147379326Y-73370424D01*
X147379322Y-73370422D01*
X147167977Y-73313793D01*
X146950002Y-73294723D01*
X146949998Y-73294723D01*
X146813190Y-73306692D01*
X146732023Y-73313793D01*
X146732020Y-73313793D01*
X146520677Y-73370422D01*
X146520668Y-73370426D01*
X146322361Y-73462898D01*
X146322357Y-73462900D01*
X146143121Y-73588402D01*
X145988402Y-73743121D01*
X145862900Y-73922357D01*
X145862898Y-73922361D01*
X145770426Y-74120668D01*
X145770422Y-74120677D01*
X145713793Y-74332020D01*
X145713793Y-74332023D01*
X145710853Y-74365633D01*
X145694723Y-74549997D01*
X145694723Y-74550002D01*
X145713793Y-74767975D01*
X145713793Y-74767979D01*
X145770422Y-74979322D01*
X145770424Y-74979326D01*
X145770425Y-74979330D01*
X145862898Y-75177639D01*
X145947075Y-75297856D01*
X145969402Y-75364061D01*
X145969500Y-75368979D01*
X145969500Y-84739241D01*
X145949815Y-84806280D01*
X145933181Y-84826922D01*
X145931505Y-84828597D01*
X145801575Y-85014158D01*
X145746998Y-85057783D01*
X145677500Y-85064977D01*
X145615145Y-85033454D01*
X145598425Y-85014158D01*
X145468499Y-84828604D01*
X145468489Y-84828592D01*
X145466811Y-84826914D01*
X145466308Y-84825994D01*
X145465018Y-84824456D01*
X145465327Y-84824196D01*
X145433331Y-84765588D01*
X145430500Y-84739241D01*
X145430500Y-73243491D01*
X145430520Y-73241921D01*
X145432757Y-73153641D01*
X145432756Y-73153640D01*
X145432757Y-73153637D01*
X145421933Y-73093249D01*
X145421280Y-73088587D01*
X145415074Y-73027563D01*
X145415074Y-73027562D01*
X145404784Y-72994768D01*
X145402917Y-72987155D01*
X145396858Y-72953347D01*
X145396857Y-72953345D01*
X145374102Y-72896379D01*
X145372521Y-72891938D01*
X145360402Y-72853313D01*
X145354159Y-72833412D01*
X145354158Y-72833410D01*
X145354157Y-72833407D01*
X145337488Y-72803378D01*
X145334117Y-72796278D01*
X145321378Y-72764386D01*
X145321377Y-72764383D01*
X145287620Y-72713163D01*
X145285180Y-72709134D01*
X145274379Y-72689675D01*
X145255409Y-72655498D01*
X145255407Y-72655495D01*
X145236527Y-72633504D01*
X145233030Y-72629431D01*
X145228302Y-72623159D01*
X145209402Y-72594481D01*
X145166012Y-72551091D01*
X145162822Y-72547648D01*
X145122867Y-72501106D01*
X145122863Y-72501102D01*
X145095698Y-72480074D01*
X145089811Y-72474890D01*
X143967010Y-71352090D01*
X143965914Y-71350966D01*
X143905061Y-71286949D01*
X143905060Y-71286948D01*
X143905059Y-71286947D01*
X143877204Y-71267559D01*
X143854709Y-71251902D01*
X143850946Y-71249064D01*
X143803413Y-71210305D01*
X143803406Y-71210300D01*
X143772959Y-71194397D01*
X143766251Y-71190334D01*
X143738049Y-71170705D01*
X143738046Y-71170703D01*
X143738045Y-71170703D01*
X143738041Y-71170701D01*
X143681680Y-71146514D01*
X143677424Y-71144493D01*
X143623057Y-71116094D01*
X143623050Y-71116091D01*
X143623049Y-71116091D01*
X143617008Y-71114362D01*
X143590030Y-71106642D01*
X143582630Y-71104008D01*
X143551057Y-71090459D01*
X143551058Y-71090459D01*
X143490966Y-71078109D01*
X143486391Y-71076986D01*
X143427420Y-71060113D01*
X143427425Y-71060113D01*
X143393158Y-71057503D01*
X143385380Y-71056412D01*
X143351742Y-71049500D01*
X143351741Y-71049500D01*
X143290402Y-71049500D01*
X143285695Y-71049321D01*
X143280121Y-71048896D01*
X143224524Y-71044662D01*
X143204589Y-71047201D01*
X143190440Y-71049003D01*
X143182611Y-71049500D01*
X118112855Y-71049500D01*
X118045816Y-71029815D01*
X118021626Y-71009483D01*
X117959747Y-70942265D01*
X117959744Y-70942262D01*
X117959744Y-70942261D01*
X117876991Y-70877852D01*
X117836179Y-70821143D01*
X117832504Y-70751370D01*
X117867136Y-70690687D01*
X117876985Y-70682151D01*
X117959744Y-70617738D01*
X118128164Y-70434785D01*
X118264173Y-70226607D01*
X118364063Y-69998881D01*
X118425108Y-69757821D01*
X118445643Y-69510000D01*
X118441979Y-69465783D01*
X118425109Y-69262187D01*
X118425107Y-69262175D01*
X118364063Y-69021118D01*
X118264173Y-68793393D01*
X118128166Y-68585217D01*
X118106557Y-68561744D01*
X117959744Y-68402262D01*
X117876991Y-68337852D01*
X117836179Y-68281143D01*
X117832504Y-68211370D01*
X117867136Y-68150687D01*
X117876985Y-68142151D01*
X117959744Y-68077738D01*
X117984194Y-68051177D01*
X118021626Y-68010517D01*
X118081513Y-67974526D01*
X118112855Y-67970500D01*
X131766507Y-67970500D01*
X131768069Y-67970519D01*
X131805283Y-67971462D01*
X131856358Y-67972757D01*
X131856358Y-67972756D01*
X131856363Y-67972757D01*
X131916753Y-67961932D01*
X131921412Y-67961280D01*
X131963607Y-67956988D01*
X131982438Y-67955074D01*
X132015227Y-67944786D01*
X132022840Y-67942918D01*
X132056653Y-67936858D01*
X132113621Y-67914101D01*
X132118053Y-67912524D01*
X132176588Y-67894159D01*
X132206627Y-67877484D01*
X132213708Y-67874122D01*
X132245617Y-67861377D01*
X132296854Y-67827608D01*
X132300851Y-67825187D01*
X132354502Y-67795409D01*
X132380568Y-67773030D01*
X132386843Y-67768300D01*
X132415519Y-67749402D01*
X132458892Y-67706027D01*
X132462350Y-67702823D01*
X132465613Y-67700020D01*
X132508895Y-67662866D01*
X132529928Y-67635691D01*
X132535098Y-67629821D01*
X137507981Y-62656937D01*
X137508994Y-62655950D01*
X137573053Y-62595059D01*
X137608099Y-62544706D01*
X137610938Y-62540941D01*
X137614612Y-62536435D01*
X137649698Y-62493407D01*
X137665601Y-62462960D01*
X137669674Y-62456239D01*
X137674489Y-62449320D01*
X137689295Y-62428049D01*
X137713492Y-62371660D01*
X137715498Y-62367435D01*
X137743909Y-62313049D01*
X137753357Y-62280022D01*
X137755988Y-62272633D01*
X137769540Y-62241058D01*
X137781895Y-62180930D01*
X137782999Y-62176429D01*
X137799886Y-62117418D01*
X137802494Y-62083157D01*
X137803585Y-62075389D01*
X137810500Y-62041743D01*
X137810500Y-61980398D01*
X137810679Y-61975688D01*
X137815337Y-61914524D01*
X137812473Y-61892038D01*
X137810997Y-61880442D01*
X137810500Y-61872603D01*
X137810500Y-57660758D01*
X137830185Y-57593719D01*
X137846827Y-57573069D01*
X137847312Y-57572584D01*
X137848495Y-57571401D01*
X137978426Y-57385840D01*
X138033001Y-57342217D01*
X138102499Y-57335023D01*
X138164854Y-57366546D01*
X138181574Y-57385841D01*
X138222957Y-57444941D01*
X138311505Y-57571401D01*
X138478599Y-57738495D01*
X138564926Y-57798942D01*
X138672165Y-57874032D01*
X138672167Y-57874033D01*
X138672170Y-57874035D01*
X138886337Y-57973903D01*
X139114592Y-58035063D01*
X139291034Y-58050500D01*
X139349999Y-58055659D01*
X139350000Y-58055659D01*
X139350001Y-58055659D01*
X139408966Y-58050500D01*
X139585408Y-58035063D01*
X139813663Y-57973903D01*
X140027830Y-57874035D01*
X140221401Y-57738495D01*
X140388495Y-57571401D01*
X140518426Y-57385841D01*
X140573002Y-57342217D01*
X140642500Y-57335023D01*
X140704855Y-57366546D01*
X140721575Y-57385842D01*
X140851281Y-57571082D01*
X140851505Y-57571401D01*
X141018599Y-57738495D01*
X141104926Y-57798942D01*
X141212165Y-57874032D01*
X141212167Y-57874033D01*
X141212170Y-57874035D01*
X141426337Y-57973903D01*
X141654592Y-58035063D01*
X141831034Y-58050500D01*
X141889999Y-58055659D01*
X141890000Y-58055659D01*
X141890001Y-58055659D01*
X141948966Y-58050500D01*
X142125408Y-58035063D01*
X142353663Y-57973903D01*
X142567830Y-57874035D01*
X142761401Y-57738495D01*
X142928495Y-57571401D01*
X143058426Y-57385841D01*
X143113002Y-57342217D01*
X143182500Y-57335023D01*
X143244855Y-57366546D01*
X143261575Y-57385842D01*
X143391281Y-57571082D01*
X143391505Y-57571401D01*
X143558599Y-57738495D01*
X143644926Y-57798942D01*
X143752165Y-57874032D01*
X143752167Y-57874033D01*
X143752170Y-57874035D01*
X143966337Y-57973903D01*
X144194592Y-58035063D01*
X144371034Y-58050500D01*
X144429999Y-58055659D01*
X144430000Y-58055659D01*
X144430001Y-58055659D01*
X144488966Y-58050500D01*
X144665408Y-58035063D01*
X144893663Y-57973903D01*
X145107830Y-57874035D01*
X145301401Y-57738495D01*
X145468495Y-57571401D01*
X145598426Y-57385841D01*
X145653002Y-57342217D01*
X145722500Y-57335023D01*
X145784855Y-57366546D01*
X145801575Y-57385842D01*
X145931281Y-57571082D01*
X145931505Y-57571401D01*
X146098599Y-57738495D01*
X146184926Y-57798942D01*
X146292165Y-57874032D01*
X146292167Y-57874033D01*
X146292170Y-57874035D01*
X146506337Y-57973903D01*
X146734592Y-58035063D01*
X146911034Y-58050500D01*
X146969999Y-58055659D01*
X146970000Y-58055659D01*
X146970001Y-58055659D01*
X147028966Y-58050500D01*
X147205408Y-58035063D01*
X147433663Y-57973903D01*
X147647830Y-57874035D01*
X147841401Y-57738495D01*
X147963329Y-57616566D01*
X148024648Y-57583084D01*
X148094340Y-57588068D01*
X148150274Y-57629939D01*
X148167189Y-57660917D01*
X148216202Y-57792328D01*
X148216206Y-57792335D01*
X148302452Y-57907544D01*
X148302455Y-57907547D01*
X148417664Y-57993793D01*
X148417671Y-57993797D01*
X148552517Y-58044091D01*
X148552516Y-58044091D01*
X148559444Y-58044835D01*
X148612127Y-58050500D01*
X150407872Y-58050499D01*
X150467483Y-58044091D01*
X150602331Y-57993796D01*
X150717546Y-57907546D01*
X150803796Y-57792331D01*
X150854091Y-57657483D01*
X150860500Y-57597873D01*
X150860499Y-55802128D01*
X150854091Y-55742517D01*
X150852869Y-55739241D01*
X150803797Y-55607671D01*
X150803793Y-55607664D01*
X150717547Y-55492455D01*
X150717544Y-55492452D01*
X150602335Y-55406206D01*
X150602328Y-55406202D01*
X150467482Y-55355908D01*
X150467483Y-55355908D01*
X150407883Y-55349501D01*
X150407881Y-55349500D01*
X150407873Y-55349500D01*
X150407864Y-55349500D01*
X148612129Y-55349500D01*
X148612123Y-55349501D01*
X148552516Y-55355908D01*
X148417671Y-55406202D01*
X148417664Y-55406206D01*
X148302455Y-55492452D01*
X148302452Y-55492455D01*
X148216206Y-55607664D01*
X148216202Y-55607671D01*
X148210682Y-55622473D01*
X148168811Y-55678407D01*
X148103346Y-55702824D01*
X148035073Y-55687972D01*
X147985668Y-55638567D01*
X147970500Y-55579140D01*
X147970500Y-49962561D01*
X147975284Y-49928449D01*
X147989886Y-49877418D01*
X147991108Y-49861362D01*
X147993960Y-49842749D01*
X147997603Y-49827054D01*
X147997603Y-49827051D01*
X147999498Y-49752244D01*
X147999657Y-49749105D01*
X148001287Y-49727697D01*
X148005337Y-49674524D01*
X148003302Y-49658555D01*
X148002348Y-49639742D01*
X148002757Y-49623637D01*
X147989553Y-49549975D01*
X147989082Y-49546895D01*
X147979630Y-49472673D01*
X147974418Y-49457428D01*
X147969698Y-49439199D01*
X147966858Y-49423348D01*
X147939094Y-49353843D01*
X147938019Y-49350940D01*
X147913816Y-49280128D01*
X147905644Y-49266246D01*
X147897355Y-49249346D01*
X147891379Y-49234384D01*
X147891377Y-49234380D01*
X147850205Y-49171912D01*
X147848543Y-49169245D01*
X147810593Y-49104778D01*
X147810592Y-49104777D01*
X147810590Y-49104773D01*
X147799784Y-49092813D01*
X147788268Y-49077935D01*
X147779402Y-49064482D01*
X147779400Y-49064480D01*
X147779399Y-49064478D01*
X147726513Y-49011593D01*
X147724349Y-49009316D01*
X147674180Y-48953788D01*
X147674179Y-48953787D01*
X147661186Y-48944246D01*
X147646905Y-48931985D01*
X146891967Y-48177047D01*
X146116973Y-47402053D01*
X146115915Y-47400967D01*
X146055061Y-47336949D01*
X146055060Y-47336948D01*
X146055059Y-47336947D01*
X146026933Y-47317371D01*
X146004709Y-47301902D01*
X146000946Y-47299064D01*
X145953413Y-47260305D01*
X145953406Y-47260300D01*
X145922959Y-47244397D01*
X145916251Y-47240334D01*
X145888049Y-47220705D01*
X145888046Y-47220703D01*
X145888045Y-47220703D01*
X145888041Y-47220701D01*
X145831680Y-47196514D01*
X145827424Y-47194493D01*
X145773057Y-47166094D01*
X145773050Y-47166091D01*
X145773049Y-47166091D01*
X145767008Y-47164362D01*
X145740030Y-47156642D01*
X145732630Y-47154008D01*
X145701057Y-47140459D01*
X145701058Y-47140459D01*
X145640966Y-47128109D01*
X145636391Y-47126986D01*
X145577420Y-47110113D01*
X145577425Y-47110113D01*
X145543158Y-47107503D01*
X145535380Y-47106412D01*
X145501742Y-47099500D01*
X145501741Y-47099500D01*
X145440402Y-47099500D01*
X145435695Y-47099321D01*
X145430121Y-47098896D01*
X145374524Y-47094662D01*
X145354589Y-47097201D01*
X145340440Y-47099003D01*
X145332611Y-47099500D01*
X145140417Y-47099500D01*
X145073378Y-47079815D01*
X145069294Y-47077075D01*
X144977643Y-47012900D01*
X144977639Y-47012898D01*
X144939130Y-46994941D01*
X144779330Y-46920425D01*
X144779326Y-46920424D01*
X144779322Y-46920422D01*
X144567977Y-46863793D01*
X144350002Y-46844723D01*
X144349998Y-46844723D01*
X144204681Y-46857436D01*
X144132023Y-46863793D01*
X144132020Y-46863793D01*
X143920677Y-46920422D01*
X143920668Y-46920426D01*
X143722361Y-47012898D01*
X143722357Y-47012900D01*
X143543121Y-47138402D01*
X143388402Y-47293121D01*
X143262900Y-47472357D01*
X143262898Y-47472361D01*
X143170426Y-47670668D01*
X143170422Y-47670677D01*
X143134275Y-47805583D01*
X143097910Y-47865244D01*
X143035063Y-47895773D01*
X142965688Y-47887478D01*
X142911810Y-47842993D01*
X142890535Y-47776441D01*
X142890500Y-47773490D01*
X142890500Y-46153491D01*
X142890520Y-46151921D01*
X142892757Y-46063641D01*
X142892756Y-46063640D01*
X142892757Y-46063637D01*
X142881933Y-46003249D01*
X142881280Y-45998587D01*
X142875074Y-45937563D01*
X142875074Y-45937562D01*
X142864784Y-45904768D01*
X142862917Y-45897155D01*
X142856858Y-45863347D01*
X142856857Y-45863345D01*
X142834102Y-45806379D01*
X142832521Y-45801938D01*
X142814157Y-45743407D01*
X142797488Y-45713378D01*
X142794117Y-45706278D01*
X142781378Y-45674386D01*
X142781377Y-45674383D01*
X142747620Y-45623163D01*
X142745180Y-45619134D01*
X142734379Y-45599675D01*
X142715409Y-45565498D01*
X142715407Y-45565495D01*
X142693033Y-45539434D01*
X142688302Y-45533159D01*
X142669402Y-45504481D01*
X142626033Y-45461112D01*
X142622829Y-45457656D01*
X142582866Y-45411105D01*
X142582861Y-45411101D01*
X142578315Y-45406780D01*
X142579121Y-45405931D01*
X142541906Y-45354498D01*
X142536658Y-45334583D01*
X142536206Y-45332020D01*
X142479577Y-45120677D01*
X142479576Y-45120676D01*
X142479575Y-45120670D01*
X142387102Y-44922362D01*
X142387100Y-44922359D01*
X142387099Y-44922357D01*
X142261599Y-44743124D01*
X142210858Y-44692383D01*
X142106877Y-44588402D01*
X141929814Y-44464421D01*
X141927638Y-44462897D01*
X141828484Y-44416661D01*
X141729330Y-44370425D01*
X141729326Y-44370424D01*
X141729322Y-44370422D01*
X141517977Y-44313793D01*
X141300002Y-44294723D01*
X141299998Y-44294723D01*
X141154681Y-44307436D01*
X141082023Y-44313793D01*
X141082020Y-44313793D01*
X140870677Y-44370422D01*
X140870668Y-44370426D01*
X140672361Y-44462898D01*
X140672357Y-44462901D01*
X140545623Y-44551640D01*
X140479417Y-44573967D01*
X140411649Y-44556956D01*
X140363837Y-44506008D01*
X140350500Y-44450065D01*
X140350500Y-44063491D01*
X140350520Y-44061921D01*
X140352757Y-43973641D01*
X140352756Y-43973640D01*
X140352757Y-43973637D01*
X140341933Y-43913253D01*
X140341280Y-43908587D01*
X140338034Y-43876674D01*
X140335074Y-43847562D01*
X140324788Y-43814780D01*
X140322918Y-43807166D01*
X140316858Y-43773348D01*
X140294092Y-43716352D01*
X140292527Y-43711955D01*
X140274159Y-43653412D01*
X140257491Y-43623382D01*
X140254120Y-43616284D01*
X140241378Y-43584383D01*
X140207605Y-43533139D01*
X140205183Y-43529142D01*
X140175409Y-43475498D01*
X140153034Y-43449434D01*
X140148306Y-43443163D01*
X140129404Y-43414484D01*
X140129399Y-43414478D01*
X140107715Y-43392795D01*
X140086019Y-43371099D01*
X140082828Y-43367655D01*
X140042865Y-43321104D01*
X140015694Y-43300072D01*
X140009807Y-43294887D01*
X138616973Y-41902053D01*
X138615915Y-41900967D01*
X138555061Y-41836949D01*
X138555060Y-41836948D01*
X138555059Y-41836947D01*
X138527204Y-41817559D01*
X138504709Y-41801902D01*
X138500946Y-41799064D01*
X138453413Y-41760305D01*
X138453406Y-41760300D01*
X138422959Y-41744397D01*
X138416251Y-41740334D01*
X138388049Y-41720705D01*
X138388046Y-41720703D01*
X138388045Y-41720703D01*
X138388041Y-41720701D01*
X138331680Y-41696514D01*
X138327424Y-41694493D01*
X138273057Y-41666094D01*
X138273050Y-41666091D01*
X138273049Y-41666091D01*
X138267008Y-41664362D01*
X138240030Y-41656642D01*
X138232630Y-41654008D01*
X138201057Y-41640459D01*
X138201058Y-41640459D01*
X138140966Y-41628109D01*
X138136391Y-41626986D01*
X138077420Y-41610113D01*
X138077425Y-41610113D01*
X138043158Y-41607503D01*
X138035380Y-41606412D01*
X138001742Y-41599500D01*
X138001741Y-41599500D01*
X137940402Y-41599500D01*
X137935695Y-41599321D01*
X137930121Y-41598896D01*
X137874524Y-41594662D01*
X137854589Y-41597201D01*
X137840440Y-41599003D01*
X137832611Y-41599500D01*
X104413452Y-41599500D01*
X104411889Y-41599480D01*
X104323636Y-41597244D01*
X104323635Y-41597244D01*
X104323626Y-41597244D01*
X104263263Y-41608064D01*
X104258597Y-41608718D01*
X104197564Y-41614925D01*
X104164780Y-41625210D01*
X104157153Y-41627082D01*
X104123349Y-41633141D01*
X104066381Y-41655895D01*
X104061945Y-41657474D01*
X104003414Y-41675840D01*
X104003410Y-41675842D01*
X103973378Y-41692510D01*
X103966284Y-41695879D01*
X103934382Y-41708623D01*
X103934377Y-41708625D01*
X103883156Y-41742381D01*
X103879128Y-41744822D01*
X103825501Y-41774588D01*
X103799434Y-41796965D01*
X103793165Y-41801692D01*
X103764484Y-41820595D01*
X103764478Y-41820600D01*
X103721109Y-41863968D01*
X103717655Y-41867169D01*
X103671102Y-41907136D01*
X103650076Y-41934298D01*
X103644885Y-41940192D01*
X98652091Y-46932987D01*
X98650967Y-46934083D01*
X98586946Y-46994942D01*
X98551899Y-47045294D01*
X98549062Y-47049056D01*
X98510302Y-47096592D01*
X98510299Y-47096597D01*
X98494392Y-47127047D01*
X98490324Y-47133761D01*
X98470702Y-47161954D01*
X98446509Y-47218330D01*
X98444488Y-47222584D01*
X98416091Y-47276951D01*
X98416090Y-47276952D01*
X98406640Y-47309975D01*
X98404007Y-47317371D01*
X98390459Y-47348943D01*
X98378113Y-47409019D01*
X98376990Y-47413595D01*
X98360113Y-47472577D01*
X98360113Y-47472579D01*
X98357503Y-47506841D01*
X98356414Y-47514608D01*
X98350980Y-47541052D01*
X98349500Y-47548258D01*
X98349500Y-47609597D01*
X98349321Y-47614306D01*
X98344662Y-47675474D01*
X98346707Y-47691527D01*
X98349003Y-47709560D01*
X98349500Y-47717388D01*
X98349500Y-71934217D01*
X98329815Y-72001256D01*
X98313181Y-72021898D01*
X96781899Y-73553181D01*
X96720576Y-73586666D01*
X96694218Y-73589500D01*
X92712855Y-73589500D01*
X92645816Y-73569815D01*
X92621626Y-73549483D01*
X92559747Y-73482265D01*
X92559744Y-73482262D01*
X92517651Y-73449500D01*
X92476991Y-73417852D01*
X92436179Y-73361143D01*
X92432504Y-73291370D01*
X92467136Y-73230687D01*
X92476985Y-73222151D01*
X92559744Y-73157738D01*
X92728164Y-72974785D01*
X92864173Y-72766607D01*
X92964063Y-72538881D01*
X93025108Y-72297821D01*
X93025109Y-72297812D01*
X93045643Y-72050005D01*
X93045643Y-72049994D01*
X93025109Y-71802187D01*
X93025107Y-71802175D01*
X92964063Y-71561118D01*
X92864173Y-71333393D01*
X92728166Y-71125217D01*
X92668233Y-71060113D01*
X92559744Y-70942262D01*
X92476991Y-70877852D01*
X92436179Y-70821143D01*
X92432504Y-70751370D01*
X92467136Y-70690687D01*
X92476985Y-70682151D01*
X92559744Y-70617738D01*
X92728164Y-70434785D01*
X92864173Y-70226607D01*
X92964063Y-69998881D01*
X93025108Y-69757821D01*
X93045643Y-69510000D01*
X93041979Y-69465783D01*
X93025109Y-69262187D01*
X93025107Y-69262175D01*
X92964063Y-69021118D01*
X92864173Y-68793393D01*
X92728166Y-68585217D01*
X92706557Y-68561744D01*
X92559744Y-68402262D01*
X92476991Y-68337852D01*
X92436179Y-68281143D01*
X92432504Y-68211370D01*
X92467136Y-68150687D01*
X92476985Y-68142151D01*
X92559744Y-68077738D01*
X92728164Y-67894785D01*
X92864173Y-67686607D01*
X92964063Y-67458881D01*
X93025108Y-67217821D01*
X93026539Y-67200555D01*
X93045643Y-66970005D01*
X93045643Y-66969994D01*
X93025109Y-66722187D01*
X93025107Y-66722175D01*
X92964063Y-66481118D01*
X92864173Y-66253393D01*
X92728166Y-66045217D01*
X92658463Y-65969500D01*
X92559744Y-65862262D01*
X92476991Y-65797852D01*
X92436179Y-65741143D01*
X92432504Y-65671370D01*
X92467136Y-65610687D01*
X92476985Y-65602151D01*
X92559744Y-65537738D01*
X92728164Y-65354785D01*
X92864173Y-65146607D01*
X92964063Y-64918881D01*
X93025108Y-64677821D01*
X93045643Y-64430000D01*
X93025108Y-64182179D01*
X92964063Y-63941119D01*
X92864173Y-63713393D01*
X92813049Y-63635141D01*
X92728166Y-63505217D01*
X92658026Y-63429025D01*
X92559744Y-63322262D01*
X92476991Y-63257852D01*
X92436179Y-63201143D01*
X92432504Y-63131370D01*
X92467136Y-63070687D01*
X92476985Y-63062151D01*
X92559744Y-62997738D01*
X92728164Y-62814785D01*
X92864173Y-62606607D01*
X92964063Y-62378881D01*
X93025108Y-62137821D01*
X93026799Y-62117416D01*
X93045643Y-61890005D01*
X93045643Y-61889994D01*
X93025109Y-61642187D01*
X93025107Y-61642175D01*
X92964063Y-61401118D01*
X92864173Y-61173393D01*
X92728166Y-60965217D01*
X92706557Y-60941744D01*
X92559744Y-60782262D01*
X92456253Y-60701712D01*
X92415442Y-60645003D01*
X92408655Y-60596176D01*
X92410056Y-60573609D01*
X91681367Y-59844918D01*
X91685161Y-59844373D01*
X91818562Y-59783451D01*
X91929395Y-59687413D01*
X92008682Y-59564040D01*
X92031132Y-59487580D01*
X92763434Y-60219882D01*
X92863731Y-60066369D01*
X92963587Y-59838717D01*
X93024612Y-59597738D01*
X93024614Y-59597729D01*
X93045141Y-59350005D01*
X93045141Y-59349994D01*
X93024614Y-59102270D01*
X93024612Y-59102261D01*
X92963587Y-58861282D01*
X92863733Y-58633635D01*
X92732817Y-58433252D01*
X92712630Y-58366362D01*
X92731810Y-58299176D01*
X92777203Y-58256595D01*
X92782321Y-58253799D01*
X92782331Y-58253796D01*
X92897546Y-58167546D01*
X92983796Y-58052331D01*
X93034091Y-57917483D01*
X93040500Y-57857873D01*
X93040499Y-55762128D01*
X93034091Y-55702517D01*
X93018938Y-55661891D01*
X92983797Y-55567671D01*
X92983793Y-55567664D01*
X92897547Y-55452455D01*
X92897544Y-55452452D01*
X92782335Y-55366206D01*
X92782328Y-55366202D01*
X92647482Y-55315908D01*
X92647483Y-55315908D01*
X92587883Y-55309501D01*
X92587881Y-55309500D01*
X92587873Y-55309500D01*
X92587864Y-55309500D01*
X90492129Y-55309500D01*
X90492123Y-55309501D01*
X90432516Y-55315908D01*
X90297671Y-55366202D01*
X90297664Y-55366206D01*
X90182455Y-55452452D01*
X90182452Y-55452455D01*
X90096206Y-55567664D01*
X90096202Y-55567671D01*
X90045908Y-55702517D01*
X90044126Y-55710062D01*
X90041853Y-55709525D01*
X90019571Y-55763312D01*
X89962177Y-55803157D01*
X89923024Y-55809500D01*
X85873452Y-55809500D01*
X85871889Y-55809480D01*
X85783636Y-55807244D01*
X85783635Y-55807244D01*
X85783626Y-55807244D01*
X85723263Y-55818064D01*
X85718597Y-55818718D01*
X85657564Y-55824925D01*
X85624780Y-55835210D01*
X85617153Y-55837082D01*
X85583349Y-55843141D01*
X85526381Y-55865895D01*
X85521945Y-55867474D01*
X85463414Y-55885840D01*
X85463410Y-55885842D01*
X85433378Y-55902510D01*
X85426284Y-55905879D01*
X85394382Y-55918623D01*
X85394377Y-55918625D01*
X85343156Y-55952381D01*
X85339128Y-55954822D01*
X85285498Y-55984590D01*
X85259434Y-56006964D01*
X85253165Y-56011691D01*
X85226853Y-56029034D01*
X85160046Y-56049492D01*
X85158613Y-56049500D01*
X84472129Y-56049500D01*
X84472123Y-56049501D01*
X84412516Y-56055908D01*
X84277671Y-56106202D01*
X84277664Y-56106206D01*
X84162456Y-56192452D01*
X84162455Y-56192453D01*
X84162454Y-56192454D01*
X84082087Y-56299811D01*
X84026153Y-56341682D01*
X83982820Y-56349500D01*
X80663493Y-56349500D01*
X80661930Y-56349480D01*
X80573637Y-56347243D01*
X80573628Y-56347243D01*
X80520636Y-56356741D01*
X80513254Y-56358064D01*
X80508595Y-56358718D01*
X80447564Y-56364925D01*
X80447562Y-56364926D01*
X80414780Y-56375210D01*
X80407156Y-56377081D01*
X80399308Y-56378488D01*
X80373349Y-56383141D01*
X80373341Y-56383143D01*
X80316382Y-56405895D01*
X80311946Y-56407474D01*
X80254575Y-56425476D01*
X80253412Y-56425841D01*
X80253410Y-56425842D01*
X80253403Y-56425845D01*
X80223384Y-56442507D01*
X80216290Y-56445876D01*
X80184390Y-56458619D01*
X80184388Y-56458619D01*
X80184383Y-56458622D01*
X80184376Y-56458626D01*
X80184377Y-56458626D01*
X80133154Y-56492383D01*
X80129126Y-56494824D01*
X80075502Y-56524588D01*
X80075499Y-56524590D01*
X80049427Y-56546970D01*
X80043160Y-56551695D01*
X80014482Y-56570598D01*
X80014475Y-56570603D01*
X79971116Y-56613962D01*
X79967661Y-56617164D01*
X79921106Y-56657132D01*
X79921105Y-56657133D01*
X79900076Y-56684300D01*
X79894884Y-56690194D01*
X79302091Y-57282987D01*
X79300967Y-57284083D01*
X79236946Y-57344942D01*
X79201899Y-57395294D01*
X79199062Y-57399056D01*
X79160302Y-57446592D01*
X79160299Y-57446597D01*
X79144392Y-57477047D01*
X79140324Y-57483761D01*
X79120702Y-57511954D01*
X79096509Y-57568330D01*
X79094488Y-57572584D01*
X79066091Y-57626951D01*
X79066090Y-57626952D01*
X79056640Y-57659975D01*
X79054007Y-57667371D01*
X79040459Y-57698943D01*
X79028113Y-57759019D01*
X79026990Y-57763595D01*
X79010113Y-57822577D01*
X79010113Y-57822579D01*
X79007503Y-57856841D01*
X79006414Y-57864608D01*
X79004478Y-57874034D01*
X78999500Y-57898258D01*
X78999500Y-57959597D01*
X78999321Y-57964306D01*
X78994662Y-58025474D01*
X78995884Y-58035063D01*
X78999003Y-58059560D01*
X78999500Y-58067388D01*
X78999500Y-66534216D01*
X78979815Y-66601255D01*
X78963181Y-66621897D01*
X77252091Y-68332987D01*
X77250968Y-68334083D01*
X77209434Y-68373565D01*
X77147283Y-68405487D01*
X77077740Y-68398741D01*
X77022884Y-68355467D01*
X77000132Y-68289406D01*
X77000000Y-68283693D01*
X77000000Y-48981187D01*
X90209500Y-48981187D01*
X90225271Y-49085814D01*
X90248604Y-49240615D01*
X90248605Y-49240617D01*
X90248606Y-49240623D01*
X90325938Y-49491326D01*
X90439767Y-49727696D01*
X90439768Y-49727697D01*
X90439770Y-49727700D01*
X90439772Y-49727704D01*
X90576638Y-49928449D01*
X90587567Y-49944479D01*
X90766014Y-50136801D01*
X90766018Y-50136804D01*
X90766019Y-50136805D01*
X90971143Y-50300386D01*
X91198357Y-50431568D01*
X91442584Y-50527420D01*
X91698370Y-50585802D01*
X91698376Y-50585802D01*
X91698379Y-50585803D01*
X91894484Y-50600499D01*
X91894503Y-50600499D01*
X91894506Y-50600500D01*
X91894508Y-50600500D01*
X92025492Y-50600500D01*
X92025494Y-50600500D01*
X92025496Y-50600499D01*
X92025515Y-50600499D01*
X92221620Y-50585803D01*
X92221622Y-50585802D01*
X92221630Y-50585802D01*
X92477416Y-50527420D01*
X92721643Y-50431568D01*
X92948857Y-50300386D01*
X93153981Y-50136805D01*
X93332433Y-49944479D01*
X93480228Y-49727704D01*
X93594063Y-49491323D01*
X93671396Y-49240615D01*
X93710500Y-48981182D01*
X93710500Y-48718818D01*
X93671396Y-48459385D01*
X93594063Y-48208677D01*
X93564165Y-48146593D01*
X93480232Y-47972303D01*
X93480231Y-47972302D01*
X93480230Y-47972301D01*
X93480228Y-47972296D01*
X93332433Y-47755521D01*
X93297051Y-47717388D01*
X93153985Y-47563198D01*
X93073419Y-47498949D01*
X92948857Y-47399614D01*
X92721643Y-47268432D01*
X92477416Y-47172580D01*
X92477411Y-47172578D01*
X92477402Y-47172576D01*
X92259818Y-47122914D01*
X92221630Y-47114198D01*
X92221629Y-47114197D01*
X92221625Y-47114197D01*
X92221620Y-47114196D01*
X92025515Y-47099500D01*
X92025494Y-47099500D01*
X91894506Y-47099500D01*
X91894484Y-47099500D01*
X91698379Y-47114196D01*
X91698374Y-47114197D01*
X91442597Y-47172576D01*
X91442578Y-47172582D01*
X91198356Y-47268432D01*
X90971143Y-47399614D01*
X90766014Y-47563198D01*
X90587567Y-47755520D01*
X90439768Y-47972302D01*
X90439767Y-47972303D01*
X90325938Y-48208673D01*
X90248606Y-48459376D01*
X90248605Y-48459381D01*
X90248604Y-48459385D01*
X90238061Y-48529330D01*
X90209500Y-48718812D01*
X90209500Y-48981187D01*
X77000000Y-48981187D01*
X77000000Y-41124500D01*
X77019685Y-41057461D01*
X77072489Y-41011706D01*
X77124000Y-41000500D01*
X152875500Y-41000500D01*
X152942539Y-41020185D01*
G37*
%TD.AperFunction*%
%TA.AperFunction,Conductor*%
G36*
X138310354Y-53219974D02*
G01*
X138345769Y-53280204D01*
X138349500Y-53310394D01*
X138349500Y-55739241D01*
X138329815Y-55806280D01*
X138313181Y-55826922D01*
X138311505Y-55828597D01*
X138181575Y-56014158D01*
X138126998Y-56057783D01*
X138057500Y-56064977D01*
X137995145Y-56033454D01*
X137978425Y-56014158D01*
X137848494Y-55828597D01*
X137681402Y-55661506D01*
X137681395Y-55661501D01*
X137487834Y-55525967D01*
X137487830Y-55525965D01*
X137487829Y-55525964D01*
X137273663Y-55426097D01*
X137273659Y-55426096D01*
X137273655Y-55426094D01*
X137045413Y-55364938D01*
X137045403Y-55364936D01*
X136810001Y-55344341D01*
X136809999Y-55344341D01*
X136574596Y-55364936D01*
X136574586Y-55364938D01*
X136346344Y-55426094D01*
X136346335Y-55426098D01*
X136132171Y-55525964D01*
X136132169Y-55525965D01*
X135938597Y-55661505D01*
X135771505Y-55828597D01*
X135641575Y-56014158D01*
X135586998Y-56057783D01*
X135517500Y-56064977D01*
X135455145Y-56033454D01*
X135438425Y-56014158D01*
X135308494Y-55828597D01*
X135141402Y-55661506D01*
X135141395Y-55661501D01*
X134947834Y-55525967D01*
X134947830Y-55525965D01*
X134947830Y-55525964D01*
X134733663Y-55426097D01*
X134733659Y-55426096D01*
X134733655Y-55426094D01*
X134505413Y-55364938D01*
X134505403Y-55364936D01*
X134270001Y-55344341D01*
X134269999Y-55344341D01*
X134034596Y-55364936D01*
X134034586Y-55364938D01*
X133806344Y-55426094D01*
X133806335Y-55426098D01*
X133592171Y-55525964D01*
X133592169Y-55525965D01*
X133398597Y-55661505D01*
X133231508Y-55828594D01*
X133101269Y-56014595D01*
X133046692Y-56058219D01*
X132977193Y-56065412D01*
X132914839Y-56033890D01*
X132898119Y-56014594D01*
X132768113Y-55828926D01*
X132768108Y-55828920D01*
X132601082Y-55661894D01*
X132407578Y-55526399D01*
X132193492Y-55426570D01*
X132193486Y-55426567D01*
X131980000Y-55369364D01*
X131980000Y-56264498D01*
X131872315Y-56215320D01*
X131765763Y-56200000D01*
X131694237Y-56200000D01*
X131587685Y-56215320D01*
X131480000Y-56264498D01*
X131480000Y-55369364D01*
X131479999Y-55369364D01*
X131266513Y-55426567D01*
X131266507Y-55426570D01*
X131052422Y-55526399D01*
X131052420Y-55526400D01*
X130858926Y-55661886D01*
X130858920Y-55661891D01*
X130691891Y-55828920D01*
X130691886Y-55828926D01*
X130556400Y-56022420D01*
X130556399Y-56022422D01*
X130456570Y-56236507D01*
X130456567Y-56236513D01*
X130399364Y-56449999D01*
X130399364Y-56450000D01*
X131296314Y-56450000D01*
X131270507Y-56490156D01*
X131230000Y-56628111D01*
X131230000Y-56771889D01*
X131270507Y-56909844D01*
X131296314Y-56950000D01*
X130399364Y-56950000D01*
X130456567Y-57163486D01*
X130456570Y-57163492D01*
X130556399Y-57377578D01*
X130691894Y-57571082D01*
X130858917Y-57738105D01*
X131052421Y-57873600D01*
X131266507Y-57973429D01*
X131266516Y-57973433D01*
X131480000Y-58030634D01*
X131479999Y-57135501D01*
X131587685Y-57184680D01*
X131694237Y-57200000D01*
X131765763Y-57200000D01*
X131872315Y-57184680D01*
X131980000Y-57135501D01*
X131980000Y-58030633D01*
X132193483Y-57973433D01*
X132193492Y-57973429D01*
X132407578Y-57873600D01*
X132601082Y-57738105D01*
X132768105Y-57571082D01*
X132898119Y-57385405D01*
X132952696Y-57341781D01*
X133022195Y-57334588D01*
X133084549Y-57366110D01*
X133101269Y-57385405D01*
X133231505Y-57571401D01*
X133398599Y-57738495D01*
X133484926Y-57798942D01*
X133592165Y-57874032D01*
X133592167Y-57874033D01*
X133592170Y-57874035D01*
X133806337Y-57973903D01*
X134034592Y-58035063D01*
X134211034Y-58050500D01*
X134269999Y-58055659D01*
X134270000Y-58055659D01*
X134270001Y-58055659D01*
X134328966Y-58050500D01*
X134505408Y-58035063D01*
X134733663Y-57973903D01*
X134947830Y-57874035D01*
X135141401Y-57738495D01*
X135308495Y-57571401D01*
X135438426Y-57385841D01*
X135493002Y-57342217D01*
X135562500Y-57335023D01*
X135624855Y-57366546D01*
X135641571Y-57385837D01*
X135771505Y-57571401D01*
X135771506Y-57571402D01*
X135771507Y-57571403D01*
X135773173Y-57573069D01*
X135773675Y-57573988D01*
X135774987Y-57575552D01*
X135774673Y-57575815D01*
X135806664Y-57634389D01*
X135809500Y-57660758D01*
X135809500Y-61474217D01*
X135789815Y-61541256D01*
X135773181Y-61561898D01*
X131401899Y-65933181D01*
X131340576Y-65966666D01*
X131314218Y-65969500D01*
X118112855Y-65969500D01*
X118045816Y-65949815D01*
X118021626Y-65929483D01*
X117959747Y-65862265D01*
X117959744Y-65862262D01*
X117959741Y-65862260D01*
X117876991Y-65797852D01*
X117836179Y-65741143D01*
X117832504Y-65671370D01*
X117867136Y-65610687D01*
X117876985Y-65602151D01*
X117959744Y-65537738D01*
X118128164Y-65354785D01*
X118264173Y-65146607D01*
X118364063Y-64918881D01*
X118425108Y-64677821D01*
X118445643Y-64430000D01*
X118425108Y-64182179D01*
X118364063Y-63941119D01*
X118264173Y-63713393D01*
X118213049Y-63635141D01*
X118128166Y-63505217D01*
X118058026Y-63429025D01*
X117959744Y-63322262D01*
X117876991Y-63257852D01*
X117836179Y-63201143D01*
X117832504Y-63131370D01*
X117867136Y-63070687D01*
X117876985Y-63062151D01*
X117959744Y-62997738D01*
X118128164Y-62814785D01*
X118264173Y-62606607D01*
X118364063Y-62378881D01*
X118425108Y-62137821D01*
X118426799Y-62117416D01*
X118445643Y-61890005D01*
X118445643Y-61889994D01*
X118425109Y-61642187D01*
X118425107Y-61642175D01*
X118364063Y-61401118D01*
X118264173Y-61173393D01*
X118128166Y-60965217D01*
X118106557Y-60941744D01*
X117959744Y-60782262D01*
X117856253Y-60701712D01*
X117815442Y-60645003D01*
X117808655Y-60596176D01*
X117810056Y-60573609D01*
X117081365Y-59844918D01*
X117085161Y-59844373D01*
X117218562Y-59783451D01*
X117329395Y-59687413D01*
X117408682Y-59564040D01*
X117431132Y-59487580D01*
X118163434Y-60219882D01*
X118263731Y-60066369D01*
X118363587Y-59838717D01*
X118424612Y-59597738D01*
X118424614Y-59597729D01*
X118445141Y-59350005D01*
X118445141Y-59349994D01*
X118424614Y-59102270D01*
X118424612Y-59102261D01*
X118363587Y-58861282D01*
X118263731Y-58633630D01*
X118163434Y-58480116D01*
X117431132Y-59212418D01*
X117408682Y-59135960D01*
X117329395Y-59012587D01*
X117218562Y-58916549D01*
X117085161Y-58855627D01*
X117081366Y-58855081D01*
X117810056Y-58126390D01*
X117808655Y-58103825D01*
X117824147Y-58035694D01*
X117856250Y-57998290D01*
X117959744Y-57917738D01*
X118128164Y-57734785D01*
X118264173Y-57526607D01*
X118364063Y-57298881D01*
X118425108Y-57057821D01*
X118427347Y-57030798D01*
X118445643Y-56810005D01*
X118445643Y-56809994D01*
X118425109Y-56562187D01*
X118425107Y-56562175D01*
X118364063Y-56321118D01*
X118264173Y-56093393D01*
X118128166Y-55885217D01*
X118083854Y-55837082D01*
X117959744Y-55702262D01*
X117763509Y-55549526D01*
X117763507Y-55549525D01*
X117763506Y-55549524D01*
X117544811Y-55431172D01*
X117544802Y-55431169D01*
X117309616Y-55350429D01*
X117064335Y-55309500D01*
X116815665Y-55309500D01*
X116570383Y-55350429D01*
X116335197Y-55431169D01*
X116335188Y-55431172D01*
X116116493Y-55549524D01*
X115920257Y-55702261D01*
X115751833Y-55885217D01*
X115615826Y-56093393D01*
X115515936Y-56321118D01*
X115454892Y-56562175D01*
X115454890Y-56562187D01*
X115434357Y-56809994D01*
X115434357Y-56810005D01*
X115454890Y-57057812D01*
X115454892Y-57057824D01*
X115515936Y-57298881D01*
X115615826Y-57526606D01*
X115751833Y-57734782D01*
X115751836Y-57734785D01*
X115920256Y-57917738D01*
X115920259Y-57917740D01*
X115920262Y-57917743D01*
X116023743Y-57998286D01*
X116064556Y-58054996D01*
X116071343Y-58103823D01*
X116069941Y-58126389D01*
X116798634Y-58855081D01*
X116794839Y-58855627D01*
X116661438Y-58916549D01*
X116550605Y-59012587D01*
X116471318Y-59135960D01*
X116448866Y-59212419D01*
X115716564Y-58480116D01*
X115616267Y-58633632D01*
X115516412Y-58861282D01*
X115455387Y-59102261D01*
X115455385Y-59102270D01*
X115434858Y-59349994D01*
X115434858Y-59350005D01*
X115455385Y-59597729D01*
X115455387Y-59597738D01*
X115516412Y-59838717D01*
X115616266Y-60066364D01*
X115716564Y-60219882D01*
X116448866Y-59487579D01*
X116471318Y-59564040D01*
X116550605Y-59687413D01*
X116661438Y-59783451D01*
X116794839Y-59844373D01*
X116798634Y-59844918D01*
X116069942Y-60573609D01*
X116071343Y-60596177D01*
X116055850Y-60664307D01*
X116023744Y-60701713D01*
X115920258Y-60782260D01*
X115751833Y-60965217D01*
X115615826Y-61173393D01*
X115515936Y-61401118D01*
X115454892Y-61642175D01*
X115454890Y-61642187D01*
X115434357Y-61889994D01*
X115434357Y-61890005D01*
X115454890Y-62137812D01*
X115454892Y-62137824D01*
X115515936Y-62378881D01*
X115615826Y-62606606D01*
X115751833Y-62814782D01*
X115751836Y-62814785D01*
X115920256Y-62997738D01*
X116003008Y-63062146D01*
X116043820Y-63118856D01*
X116047495Y-63188629D01*
X116012864Y-63249312D01*
X116003009Y-63257852D01*
X115920255Y-63322262D01*
X115751833Y-63505217D01*
X115615826Y-63713393D01*
X115515936Y-63941118D01*
X115454892Y-64182175D01*
X115454890Y-64182187D01*
X115434357Y-64429994D01*
X115434357Y-64430005D01*
X115454890Y-64677812D01*
X115454892Y-64677824D01*
X115515936Y-64918881D01*
X115615826Y-65146606D01*
X115751833Y-65354782D01*
X115751836Y-65354785D01*
X115920256Y-65537738D01*
X116003010Y-65602148D01*
X116043821Y-65658855D01*
X116047496Y-65728628D01*
X116012865Y-65789311D01*
X116003009Y-65797852D01*
X115920258Y-65862260D01*
X115751833Y-66045217D01*
X115615826Y-66253393D01*
X115515936Y-66481118D01*
X115454892Y-66722175D01*
X115454890Y-66722187D01*
X115434357Y-66969994D01*
X115434357Y-66970005D01*
X115454890Y-67217812D01*
X115454892Y-67217824D01*
X115515936Y-67458881D01*
X115615826Y-67686606D01*
X115751833Y-67894782D01*
X115751836Y-67894785D01*
X115920256Y-68077738D01*
X116003008Y-68142147D01*
X116043821Y-68198857D01*
X116047496Y-68268630D01*
X116012864Y-68329313D01*
X116003014Y-68337848D01*
X115968801Y-68364478D01*
X115920257Y-68402261D01*
X115751833Y-68585217D01*
X115615826Y-68793393D01*
X115515936Y-69021118D01*
X115454892Y-69262175D01*
X115454890Y-69262187D01*
X115434357Y-69509994D01*
X115434357Y-69510005D01*
X115454890Y-69757812D01*
X115454892Y-69757824D01*
X115515936Y-69998881D01*
X115615826Y-70226606D01*
X115751833Y-70434782D01*
X115751836Y-70434785D01*
X115920256Y-70617738D01*
X116003008Y-70682147D01*
X116043821Y-70738857D01*
X116047496Y-70808630D01*
X116012864Y-70869313D01*
X116003014Y-70877848D01*
X115944400Y-70923469D01*
X115920257Y-70942261D01*
X115751833Y-71125217D01*
X115615826Y-71333393D01*
X115515936Y-71561118D01*
X115454892Y-71802175D01*
X115454890Y-71802187D01*
X115434357Y-72049994D01*
X115434357Y-72050005D01*
X115454890Y-72297812D01*
X115454892Y-72297824D01*
X115515936Y-72538881D01*
X115615826Y-72766606D01*
X115751833Y-72974782D01*
X115770251Y-72994789D01*
X115920256Y-73157738D01*
X116003008Y-73222147D01*
X116043821Y-73278857D01*
X116047496Y-73348630D01*
X116012864Y-73409313D01*
X116003014Y-73417848D01*
X115962374Y-73449480D01*
X115920257Y-73482261D01*
X115751833Y-73665217D01*
X115615826Y-73873393D01*
X115515936Y-74101118D01*
X115454892Y-74342175D01*
X115454890Y-74342187D01*
X115434357Y-74589994D01*
X115434357Y-74590005D01*
X115454890Y-74837812D01*
X115454892Y-74837824D01*
X115515936Y-75078881D01*
X115615826Y-75306606D01*
X115751833Y-75514782D01*
X115768166Y-75532524D01*
X115920256Y-75697738D01*
X116003010Y-75762148D01*
X116043821Y-75818855D01*
X116047496Y-75888628D01*
X116012865Y-75949311D01*
X116003009Y-75957852D01*
X115920258Y-76022260D01*
X115751833Y-76205217D01*
X115615826Y-76413393D01*
X115515936Y-76641118D01*
X115454892Y-76882175D01*
X115454890Y-76882187D01*
X115434357Y-77129994D01*
X115434357Y-77130005D01*
X115454890Y-77377812D01*
X115454892Y-77377824D01*
X115515936Y-77618881D01*
X115615826Y-77846606D01*
X115751833Y-78054782D01*
X115751836Y-78054785D01*
X115920256Y-78237738D01*
X116003008Y-78302147D01*
X116043821Y-78358857D01*
X116047496Y-78428630D01*
X116012864Y-78489313D01*
X116003014Y-78497848D01*
X115944400Y-78543469D01*
X115920257Y-78562261D01*
X115751833Y-78745217D01*
X115615826Y-78953393D01*
X115515936Y-79181118D01*
X115454892Y-79422175D01*
X115454890Y-79422187D01*
X115434357Y-79669994D01*
X115434357Y-79670005D01*
X115454890Y-79917812D01*
X115454892Y-79917824D01*
X115515936Y-80158881D01*
X115615826Y-80386606D01*
X115751833Y-80594782D01*
X115751836Y-80594785D01*
X115920256Y-80777738D01*
X116003008Y-80842147D01*
X116043821Y-80898857D01*
X116047496Y-80968630D01*
X116012864Y-81029313D01*
X116003014Y-81037848D01*
X115972621Y-81061505D01*
X115920257Y-81102261D01*
X115751833Y-81285217D01*
X115615826Y-81493393D01*
X115515936Y-81721118D01*
X115454892Y-81962175D01*
X115454890Y-81962187D01*
X115434357Y-82209994D01*
X115434357Y-82210005D01*
X115454890Y-82457812D01*
X115454892Y-82457824D01*
X115515936Y-82698881D01*
X115615826Y-82926606D01*
X115751833Y-83134782D01*
X115768166Y-83152524D01*
X115920256Y-83317738D01*
X116003008Y-83382147D01*
X116043821Y-83438857D01*
X116047496Y-83508630D01*
X116012864Y-83569313D01*
X116003014Y-83577848D01*
X115972126Y-83601890D01*
X115920257Y-83642261D01*
X115751833Y-83825217D01*
X115615826Y-84033393D01*
X115515936Y-84261118D01*
X115454892Y-84502175D01*
X115454890Y-84502187D01*
X115434357Y-84749994D01*
X115434357Y-84750005D01*
X115454890Y-84997812D01*
X115454892Y-84997824D01*
X115515936Y-85238881D01*
X115615826Y-85466606D01*
X115751833Y-85674782D01*
X115751836Y-85674785D01*
X115920256Y-85857738D01*
X116003010Y-85922148D01*
X116043821Y-85978855D01*
X116047496Y-86048628D01*
X116012865Y-86109311D01*
X116003009Y-86117852D01*
X115920258Y-86182260D01*
X115751833Y-86365217D01*
X115615826Y-86573393D01*
X115515936Y-86801118D01*
X115454892Y-87042175D01*
X115454890Y-87042187D01*
X115434357Y-87289994D01*
X115434357Y-87290005D01*
X115454890Y-87537812D01*
X115454892Y-87537824D01*
X115515936Y-87778881D01*
X115615826Y-88006606D01*
X115751833Y-88214782D01*
X115751836Y-88214785D01*
X115920256Y-88397738D01*
X116003008Y-88462147D01*
X116043821Y-88518857D01*
X116047496Y-88588630D01*
X116012864Y-88649313D01*
X116003014Y-88657848D01*
X115944400Y-88703469D01*
X115920257Y-88722261D01*
X115751833Y-88905217D01*
X115615826Y-89113393D01*
X115515936Y-89341118D01*
X115454892Y-89582175D01*
X115454890Y-89582187D01*
X115434357Y-89829994D01*
X115434357Y-89830005D01*
X115454890Y-90077812D01*
X115454892Y-90077824D01*
X115515936Y-90318881D01*
X115615826Y-90546606D01*
X115751833Y-90754782D01*
X115751836Y-90754785D01*
X115920256Y-90937738D01*
X116003008Y-91002147D01*
X116043821Y-91058857D01*
X116047496Y-91128630D01*
X116012864Y-91189313D01*
X116003014Y-91197848D01*
X115944400Y-91243469D01*
X115920257Y-91262261D01*
X115751833Y-91445217D01*
X115615826Y-91653393D01*
X115515936Y-91881118D01*
X115454892Y-92122175D01*
X115454890Y-92122187D01*
X115434357Y-92369994D01*
X115434357Y-92370005D01*
X115454890Y-92617812D01*
X115454892Y-92617824D01*
X115515936Y-92858881D01*
X115615826Y-93086606D01*
X115751833Y-93294782D01*
X115751836Y-93294785D01*
X115920256Y-93477738D01*
X116116491Y-93630474D01*
X116335190Y-93748828D01*
X116402710Y-93772007D01*
X116508188Y-93808219D01*
X116565203Y-93848605D01*
X116591334Y-93913404D01*
X116578282Y-93982044D01*
X116530194Y-94032732D01*
X116467925Y-94049500D01*
X116404484Y-94049500D01*
X116208379Y-94064196D01*
X116208374Y-94064197D01*
X115952597Y-94122576D01*
X115952578Y-94122582D01*
X115708356Y-94218432D01*
X115481143Y-94349614D01*
X115276014Y-94513198D01*
X115097567Y-94705520D01*
X114949768Y-94922302D01*
X114949767Y-94922303D01*
X114835938Y-95158673D01*
X114758606Y-95409376D01*
X114758605Y-95409381D01*
X114758604Y-95409385D01*
X114748523Y-95476265D01*
X114719500Y-95668812D01*
X114719500Y-95931187D01*
X114739794Y-96065823D01*
X114758604Y-96190615D01*
X114758605Y-96190617D01*
X114758606Y-96190623D01*
X114835938Y-96441326D01*
X114949767Y-96677696D01*
X114949768Y-96677697D01*
X114949770Y-96677700D01*
X114949772Y-96677704D01*
X115097567Y-96894478D01*
X115097567Y-96894479D01*
X115276014Y-97086801D01*
X115276018Y-97086804D01*
X115276019Y-97086805D01*
X115481143Y-97250386D01*
X115708357Y-97381568D01*
X115952584Y-97477420D01*
X116208370Y-97535802D01*
X116208376Y-97535802D01*
X116208379Y-97535803D01*
X116404484Y-97550499D01*
X116404503Y-97550499D01*
X116404506Y-97550500D01*
X116404508Y-97550500D01*
X116535492Y-97550500D01*
X116535494Y-97550500D01*
X116535496Y-97550499D01*
X116535515Y-97550499D01*
X116731620Y-97535803D01*
X116731622Y-97535802D01*
X116731630Y-97535802D01*
X116987416Y-97477420D01*
X117231643Y-97381568D01*
X117458857Y-97250386D01*
X117663981Y-97086805D01*
X117842433Y-96894479D01*
X117990228Y-96677704D01*
X118104063Y-96441323D01*
X118181396Y-96190615D01*
X118220500Y-95931182D01*
X118220500Y-95668818D01*
X118181396Y-95409385D01*
X118104063Y-95158677D01*
X118074777Y-95097864D01*
X117990232Y-94922303D01*
X117990231Y-94922302D01*
X117990230Y-94922301D01*
X117990228Y-94922296D01*
X117842433Y-94705521D01*
X117790917Y-94650000D01*
X117663985Y-94513198D01*
X117618091Y-94476599D01*
X117458857Y-94349614D01*
X117231643Y-94218432D01*
X116987416Y-94122580D01*
X116987411Y-94122578D01*
X116987402Y-94122576D01*
X116955921Y-94115391D01*
X116894942Y-94081283D01*
X116862084Y-94019621D01*
X116867779Y-93949984D01*
X116910219Y-93894480D01*
X116975929Y-93870732D01*
X116983513Y-93870500D01*
X117064335Y-93870500D01*
X117309614Y-93829571D01*
X117544810Y-93748828D01*
X117763509Y-93630474D01*
X117959744Y-93477738D01*
X118128164Y-93294785D01*
X118264173Y-93086607D01*
X118364063Y-92858881D01*
X118425108Y-92617821D01*
X118445643Y-92370000D01*
X118425108Y-92122179D01*
X118364063Y-91881119D01*
X118264173Y-91653393D01*
X118128166Y-91445217D01*
X118058463Y-91369500D01*
X117959744Y-91262262D01*
X117876991Y-91197852D01*
X117836179Y-91141143D01*
X117832504Y-91071370D01*
X117867136Y-91010687D01*
X117876985Y-91002151D01*
X117959744Y-90937738D01*
X118128164Y-90754785D01*
X118264173Y-90546607D01*
X118364063Y-90318881D01*
X118425108Y-90077821D01*
X118445643Y-89830000D01*
X118425108Y-89582179D01*
X118405579Y-89505060D01*
X118364063Y-89341118D01*
X118264173Y-89113393D01*
X118128166Y-88905217D01*
X118107860Y-88883159D01*
X117959744Y-88722262D01*
X117932525Y-88701077D01*
X117876991Y-88657852D01*
X117836178Y-88601141D01*
X117832505Y-88531368D01*
X117867136Y-88470685D01*
X117876974Y-88462160D01*
X117959744Y-88397738D01*
X118128164Y-88214785D01*
X118264173Y-88006607D01*
X118364063Y-87778881D01*
X118425108Y-87537821D01*
X118445643Y-87290000D01*
X118425797Y-87050500D01*
X118425109Y-87042187D01*
X118425107Y-87042175D01*
X118364063Y-86801118D01*
X118264173Y-86573393D01*
X118128166Y-86365217D01*
X118100370Y-86335023D01*
X117959744Y-86182262D01*
X117932525Y-86161077D01*
X117876991Y-86117852D01*
X117836178Y-86061141D01*
X117832505Y-85991368D01*
X117867136Y-85930685D01*
X117876974Y-85922160D01*
X117959744Y-85857738D01*
X118000376Y-85813600D01*
X118021626Y-85790517D01*
X118081513Y-85754526D01*
X118112855Y-85750500D01*
X123436507Y-85750500D01*
X123438069Y-85750519D01*
X123475283Y-85751462D01*
X123526358Y-85752757D01*
X123526358Y-85752756D01*
X123526363Y-85752757D01*
X123586753Y-85741932D01*
X123591412Y-85741280D01*
X123633607Y-85736988D01*
X123652438Y-85735074D01*
X123685227Y-85724786D01*
X123692840Y-85722918D01*
X123726653Y-85716858D01*
X123783621Y-85694101D01*
X123788053Y-85692524D01*
X123846588Y-85674159D01*
X123876627Y-85657484D01*
X123883708Y-85654122D01*
X123915617Y-85641377D01*
X123966854Y-85607608D01*
X123970851Y-85605187D01*
X124024502Y-85575409D01*
X124050568Y-85553030D01*
X124056843Y-85548300D01*
X124085519Y-85529402D01*
X124128892Y-85486027D01*
X124132350Y-85482823D01*
X124135613Y-85480020D01*
X124178895Y-85442866D01*
X124199928Y-85415691D01*
X124205098Y-85409821D01*
X130978100Y-78636819D01*
X131039424Y-78603334D01*
X131065782Y-78600500D01*
X141180663Y-78600500D01*
X141247702Y-78620185D01*
X141268344Y-78636819D01*
X141343123Y-78711598D01*
X141522361Y-78837102D01*
X141720670Y-78929575D01*
X141932023Y-78986207D01*
X142114926Y-79002208D01*
X142149998Y-79005277D01*
X142150000Y-79005277D01*
X142150002Y-79005277D01*
X142178254Y-79002805D01*
X142367977Y-78986207D01*
X142579330Y-78929575D01*
X142777639Y-78837102D01*
X142956877Y-78711598D01*
X143111598Y-78556877D01*
X143203927Y-78425016D01*
X143258502Y-78381395D01*
X143328001Y-78374202D01*
X143390355Y-78405724D01*
X143425769Y-78465954D01*
X143429500Y-78496143D01*
X143429500Y-84739241D01*
X143409815Y-84806280D01*
X143393189Y-84826914D01*
X143391510Y-84828592D01*
X143391500Y-84828604D01*
X143261575Y-85014158D01*
X143206998Y-85057783D01*
X143137500Y-85064977D01*
X143075145Y-85033454D01*
X143058425Y-85014158D01*
X142928494Y-84828597D01*
X142761402Y-84661506D01*
X142761395Y-84661501D01*
X142567834Y-84525967D01*
X142567830Y-84525965D01*
X142516812Y-84502175D01*
X142353663Y-84426097D01*
X142353659Y-84426096D01*
X142353655Y-84426094D01*
X142125413Y-84364938D01*
X142125403Y-84364936D01*
X141890001Y-84344341D01*
X141889999Y-84344341D01*
X141654596Y-84364936D01*
X141654586Y-84364938D01*
X141426344Y-84426094D01*
X141426335Y-84426098D01*
X141212171Y-84525964D01*
X141212169Y-84525965D01*
X141018597Y-84661505D01*
X140851505Y-84828597D01*
X140721575Y-85014158D01*
X140666998Y-85057783D01*
X140597500Y-85064977D01*
X140535145Y-85033454D01*
X140518425Y-85014158D01*
X140388494Y-84828597D01*
X140221402Y-84661506D01*
X140221395Y-84661501D01*
X140027834Y-84525967D01*
X140027830Y-84525965D01*
X139976812Y-84502175D01*
X139813663Y-84426097D01*
X139813659Y-84426096D01*
X139813655Y-84426094D01*
X139585413Y-84364938D01*
X139585403Y-84364936D01*
X139350001Y-84344341D01*
X139349999Y-84344341D01*
X139114596Y-84364936D01*
X139114586Y-84364938D01*
X138886344Y-84426094D01*
X138886335Y-84426098D01*
X138672171Y-84525964D01*
X138672169Y-84525965D01*
X138478597Y-84661505D01*
X138311505Y-84828597D01*
X138181575Y-85014158D01*
X138126998Y-85057783D01*
X138057500Y-85064977D01*
X137995145Y-85033454D01*
X137978425Y-85014158D01*
X137848494Y-84828597D01*
X137681402Y-84661506D01*
X137681395Y-84661501D01*
X137487834Y-84525967D01*
X137487830Y-84525965D01*
X137436812Y-84502175D01*
X137273663Y-84426097D01*
X137273659Y-84426096D01*
X137273655Y-84426094D01*
X137045413Y-84364938D01*
X137045403Y-84364936D01*
X136810001Y-84344341D01*
X136809999Y-84344341D01*
X136574596Y-84364936D01*
X136574586Y-84364938D01*
X136346344Y-84426094D01*
X136346335Y-84426098D01*
X136132171Y-84525964D01*
X136132169Y-84525965D01*
X135938597Y-84661505D01*
X135771505Y-84828597D01*
X135641575Y-85014158D01*
X135586998Y-85057783D01*
X135517500Y-85064977D01*
X135455145Y-85033454D01*
X135438425Y-85014158D01*
X135308494Y-84828597D01*
X135141402Y-84661506D01*
X135141395Y-84661501D01*
X134947834Y-84525967D01*
X134947830Y-84525965D01*
X134896812Y-84502175D01*
X134733663Y-84426097D01*
X134733659Y-84426096D01*
X134733655Y-84426094D01*
X134505413Y-84364938D01*
X134505403Y-84364936D01*
X134270001Y-84344341D01*
X134269999Y-84344341D01*
X134034596Y-84364936D01*
X134034586Y-84364938D01*
X133806344Y-84426094D01*
X133806335Y-84426098D01*
X133592171Y-84525964D01*
X133592169Y-84525965D01*
X133398597Y-84661505D01*
X133231508Y-84828594D01*
X133101574Y-85014159D01*
X133046997Y-85057784D01*
X132977498Y-85064976D01*
X132915144Y-85033454D01*
X132898424Y-85014158D01*
X132768494Y-84828597D01*
X132601402Y-84661506D01*
X132601395Y-84661501D01*
X132407834Y-84525967D01*
X132407830Y-84525965D01*
X132356812Y-84502175D01*
X132193663Y-84426097D01*
X132193659Y-84426096D01*
X132193655Y-84426094D01*
X131965413Y-84364938D01*
X131965403Y-84364936D01*
X131730001Y-84344341D01*
X131729999Y-84344341D01*
X131494596Y-84364936D01*
X131494586Y-84364938D01*
X131266344Y-84426094D01*
X131266335Y-84426098D01*
X131052171Y-84525964D01*
X131052169Y-84525965D01*
X130858597Y-84661505D01*
X130691505Y-84828597D01*
X130555965Y-85022169D01*
X130555964Y-85022171D01*
X130456098Y-85236335D01*
X130456094Y-85236344D01*
X130394938Y-85464586D01*
X130394936Y-85464596D01*
X130374341Y-85699999D01*
X130374341Y-85700000D01*
X130394936Y-85935403D01*
X130394938Y-85935413D01*
X130456094Y-86163655D01*
X130456096Y-86163659D01*
X130456097Y-86163663D01*
X130464770Y-86182262D01*
X130555965Y-86377830D01*
X130555967Y-86377834D01*
X130664281Y-86532521D01*
X130691501Y-86571396D01*
X130691506Y-86571402D01*
X130693180Y-86573076D01*
X130693681Y-86573993D01*
X130694982Y-86575544D01*
X130694670Y-86575805D01*
X130726665Y-86634399D01*
X130729499Y-86660757D01*
X130729499Y-92849588D01*
X130709814Y-92916627D01*
X130657010Y-92962382D01*
X130648841Y-92965767D01*
X130647666Y-92966205D01*
X130647665Y-92966205D01*
X130532455Y-93052452D01*
X130532452Y-93052455D01*
X130446206Y-93167664D01*
X130446202Y-93167671D01*
X130395908Y-93302517D01*
X130391364Y-93344790D01*
X130389501Y-93362123D01*
X130389500Y-93362135D01*
X130389500Y-95157870D01*
X130389501Y-95157876D01*
X130395908Y-95217483D01*
X130446202Y-95352328D01*
X130446206Y-95352335D01*
X130532452Y-95467544D01*
X130532455Y-95467547D01*
X130647664Y-95553793D01*
X130647671Y-95553797D01*
X130782517Y-95604091D01*
X130782516Y-95604091D01*
X130789444Y-95604835D01*
X130842127Y-95610500D01*
X132637872Y-95610499D01*
X132697483Y-95604091D01*
X132832331Y-95553796D01*
X132947546Y-95467546D01*
X133033796Y-95352331D01*
X133084091Y-95217483D01*
X133090500Y-95157873D01*
X133090499Y-93362128D01*
X133084091Y-93302517D01*
X133081207Y-93294785D01*
X133033797Y-93167671D01*
X133033793Y-93167664D01*
X132947547Y-93052455D01*
X132947544Y-93052452D01*
X132832334Y-92966205D01*
X132811164Y-92958309D01*
X132755231Y-92916436D01*
X132730816Y-92850971D01*
X132730500Y-92842128D01*
X132730500Y-86660758D01*
X132750185Y-86593719D01*
X132766819Y-86573077D01*
X132766820Y-86573076D01*
X132768495Y-86571401D01*
X132898426Y-86385841D01*
X132953002Y-86342217D01*
X133022500Y-86335023D01*
X133084855Y-86366546D01*
X133101575Y-86385842D01*
X133231500Y-86571395D01*
X133231505Y-86571401D01*
X133398599Y-86738495D01*
X133488034Y-86801118D01*
X133592165Y-86874032D01*
X133592167Y-86874033D01*
X133592170Y-86874035D01*
X133806337Y-86973903D01*
X134034592Y-87035063D01*
X134211034Y-87050500D01*
X134269999Y-87055659D01*
X134270000Y-87055659D01*
X134270001Y-87055659D01*
X134328966Y-87050500D01*
X134505408Y-87035063D01*
X134733663Y-86973903D01*
X134947830Y-86874035D01*
X135141401Y-86738495D01*
X135308495Y-86571401D01*
X135438426Y-86385841D01*
X135493002Y-86342217D01*
X135562500Y-86335023D01*
X135624855Y-86366546D01*
X135641575Y-86385842D01*
X135771500Y-86571395D01*
X135771505Y-86571401D01*
X135938599Y-86738495D01*
X136028034Y-86801118D01*
X136132165Y-86874032D01*
X136132167Y-86874033D01*
X136132170Y-86874035D01*
X136346337Y-86973903D01*
X136574592Y-87035063D01*
X136751034Y-87050500D01*
X136809999Y-87055659D01*
X136810000Y-87055659D01*
X136810001Y-87055659D01*
X136868966Y-87050500D01*
X137045408Y-87035063D01*
X137273663Y-86973903D01*
X137487830Y-86874035D01*
X137681401Y-86738495D01*
X137848495Y-86571401D01*
X137978426Y-86385841D01*
X138033002Y-86342217D01*
X138102500Y-86335023D01*
X138164855Y-86366546D01*
X138181575Y-86385842D01*
X138311500Y-86571395D01*
X138311505Y-86571401D01*
X138478599Y-86738495D01*
X138568034Y-86801118D01*
X138672165Y-86874032D01*
X138672167Y-86874033D01*
X138672170Y-86874035D01*
X138886337Y-86973903D01*
X139114592Y-87035063D01*
X139291034Y-87050500D01*
X139349999Y-87055659D01*
X139350000Y-87055659D01*
X139350001Y-87055659D01*
X139408966Y-87050500D01*
X139585408Y-87035063D01*
X139813663Y-86973903D01*
X140027830Y-86874035D01*
X140221401Y-86738495D01*
X140388495Y-86571401D01*
X140518426Y-86385841D01*
X140573002Y-86342217D01*
X140642500Y-86335023D01*
X140704855Y-86366546D01*
X140721571Y-86385837D01*
X140824424Y-86532725D01*
X140846751Y-86598930D01*
X140846849Y-86603848D01*
X140846849Y-92912819D01*
X140827164Y-92979858D01*
X140797161Y-93012085D01*
X140689801Y-93092455D01*
X140603555Y-93207664D01*
X140603551Y-93207671D01*
X140553257Y-93342517D01*
X140546850Y-93402116D01*
X140546850Y-93402123D01*
X140546849Y-93402135D01*
X140546849Y-95097870D01*
X140546850Y-95097876D01*
X140553257Y-95157483D01*
X140603551Y-95292328D01*
X140603555Y-95292335D01*
X140648469Y-95352331D01*
X140689803Y-95407546D01*
X140797160Y-95487914D01*
X140839031Y-95543847D01*
X140846849Y-95587180D01*
X140846849Y-99286869D01*
X140827164Y-99353908D01*
X140810530Y-99374550D01*
X139721899Y-100463181D01*
X139660576Y-100496666D01*
X139634218Y-100499500D01*
X82265783Y-100499500D01*
X82198744Y-100479815D01*
X82178102Y-100463181D01*
X78986819Y-97271898D01*
X78953334Y-97210575D01*
X78950500Y-97184217D01*
X78950500Y-82414782D01*
X78970185Y-82347743D01*
X79022989Y-82301988D01*
X79092147Y-82292044D01*
X79155703Y-82321069D01*
X79162169Y-82327090D01*
X79363180Y-82528100D01*
X79632987Y-82797907D01*
X79634052Y-82798998D01*
X79691501Y-82859434D01*
X79694940Y-82863052D01*
X79694947Y-82863058D01*
X79729053Y-82886795D01*
X79745303Y-82898106D01*
X79749044Y-82900926D01*
X79796593Y-82939698D01*
X79827045Y-82955604D01*
X79833758Y-82959672D01*
X79861951Y-82979295D01*
X79918329Y-83003489D01*
X79922578Y-83005507D01*
X79976951Y-83033909D01*
X80004489Y-83041788D01*
X80009974Y-83043358D01*
X80017368Y-83045990D01*
X80048942Y-83059540D01*
X80048945Y-83059540D01*
X80048946Y-83059541D01*
X80109022Y-83071887D01*
X80113600Y-83073010D01*
X80127501Y-83076987D01*
X80172582Y-83089887D01*
X80206839Y-83092495D01*
X80214614Y-83093586D01*
X80248255Y-83100500D01*
X80248259Y-83100500D01*
X80309598Y-83100500D01*
X80314304Y-83100678D01*
X80349062Y-83103325D01*
X80375475Y-83105337D01*
X80375475Y-83105336D01*
X80375476Y-83105337D01*
X80409559Y-83100996D01*
X80417389Y-83100500D01*
X82239242Y-83100500D01*
X82306281Y-83120185D01*
X82326923Y-83136819D01*
X82328597Y-83138493D01*
X82328603Y-83138498D01*
X82514594Y-83268730D01*
X82558219Y-83323307D01*
X82565413Y-83392805D01*
X82533890Y-83455160D01*
X82514595Y-83471880D01*
X82328922Y-83601890D01*
X82328920Y-83601891D01*
X82161891Y-83768920D01*
X82161886Y-83768926D01*
X82026400Y-83962420D01*
X82026399Y-83962422D01*
X81926570Y-84176507D01*
X81926567Y-84176513D01*
X81869364Y-84389999D01*
X81869364Y-84390000D01*
X82766314Y-84390000D01*
X82740507Y-84430156D01*
X82700000Y-84568111D01*
X82700000Y-84711889D01*
X82740507Y-84849844D01*
X82766314Y-84890000D01*
X81869364Y-84890000D01*
X81926567Y-85103486D01*
X81926570Y-85103492D01*
X82026399Y-85317578D01*
X82161894Y-85511082D01*
X82328917Y-85678105D01*
X82522421Y-85813600D01*
X82736507Y-85913429D01*
X82736516Y-85913433D01*
X82950000Y-85970634D01*
X82950000Y-85075501D01*
X83057685Y-85124680D01*
X83164237Y-85140000D01*
X83235763Y-85140000D01*
X83342315Y-85124680D01*
X83450000Y-85075501D01*
X83450000Y-85970634D01*
X83663483Y-85913433D01*
X83663492Y-85913429D01*
X83877578Y-85813600D01*
X84071082Y-85678105D01*
X84238105Y-85511082D01*
X84373600Y-85317578D01*
X84473429Y-85103492D01*
X84473432Y-85103486D01*
X84530636Y-84890000D01*
X83633686Y-84890000D01*
X83659493Y-84849844D01*
X83700000Y-84711889D01*
X83700000Y-84568111D01*
X83659493Y-84430156D01*
X83633686Y-84390000D01*
X84530636Y-84390000D01*
X84530635Y-84389999D01*
X84473432Y-84176513D01*
X84473429Y-84176507D01*
X84373600Y-83962422D01*
X84373599Y-83962420D01*
X84238113Y-83768926D01*
X84238108Y-83768920D01*
X84071078Y-83601890D01*
X83885405Y-83471879D01*
X83841780Y-83417302D01*
X83834588Y-83347804D01*
X83866110Y-83285449D01*
X83885406Y-83268730D01*
X83911417Y-83250517D01*
X84071401Y-83138495D01*
X84073077Y-83136819D01*
X84073995Y-83136317D01*
X84075544Y-83135018D01*
X84075805Y-83135329D01*
X84134400Y-83103334D01*
X84160758Y-83100500D01*
X90265883Y-83100500D01*
X90332922Y-83120185D01*
X90357111Y-83140515D01*
X90520256Y-83317738D01*
X90603008Y-83382147D01*
X90643821Y-83438857D01*
X90647496Y-83508630D01*
X90612864Y-83569313D01*
X90603014Y-83577848D01*
X90572126Y-83601890D01*
X90520257Y-83642261D01*
X90351833Y-83825217D01*
X90215826Y-84033393D01*
X90115936Y-84261118D01*
X90054892Y-84502175D01*
X90054890Y-84502187D01*
X90034357Y-84749994D01*
X90034357Y-84750005D01*
X90054890Y-84997812D01*
X90054892Y-84997824D01*
X90115936Y-85238881D01*
X90215826Y-85466606D01*
X90351833Y-85674782D01*
X90351836Y-85674785D01*
X90520256Y-85857738D01*
X90603010Y-85922148D01*
X90643821Y-85978855D01*
X90647496Y-86048628D01*
X90612865Y-86109311D01*
X90603009Y-86117852D01*
X90520258Y-86182260D01*
X90351833Y-86365217D01*
X90215826Y-86573393D01*
X90115936Y-86801118D01*
X90054892Y-87042175D01*
X90054890Y-87042187D01*
X90034357Y-87289994D01*
X90034357Y-87290005D01*
X90054890Y-87537812D01*
X90054892Y-87537824D01*
X90115936Y-87778881D01*
X90215826Y-88006606D01*
X90351833Y-88214782D01*
X90351836Y-88214785D01*
X90520256Y-88397738D01*
X90603008Y-88462147D01*
X90643821Y-88518857D01*
X90647496Y-88588630D01*
X90612864Y-88649313D01*
X90603014Y-88657848D01*
X90544400Y-88703469D01*
X90520257Y-88722261D01*
X90351833Y-88905217D01*
X90215826Y-89113393D01*
X90115936Y-89341118D01*
X90054892Y-89582175D01*
X90054890Y-89582187D01*
X90034357Y-89829994D01*
X90034357Y-89830005D01*
X90054890Y-90077812D01*
X90054892Y-90077824D01*
X90115936Y-90318881D01*
X90215826Y-90546606D01*
X90351833Y-90754782D01*
X90351836Y-90754785D01*
X90520256Y-90937738D01*
X90603010Y-91002148D01*
X90643821Y-91058855D01*
X90647496Y-91128628D01*
X90612865Y-91189311D01*
X90603009Y-91197852D01*
X90520258Y-91262260D01*
X90351833Y-91445217D01*
X90215826Y-91653393D01*
X90115936Y-91881118D01*
X90054892Y-92122175D01*
X90054890Y-92122187D01*
X90034357Y-92369994D01*
X90034357Y-92370005D01*
X90054890Y-92617812D01*
X90054892Y-92617824D01*
X90115936Y-92858881D01*
X90215826Y-93086606D01*
X90351833Y-93294782D01*
X90351836Y-93294785D01*
X90520256Y-93477738D01*
X90716491Y-93630474D01*
X90935190Y-93748828D01*
X91170386Y-93829571D01*
X91415665Y-93870500D01*
X91446487Y-93870500D01*
X91513526Y-93890185D01*
X91559281Y-93942989D01*
X91569225Y-94012147D01*
X91540200Y-94075703D01*
X91481422Y-94113477D01*
X91474079Y-94115391D01*
X91442597Y-94122576D01*
X91442578Y-94122582D01*
X91198356Y-94218432D01*
X90971143Y-94349614D01*
X90766014Y-94513198D01*
X90587567Y-94705520D01*
X90439768Y-94922302D01*
X90439767Y-94922303D01*
X90325938Y-95158673D01*
X90248606Y-95409376D01*
X90248605Y-95409381D01*
X90248604Y-95409385D01*
X90238523Y-95476265D01*
X90209500Y-95668812D01*
X90209500Y-95931187D01*
X90229794Y-96065823D01*
X90248604Y-96190615D01*
X90248605Y-96190617D01*
X90248606Y-96190623D01*
X90325938Y-96441326D01*
X90439767Y-96677696D01*
X90439768Y-96677697D01*
X90439770Y-96677700D01*
X90439772Y-96677704D01*
X90587566Y-96894479D01*
X90587567Y-96894479D01*
X90766014Y-97086801D01*
X90766018Y-97086804D01*
X90766019Y-97086805D01*
X90971143Y-97250386D01*
X91198357Y-97381568D01*
X91442584Y-97477420D01*
X91698370Y-97535802D01*
X91698376Y-97535802D01*
X91698379Y-97535803D01*
X91894484Y-97550499D01*
X91894503Y-97550499D01*
X91894506Y-97550500D01*
X91894508Y-97550500D01*
X92025492Y-97550500D01*
X92025494Y-97550500D01*
X92025496Y-97550499D01*
X92025515Y-97550499D01*
X92221620Y-97535803D01*
X92221622Y-97535802D01*
X92221630Y-97535802D01*
X92477416Y-97477420D01*
X92721643Y-97381568D01*
X92948857Y-97250386D01*
X93153981Y-97086805D01*
X93332433Y-96894479D01*
X93480228Y-96677704D01*
X93594063Y-96441323D01*
X93671396Y-96190615D01*
X93710500Y-95931182D01*
X93710500Y-95668818D01*
X93671396Y-95409385D01*
X93594063Y-95158677D01*
X93564777Y-95097864D01*
X93480232Y-94922303D01*
X93480231Y-94922302D01*
X93480230Y-94922301D01*
X93480228Y-94922296D01*
X93332433Y-94705521D01*
X93280917Y-94650000D01*
X93153985Y-94513198D01*
X93108091Y-94476599D01*
X92948857Y-94349614D01*
X92721643Y-94218432D01*
X92477416Y-94122580D01*
X92477411Y-94122578D01*
X92477402Y-94122576D01*
X92259818Y-94072914D01*
X92221630Y-94064198D01*
X92221629Y-94064197D01*
X92221625Y-94064197D01*
X92221620Y-94064196D01*
X92025515Y-94049500D01*
X92025494Y-94049500D01*
X92012075Y-94049500D01*
X91945036Y-94029815D01*
X91899281Y-93977011D01*
X91889337Y-93907853D01*
X91918362Y-93844297D01*
X91971812Y-93808219D01*
X92050976Y-93781040D01*
X92144810Y-93748828D01*
X92363509Y-93630474D01*
X92559744Y-93477738D01*
X92584194Y-93451177D01*
X92621626Y-93410517D01*
X92681513Y-93374526D01*
X92712855Y-93370500D01*
X97116507Y-93370500D01*
X97118069Y-93370519D01*
X97155283Y-93371462D01*
X97206358Y-93372757D01*
X97206358Y-93372756D01*
X97206363Y-93372757D01*
X97266753Y-93361932D01*
X97271412Y-93361280D01*
X97313607Y-93356988D01*
X97332438Y-93355074D01*
X97365227Y-93344786D01*
X97372840Y-93342918D01*
X97406653Y-93336858D01*
X97463621Y-93314101D01*
X97468053Y-93312524D01*
X97526588Y-93294159D01*
X97556627Y-93277484D01*
X97563708Y-93274122D01*
X97595617Y-93261377D01*
X97646854Y-93227608D01*
X97650851Y-93225187D01*
X97704502Y-93195409D01*
X97730568Y-93173030D01*
X97736843Y-93168300D01*
X97765519Y-93149402D01*
X97808917Y-93106002D01*
X97812336Y-93102834D01*
X97858895Y-93062866D01*
X97879931Y-93035688D01*
X97885101Y-93029818D01*
X101348001Y-89566918D01*
X101349014Y-89565931D01*
X101413053Y-89505059D01*
X101448112Y-89454686D01*
X101450925Y-89450957D01*
X101489698Y-89403407D01*
X101505607Y-89372948D01*
X101509667Y-89366248D01*
X101529295Y-89338049D01*
X101553492Y-89281660D01*
X101555498Y-89277435D01*
X101583909Y-89223049D01*
X101593360Y-89190015D01*
X101595991Y-89182628D01*
X101609540Y-89151058D01*
X101621893Y-89090940D01*
X101623006Y-89086412D01*
X101639887Y-89027418D01*
X101642495Y-88993155D01*
X101643585Y-88985385D01*
X101650500Y-88951741D01*
X101650499Y-88890403D01*
X101650678Y-88885693D01*
X101655337Y-88824523D01*
X101650997Y-88790441D01*
X101650500Y-88782602D01*
X101650500Y-82615781D01*
X101670185Y-82548742D01*
X101686814Y-82528105D01*
X107247981Y-76966937D01*
X107248994Y-76965950D01*
X107313053Y-76905059D01*
X107337160Y-76870422D01*
X107348099Y-76854706D01*
X107350938Y-76850941D01*
X107375678Y-76820600D01*
X107389698Y-76803407D01*
X107405601Y-76772960D01*
X107409674Y-76766239D01*
X107414489Y-76759320D01*
X107429295Y-76738049D01*
X107453492Y-76681660D01*
X107455498Y-76677435D01*
X107483909Y-76623049D01*
X107493360Y-76590015D01*
X107495991Y-76582628D01*
X107499756Y-76573855D01*
X107509540Y-76551058D01*
X107521893Y-76490940D01*
X107523006Y-76486412D01*
X107539887Y-76427418D01*
X107542495Y-76393155D01*
X107543587Y-76385376D01*
X107546121Y-76373049D01*
X107550500Y-76351741D01*
X107550500Y-76290401D01*
X107550679Y-76285692D01*
X107555337Y-76224526D01*
X107550997Y-76190442D01*
X107550500Y-76182603D01*
X107550500Y-58565783D01*
X107570185Y-58498744D01*
X107586819Y-58478102D01*
X111078102Y-54986819D01*
X111139425Y-54953334D01*
X111165783Y-54950500D01*
X123486507Y-54950500D01*
X123488069Y-54950519D01*
X123525283Y-54951462D01*
X123576358Y-54952757D01*
X123576358Y-54952756D01*
X123576363Y-54952757D01*
X123636753Y-54941932D01*
X123641412Y-54941280D01*
X123683607Y-54936988D01*
X123702438Y-54935074D01*
X123735227Y-54924786D01*
X123742840Y-54922918D01*
X123776653Y-54916858D01*
X123833621Y-54894101D01*
X123838053Y-54892524D01*
X123896588Y-54874159D01*
X123926627Y-54857484D01*
X123933708Y-54854122D01*
X123965617Y-54841377D01*
X124016854Y-54807608D01*
X124020851Y-54805187D01*
X124074502Y-54775409D01*
X124100568Y-54753030D01*
X124106843Y-54748300D01*
X124135519Y-54729402D01*
X124178917Y-54686002D01*
X124182336Y-54682834D01*
X124228895Y-54642866D01*
X124249931Y-54615688D01*
X124255101Y-54609818D01*
X125378101Y-53486819D01*
X125439425Y-53453334D01*
X125465783Y-53450500D01*
X136359583Y-53450500D01*
X136426622Y-53470185D01*
X136430706Y-53472925D01*
X136522356Y-53537099D01*
X136522358Y-53537100D01*
X136522361Y-53537102D01*
X136720670Y-53629575D01*
X136932023Y-53686207D01*
X137114926Y-53702208D01*
X137149998Y-53705277D01*
X137150000Y-53705277D01*
X137150002Y-53705277D01*
X137178254Y-53702805D01*
X137367977Y-53686207D01*
X137579330Y-53629575D01*
X137777639Y-53537102D01*
X137956877Y-53411598D01*
X138111598Y-53256877D01*
X138123926Y-53239269D01*
X138178501Y-53195646D01*
X138247999Y-53188452D01*
X138310354Y-53219974D01*
G37*
%TD.AperFunction*%
%TA.AperFunction,Conductor*%
G36*
X89990062Y-57830185D02*
G01*
X90035817Y-57882989D01*
X90043266Y-57910134D01*
X90044124Y-57909932D01*
X90045907Y-57917479D01*
X90096202Y-58052328D01*
X90096206Y-58052335D01*
X90182452Y-58167544D01*
X90182455Y-58167547D01*
X90297663Y-58253793D01*
X90302799Y-58256597D01*
X90352205Y-58306002D01*
X90367057Y-58374275D01*
X90347182Y-58433251D01*
X90216267Y-58633632D01*
X90116412Y-58861282D01*
X90055387Y-59102261D01*
X90055385Y-59102270D01*
X90034858Y-59349994D01*
X90034858Y-59350005D01*
X90055385Y-59597729D01*
X90055387Y-59597738D01*
X90116412Y-59838717D01*
X90216266Y-60066364D01*
X90316564Y-60219882D01*
X91048866Y-59487579D01*
X91071318Y-59564040D01*
X91150605Y-59687413D01*
X91261438Y-59783451D01*
X91394839Y-59844373D01*
X91398633Y-59844918D01*
X90669942Y-60573609D01*
X90671343Y-60596177D01*
X90655850Y-60664307D01*
X90623744Y-60701713D01*
X90520258Y-60782260D01*
X90351833Y-60965217D01*
X90215826Y-61173393D01*
X90115936Y-61401118D01*
X90054892Y-61642175D01*
X90054890Y-61642187D01*
X90034357Y-61889994D01*
X90034357Y-61890005D01*
X90054890Y-62137812D01*
X90054892Y-62137824D01*
X90115936Y-62378881D01*
X90215826Y-62606606D01*
X90351833Y-62814782D01*
X90351836Y-62814785D01*
X90520256Y-62997738D01*
X90603008Y-63062147D01*
X90643821Y-63118857D01*
X90647496Y-63188630D01*
X90612864Y-63249313D01*
X90603014Y-63257848D01*
X90544400Y-63303469D01*
X90520257Y-63322261D01*
X90351833Y-63505217D01*
X90215826Y-63713393D01*
X90115936Y-63941118D01*
X90054892Y-64182175D01*
X90054890Y-64182187D01*
X90034357Y-64429994D01*
X90034357Y-64430005D01*
X90054890Y-64677812D01*
X90054892Y-64677824D01*
X90115936Y-64918881D01*
X90215826Y-65146606D01*
X90351833Y-65354782D01*
X90351836Y-65354785D01*
X90520256Y-65537738D01*
X90603008Y-65602146D01*
X90643820Y-65658856D01*
X90647495Y-65728629D01*
X90612864Y-65789312D01*
X90603009Y-65797852D01*
X90520255Y-65862262D01*
X90351833Y-66045217D01*
X90215826Y-66253393D01*
X90115936Y-66481118D01*
X90054892Y-66722175D01*
X90054890Y-66722187D01*
X90034357Y-66969994D01*
X90034357Y-66970005D01*
X90054890Y-67217812D01*
X90054892Y-67217824D01*
X90115936Y-67458881D01*
X90215826Y-67686606D01*
X90351833Y-67894782D01*
X90351836Y-67894785D01*
X90520256Y-68077738D01*
X90603008Y-68142147D01*
X90643821Y-68198857D01*
X90647496Y-68268630D01*
X90612864Y-68329313D01*
X90603014Y-68337848D01*
X90568801Y-68364478D01*
X90520257Y-68402261D01*
X90351833Y-68585217D01*
X90215826Y-68793393D01*
X90115936Y-69021118D01*
X90054892Y-69262175D01*
X90054890Y-69262187D01*
X90034357Y-69509994D01*
X90034357Y-69510005D01*
X90054890Y-69757812D01*
X90054892Y-69757824D01*
X90115936Y-69998881D01*
X90215826Y-70226606D01*
X90351833Y-70434782D01*
X90351836Y-70434785D01*
X90520256Y-70617738D01*
X90603008Y-70682147D01*
X90643821Y-70738857D01*
X90647496Y-70808630D01*
X90612864Y-70869313D01*
X90603014Y-70877848D01*
X90544400Y-70923469D01*
X90520257Y-70942261D01*
X90351833Y-71125217D01*
X90215826Y-71333393D01*
X90115936Y-71561118D01*
X90054892Y-71802175D01*
X90054890Y-71802187D01*
X90034357Y-72049994D01*
X90034357Y-72050005D01*
X90054890Y-72297812D01*
X90054892Y-72297824D01*
X90115936Y-72538881D01*
X90215826Y-72766606D01*
X90351833Y-72974782D01*
X90370251Y-72994789D01*
X90520256Y-73157738D01*
X90603008Y-73222147D01*
X90643821Y-73278857D01*
X90647496Y-73348630D01*
X90612864Y-73409313D01*
X90603014Y-73417848D01*
X90562374Y-73449480D01*
X90520257Y-73482261D01*
X90351833Y-73665217D01*
X90215826Y-73873393D01*
X90115936Y-74101118D01*
X90054892Y-74342175D01*
X90054890Y-74342187D01*
X90034357Y-74589994D01*
X90034357Y-74590005D01*
X90054890Y-74837812D01*
X90054892Y-74837824D01*
X90115936Y-75078881D01*
X90215826Y-75306606D01*
X90351833Y-75514782D01*
X90368166Y-75532524D01*
X90520256Y-75697738D01*
X90603010Y-75762148D01*
X90643821Y-75818855D01*
X90647496Y-75888628D01*
X90612865Y-75949311D01*
X90603009Y-75957852D01*
X90520258Y-76022260D01*
X90351833Y-76205217D01*
X90215826Y-76413393D01*
X90115936Y-76641118D01*
X90054892Y-76882175D01*
X90054890Y-76882187D01*
X90034357Y-77129994D01*
X90034357Y-77130005D01*
X90054890Y-77377812D01*
X90054892Y-77377824D01*
X90115936Y-77618881D01*
X90215826Y-77846606D01*
X90351833Y-78054782D01*
X90351836Y-78054785D01*
X90520256Y-78237738D01*
X90603008Y-78302147D01*
X90643821Y-78358857D01*
X90647496Y-78428630D01*
X90612864Y-78489313D01*
X90603014Y-78497848D01*
X90544400Y-78543469D01*
X90520257Y-78562261D01*
X90351833Y-78745217D01*
X90215826Y-78953393D01*
X90115936Y-79181118D01*
X90054892Y-79422175D01*
X90054890Y-79422187D01*
X90034357Y-79669994D01*
X90034357Y-79670005D01*
X90054890Y-79917812D01*
X90054892Y-79917824D01*
X90115936Y-80158881D01*
X90215826Y-80386606D01*
X90351833Y-80594782D01*
X90351836Y-80594785D01*
X90520256Y-80777738D01*
X90603008Y-80842146D01*
X90643820Y-80898856D01*
X90647495Y-80968629D01*
X90612864Y-81029312D01*
X90603010Y-81037850D01*
X90557401Y-81073351D01*
X90492408Y-81098996D01*
X90481236Y-81099500D01*
X84320860Y-81099500D01*
X84253821Y-81079815D01*
X84208066Y-81027011D01*
X84198122Y-80957853D01*
X84227147Y-80894297D01*
X84277527Y-80859318D01*
X84292328Y-80853797D01*
X84292327Y-80853797D01*
X84292331Y-80853796D01*
X84407546Y-80767546D01*
X84493796Y-80652331D01*
X84502576Y-80628789D01*
X84544444Y-80572856D01*
X84606214Y-80548757D01*
X84642438Y-80545074D01*
X84675227Y-80534786D01*
X84682840Y-80532918D01*
X84716653Y-80526858D01*
X84773621Y-80504101D01*
X84778053Y-80502524D01*
X84800724Y-80495411D01*
X84836588Y-80484159D01*
X84866627Y-80467484D01*
X84873708Y-80464122D01*
X84905617Y-80451377D01*
X84956854Y-80417608D01*
X84960851Y-80415187D01*
X85014502Y-80385409D01*
X85040568Y-80363030D01*
X85046843Y-80358300D01*
X85075519Y-80339402D01*
X85118917Y-80296002D01*
X85122336Y-80292834D01*
X85168895Y-80252866D01*
X85189931Y-80225688D01*
X85195101Y-80219818D01*
X88698001Y-76716918D01*
X88699014Y-76715931D01*
X88763053Y-76655059D01*
X88790986Y-76614925D01*
X88798097Y-76604709D01*
X88800924Y-76600957D01*
X88839698Y-76553407D01*
X88855607Y-76522948D01*
X88859667Y-76516248D01*
X88879295Y-76488049D01*
X88903492Y-76431660D01*
X88905498Y-76427435D01*
X88933909Y-76373049D01*
X88943357Y-76340022D01*
X88945988Y-76332633D01*
X88959540Y-76301058D01*
X88971895Y-76240930D01*
X88972999Y-76236429D01*
X88989886Y-76177418D01*
X88992495Y-76143155D01*
X88993585Y-76135388D01*
X88994795Y-76129500D01*
X89000500Y-76101741D01*
X89000499Y-76040400D01*
X89000678Y-76035690D01*
X89000682Y-76035636D01*
X89005337Y-75974524D01*
X89000997Y-75940442D01*
X89000500Y-75932603D01*
X89000500Y-69013491D01*
X89000520Y-69011921D01*
X89002757Y-68923642D01*
X89002756Y-68923641D01*
X89002757Y-68923637D01*
X88991930Y-68863234D01*
X88991280Y-68858599D01*
X88985074Y-68797562D01*
X88974790Y-68764786D01*
X88972920Y-68757168D01*
X88966859Y-68723348D01*
X88966858Y-68723346D01*
X88966858Y-68723344D01*
X88944098Y-68666366D01*
X88942517Y-68661925D01*
X88924160Y-68603415D01*
X88924159Y-68603414D01*
X88924159Y-68603412D01*
X88907482Y-68573366D01*
X88904122Y-68566288D01*
X88902390Y-68561951D01*
X88891378Y-68534383D01*
X88891375Y-68534378D01*
X88891374Y-68534376D01*
X88878853Y-68515378D01*
X88857605Y-68483139D01*
X88855183Y-68479142D01*
X88825409Y-68425498D01*
X88803034Y-68399434D01*
X88798306Y-68393163D01*
X88779404Y-68364484D01*
X88779399Y-68364478D01*
X88747907Y-68332987D01*
X88736019Y-68321099D01*
X88732828Y-68317655D01*
X88692865Y-68271104D01*
X88665694Y-68250072D01*
X88659807Y-68244887D01*
X87716973Y-67302053D01*
X87715915Y-67300967D01*
X87655061Y-67236949D01*
X87655060Y-67236948D01*
X87655059Y-67236947D01*
X87627204Y-67217559D01*
X87604709Y-67201902D01*
X87600946Y-67199064D01*
X87553413Y-67160305D01*
X87553406Y-67160300D01*
X87522959Y-67144397D01*
X87516251Y-67140334D01*
X87488049Y-67120705D01*
X87488046Y-67120703D01*
X87488045Y-67120703D01*
X87488041Y-67120701D01*
X87431680Y-67096514D01*
X87427424Y-67094493D01*
X87373057Y-67066094D01*
X87373050Y-67066091D01*
X87373049Y-67066091D01*
X87367008Y-67064362D01*
X87340030Y-67056642D01*
X87332630Y-67054008D01*
X87301057Y-67040459D01*
X87301058Y-67040459D01*
X87240966Y-67028109D01*
X87236391Y-67026986D01*
X87177420Y-67010113D01*
X87177425Y-67010113D01*
X87143158Y-67007503D01*
X87135380Y-67006412D01*
X87101742Y-66999500D01*
X87101741Y-66999500D01*
X87040402Y-66999500D01*
X87035695Y-66999321D01*
X87030121Y-66998896D01*
X86974524Y-66994662D01*
X86954589Y-66997201D01*
X86940440Y-66999003D01*
X86932611Y-66999500D01*
X84877588Y-66999500D01*
X84810549Y-66979815D01*
X84806465Y-66977075D01*
X84796352Y-66969994D01*
X84652734Y-66869432D01*
X84652732Y-66869431D01*
X84446497Y-66773261D01*
X84446488Y-66773258D01*
X84226697Y-66714366D01*
X84226693Y-66714365D01*
X84226692Y-66714365D01*
X84226691Y-66714364D01*
X84226686Y-66714364D01*
X84000002Y-66694532D01*
X83999998Y-66694532D01*
X83773313Y-66714364D01*
X83773302Y-66714366D01*
X83553511Y-66773258D01*
X83553502Y-66773261D01*
X83347267Y-66869431D01*
X83347265Y-66869432D01*
X83244595Y-66941322D01*
X83203648Y-66969994D01*
X83193535Y-66977075D01*
X83127329Y-66999402D01*
X83122412Y-66999500D01*
X81465782Y-66999500D01*
X81398743Y-66979815D01*
X81378101Y-66963181D01*
X81036819Y-66621898D01*
X81003334Y-66560575D01*
X81000500Y-66534217D01*
X81000500Y-62350002D01*
X84015034Y-62350002D01*
X84034858Y-62576599D01*
X84034860Y-62576610D01*
X84093730Y-62796317D01*
X84093734Y-62796326D01*
X84189865Y-63002481D01*
X84189866Y-63002483D01*
X84240973Y-63075471D01*
X84240974Y-63075472D01*
X84922046Y-62394399D01*
X84934835Y-62475148D01*
X84992359Y-62588045D01*
X85081955Y-62677641D01*
X85194852Y-62735165D01*
X85275599Y-62747953D01*
X84594526Y-63429025D01*
X84594526Y-63429026D01*
X84667512Y-63480131D01*
X84667516Y-63480133D01*
X84873673Y-63576265D01*
X84873682Y-63576269D01*
X85093389Y-63635139D01*
X85093400Y-63635141D01*
X85319998Y-63654966D01*
X85320002Y-63654966D01*
X85546599Y-63635141D01*
X85546610Y-63635139D01*
X85766317Y-63576269D01*
X85766331Y-63576264D01*
X85972478Y-63480136D01*
X86045472Y-63429025D01*
X85364401Y-62747953D01*
X85445148Y-62735165D01*
X85558045Y-62677641D01*
X85647641Y-62588045D01*
X85705165Y-62475148D01*
X85717953Y-62394399D01*
X86399025Y-63075472D01*
X86450136Y-63002478D01*
X86546264Y-62796331D01*
X86546269Y-62796317D01*
X86605139Y-62576610D01*
X86605141Y-62576599D01*
X86624966Y-62350002D01*
X86624966Y-62349997D01*
X86605141Y-62123400D01*
X86605139Y-62123389D01*
X86546269Y-61903682D01*
X86546265Y-61903673D01*
X86450133Y-61697516D01*
X86450131Y-61697512D01*
X86399026Y-61624526D01*
X86399025Y-61624526D01*
X85717953Y-62305597D01*
X85705165Y-62224852D01*
X85647641Y-62111955D01*
X85558045Y-62022359D01*
X85445148Y-61964835D01*
X85364400Y-61952046D01*
X86045472Y-61270974D01*
X86045471Y-61270973D01*
X85972483Y-61219866D01*
X85972481Y-61219865D01*
X85766326Y-61123734D01*
X85766317Y-61123730D01*
X85546610Y-61064860D01*
X85546599Y-61064858D01*
X85320002Y-61045034D01*
X85319998Y-61045034D01*
X85093400Y-61064858D01*
X85093389Y-61064860D01*
X84873682Y-61123730D01*
X84873673Y-61123734D01*
X84667513Y-61219868D01*
X84594527Y-61270972D01*
X84594526Y-61270973D01*
X85275600Y-61952046D01*
X85194852Y-61964835D01*
X85081955Y-62022359D01*
X84992359Y-62111955D01*
X84934835Y-62224852D01*
X84922046Y-62305599D01*
X84240973Y-61624526D01*
X84240972Y-61624527D01*
X84189868Y-61697513D01*
X84093734Y-61903673D01*
X84093730Y-61903682D01*
X84034860Y-62123389D01*
X84034858Y-62123400D01*
X84015034Y-62349997D01*
X84015034Y-62350002D01*
X81000500Y-62350002D01*
X81000500Y-58474500D01*
X81020185Y-58407461D01*
X81072989Y-58361706D01*
X81124500Y-58350500D01*
X83982820Y-58350500D01*
X84049859Y-58370185D01*
X84082085Y-58400187D01*
X84162454Y-58507546D01*
X84171638Y-58514421D01*
X84277664Y-58593793D01*
X84277671Y-58593797D01*
X84412517Y-58644091D01*
X84412516Y-58644091D01*
X84419444Y-58644835D01*
X84472127Y-58650500D01*
X86167872Y-58650499D01*
X86227483Y-58644091D01*
X86362331Y-58593796D01*
X86477546Y-58507546D01*
X86563796Y-58392331D01*
X86614091Y-58257483D01*
X86620500Y-58197873D01*
X86620500Y-57934500D01*
X86640185Y-57867461D01*
X86692989Y-57821706D01*
X86744500Y-57810500D01*
X89923023Y-57810500D01*
X89990062Y-57830185D01*
G37*
%TD.AperFunction*%
%TD*%
M02*
