%TF.GenerationSoftware,KiCad,Pcbnew,7.0.5*%
%TF.CreationDate,2023-12-29T18:59:19-03:00*%
%TF.ProjectId,ESP32-LoRa-PainelSolar,45535033-322d-44c6-9f52-612d5061696e,rev?*%
%TF.SameCoordinates,Original*%
%TF.FileFunction,Copper,L2,Bot*%
%TF.FilePolarity,Positive*%
%FSLAX46Y46*%
G04 Gerber Fmt 4.6, Leading zero omitted, Abs format (unit mm)*
G04 Created by KiCad (PCBNEW 7.0.5) date 2023-12-29 18:59:19*
%MOMM*%
%LPD*%
G01*
G04 APERTURE LIST*
%TA.AperFunction,ComponentPad*%
%ADD10R,1.700000X1.700000*%
%TD*%
%TA.AperFunction,ComponentPad*%
%ADD11O,1.700000X1.700000*%
%TD*%
%TA.AperFunction,ComponentPad*%
%ADD12R,2.000000X2.000000*%
%TD*%
%TA.AperFunction,ComponentPad*%
%ADD13C,2.000000*%
%TD*%
%TA.AperFunction,ComponentPad*%
%ADD14C,1.600000*%
%TD*%
%TA.AperFunction,ComponentPad*%
%ADD15O,1.600000X1.600000*%
%TD*%
%TA.AperFunction,ComponentPad*%
%ADD16R,1.905000X2.000000*%
%TD*%
%TA.AperFunction,ComponentPad*%
%ADD17O,1.905000X2.000000*%
%TD*%
%TA.AperFunction,ViaPad*%
%ADD18C,0.800000*%
%TD*%
%TA.AperFunction,ViaPad*%
%ADD19C,1.000000*%
%TD*%
%TA.AperFunction,ViaPad*%
%ADD20C,2.000000*%
%TD*%
%TA.AperFunction,Conductor*%
%ADD21C,1.000000*%
%TD*%
G04 APERTURE END LIST*
D10*
%TO.P,J2,1,Pin_1*%
%TO.N,unconnected-(J2-Pin_1-Pad1)*%
X84328000Y-44704000D03*
D11*
%TO.P,J2,2,Pin_2*%
%TO.N,Net-(J2-Pin_2)*%
X84328000Y-47244000D03*
%TO.P,J2,3,Pin_3*%
%TO.N,Net-(J2-Pin_3)*%
X84328000Y-49784000D03*
%TO.P,J2,4,Pin_4*%
%TO.N,Net-(J2-Pin_4)*%
X84328000Y-52324000D03*
%TO.P,J2,5,Pin_5*%
%TO.N,+5V*%
X84328000Y-54864000D03*
%TO.P,J2,6,Pin_6*%
%TO.N,GNDREF*%
X84328000Y-57404000D03*
%TD*%
D10*
%TO.P,J4,1,Pin_1*%
%TO.N,Net-(J4-Pin_1)*%
X60706000Y-41656000D03*
D11*
%TO.P,J4,2,Pin_2*%
%TO.N,GNDREF*%
X58166000Y-41656000D03*
%TD*%
D12*
%TO.P,U2,1,3V3*%
%TO.N,+3.3V*%
X109474000Y-108225000D03*
D13*
%TO.P,U2,2,GND*%
%TO.N,GNDREF*%
X109474000Y-105685000D03*
%TO.P,U2,3,D15*%
%TO.N,unconnected-(U2-D15-Pad3)*%
X109474000Y-103145000D03*
%TO.P,U2,4,D2*%
%TO.N,Net-(U1-DIO0)*%
X109474000Y-100605000D03*
%TO.P,U2,5,D4*%
%TO.N,Net-(U1-DIO1)*%
X109474000Y-98065000D03*
%TO.P,U2,6,RX2*%
%TO.N,unconnected-(U2-RX2-Pad6)*%
X109474000Y-95525000D03*
%TO.P,U2,7,TX2*%
%TO.N,unconnected-(U2-TX2-Pad7)*%
X109474000Y-92985000D03*
%TO.P,U2,8,D5*%
%TO.N,Net-(U1-NSS)*%
X109474000Y-90445000D03*
%TO.P,U2,9,D18*%
%TO.N,Net-(U1-SCK)*%
X109474000Y-87905000D03*
%TO.P,U2,10,D19*%
%TO.N,Net-(U1-MISO)*%
X109474000Y-85365000D03*
%TO.P,U2,11,D21*%
%TO.N,Net-(J2-Pin_4)*%
X109474000Y-82825000D03*
%TO.P,U2,12,RX0*%
%TO.N,unconnected-(U2-RX0-Pad12)*%
X109474000Y-80285000D03*
%TO.P,U2,13,TX0*%
%TO.N,unconnected-(U2-TX0-Pad13)*%
X109474000Y-77745000D03*
%TO.P,U2,14,D22*%
%TO.N,Net-(J2-Pin_3)*%
X109474000Y-75205000D03*
%TO.P,U2,15,D23*%
%TO.N,Net-(U1-MOSI)*%
X109474000Y-72665000D03*
%TO.P,U2,16,EN*%
%TO.N,unconnected-(U2-EN-Pad16)*%
X84074000Y-72665000D03*
%TO.P,U2,17,VP*%
%TO.N,unconnected-(U2-VP-Pad17)*%
X84074000Y-75205000D03*
%TO.P,U2,18,VN*%
%TO.N,unconnected-(U2-VN-Pad18)*%
X84074000Y-77745000D03*
%TO.P,U2,19,D34*%
%TO.N,unconnected-(U2-D34-Pad19)*%
X84074000Y-80285000D03*
%TO.P,U2,20,D35*%
%TO.N,unconnected-(U2-D35-Pad20)*%
X84074000Y-82825000D03*
%TO.P,U2,21,D32*%
%TO.N,unconnected-(U2-D32-Pad21)*%
X84074000Y-85365000D03*
%TO.P,U2,22,D33*%
%TO.N,unconnected-(U2-D33-Pad22)*%
X84074000Y-87905000D03*
%TO.P,U2,23,D25*%
%TO.N,unconnected-(U2-D25-Pad23)*%
X84074000Y-90445000D03*
%TO.P,U2,24,D26*%
%TO.N,unconnected-(U2-D26-Pad24)*%
X84074000Y-92985000D03*
%TO.P,U2,25,D27*%
%TO.N,unconnected-(U2-D27-Pad25)*%
X84074000Y-95525000D03*
%TO.P,U2,26,D14*%
%TO.N,Net-(U1-RESET)*%
X84074000Y-98065000D03*
%TO.P,U2,27,D12*%
%TO.N,Net-(J1-Pin_4)*%
X84074000Y-100605000D03*
%TO.P,U2,28,D13*%
%TO.N,Net-(J1-Pin_3)*%
X84074000Y-103145000D03*
%TO.P,U2,29,GND*%
%TO.N,GNDREF*%
X84074000Y-105685000D03*
%TO.P,U2,30,VIN*%
%TO.N,unconnected-(U2-VIN-Pad30)*%
X84074000Y-108225000D03*
%TD*%
D10*
%TO.P,J1,1,Pin_1*%
%TO.N,GNDREF*%
X73152000Y-103124000D03*
D11*
%TO.P,J1,2,Pin_2*%
X73152000Y-100584000D03*
%TO.P,J1,3,Pin_3*%
%TO.N,Net-(J1-Pin_3)*%
X75692000Y-103124000D03*
%TO.P,J1,4,Pin_4*%
%TO.N,Net-(J1-Pin_4)*%
X75692000Y-100584000D03*
%TD*%
D10*
%TO.P,J3,1,Pin_1*%
%TO.N,+5V*%
X55641000Y-58674000D03*
D11*
%TO.P,J3,2,Pin_2*%
%TO.N,Net-(J2-Pin_2)*%
X58181000Y-58674000D03*
%TO.P,J3,3,Pin_3*%
%TO.N,GNDREF*%
X60721000Y-58674000D03*
%TD*%
D14*
%TO.P,R4,1*%
%TO.N,+3.3V*%
X95758000Y-106172000D03*
D15*
%TO.P,R4,2*%
%TO.N,Net-(J1-Pin_3)*%
X95758000Y-98552000D03*
%TD*%
D14*
%TO.P,R3,1*%
%TO.N,+3.3V*%
X100330000Y-106172000D03*
D15*
%TO.P,R3,2*%
%TO.N,Net-(J1-Pin_4)*%
X100330000Y-98552000D03*
%TD*%
D16*
%TO.P,U3,1,VI*%
%TO.N,Net-(J4-Pin_1)*%
X60706000Y-46736000D03*
D17*
%TO.P,U3,2,GND*%
%TO.N,GNDREF*%
X58166000Y-46736000D03*
%TO.P,U3,3,VO*%
%TO.N,+5V*%
X55626000Y-46736000D03*
%TD*%
D18*
%TO.N,GNDREF*%
X62992000Y-55118000D03*
D19*
X127508000Y-68834000D03*
D18*
X62992000Y-50038000D03*
D19*
X127508000Y-82804000D03*
X144780000Y-80772000D03*
%TO.N,+3.3V*%
X117602000Y-103124000D03*
X144780000Y-74676000D03*
X117602000Y-96012000D03*
%TO.N,Net-(U1-DIO0)*%
X144780000Y-72644000D03*
%TO.N,Net-(U1-DIO1)*%
X147828000Y-74676000D03*
X144780000Y-70612000D03*
X147828000Y-70612000D03*
%TO.N,Net-(U1-NSS)*%
X127508000Y-76708000D03*
%TO.N,Net-(U1-SCK)*%
X127508000Y-74676000D03*
%TO.N,Net-(U1-MISO)*%
X127508000Y-70866000D03*
%TO.N,Net-(U1-MOSI)*%
X117348000Y-72644000D03*
X123698000Y-72644000D03*
X127508000Y-72644000D03*
%TO.N,Net-(U1-RESET)*%
X121666000Y-93218000D03*
X121666000Y-103124000D03*
X105664000Y-111506000D03*
X127508000Y-78740000D03*
X105664000Y-105156000D03*
D20*
%TO.N,unconnected-(U1-ANT-Pad9)*%
X143764000Y-85852000D03*
D18*
X144780000Y-82550000D03*
%TD*%
D21*
%TO.N,unconnected-(U1-ANT-Pad9)*%
X144780000Y-83820000D02*
X143764000Y-84836000D01*
X144780000Y-82550000D02*
X144780000Y-83820000D01*
X143764000Y-84836000D02*
X143764000Y-85852000D01*
%TO.N,+3.3V*%
X131318000Y-96012000D02*
X117602000Y-96012000D01*
X138938000Y-88392000D02*
X131318000Y-96012000D01*
X140208000Y-74676000D02*
X138938000Y-75946000D01*
X144780000Y-74676000D02*
X140208000Y-74676000D01*
X138938000Y-75946000D02*
X138938000Y-88392000D01*
%TO.N,Net-(U1-DIO0)*%
X150622000Y-87376000D02*
X137393000Y-100605000D01*
X150622000Y-74422000D02*
X150622000Y-87376000D01*
X148844000Y-72644000D02*
X150622000Y-74422000D01*
X137393000Y-100605000D02*
X109474000Y-100605000D01*
X144780000Y-72644000D02*
X148844000Y-72644000D01*
%TO.N,Net-(U1-DIO1)*%
X144780000Y-70612000D02*
X147828000Y-70612000D01*
%TO.N,Net-(U1-RESET)*%
X122428000Y-92456000D02*
X121666000Y-93218000D01*
X125476000Y-78740000D02*
X122428000Y-81788000D01*
X127508000Y-78740000D02*
X125476000Y-78740000D01*
X122428000Y-81788000D02*
X122428000Y-92456000D01*
%TO.N,Net-(U1-NSS)*%
X120142000Y-86868000D02*
X116565000Y-90445000D01*
X124460000Y-76708000D02*
X120142000Y-81026000D01*
X116565000Y-90445000D02*
X109474000Y-90445000D01*
X127508000Y-76708000D02*
X124460000Y-76708000D01*
X120142000Y-81026000D02*
X120142000Y-86868000D01*
%TO.N,Net-(U1-MISO)*%
X114046000Y-83566000D02*
X112247000Y-85365000D01*
X114046000Y-78994000D02*
X114046000Y-83566000D01*
X122174000Y-70866000D02*
X114046000Y-78994000D01*
X127508000Y-70866000D02*
X122174000Y-70866000D01*
X112247000Y-85365000D02*
X109474000Y-85365000D01*
%TO.N,Net-(U1-SCK)*%
X116586000Y-81026000D02*
X116586000Y-85344000D01*
X127508000Y-74676000D02*
X122936000Y-74676000D01*
X122936000Y-74676000D02*
X116586000Y-81026000D01*
X116586000Y-85344000D02*
X114025000Y-87905000D01*
X114025000Y-87905000D02*
X109474000Y-87905000D01*
%TO.N,Net-(U1-MOSI)*%
X127508000Y-72644000D02*
X123698000Y-72644000D01*
%TO.N,GNDREF*%
X73152000Y-105156000D02*
X73681000Y-105685000D01*
X73152000Y-100584000D02*
X73152000Y-103124000D01*
X73152000Y-103124000D02*
X73152000Y-105156000D01*
X73681000Y-105685000D02*
X84074000Y-105685000D01*
X58166000Y-41656000D02*
X58166000Y-46736000D01*
%TO.N,Net-(J1-Pin_3)*%
X88879000Y-103145000D02*
X93472000Y-98552000D01*
X93472000Y-98552000D02*
X95758000Y-98552000D01*
X84074000Y-103145000D02*
X88879000Y-103145000D01*
X84053000Y-103124000D02*
X84074000Y-103145000D01*
X75692000Y-103124000D02*
X84053000Y-103124000D01*
%TO.N,Net-(J1-Pin_4)*%
X84074000Y-100605000D02*
X88625000Y-100605000D01*
X98806000Y-95758000D02*
X100330000Y-97282000D01*
X75692000Y-100584000D02*
X84053000Y-100584000D01*
X84053000Y-100584000D02*
X84074000Y-100605000D01*
X93472000Y-95758000D02*
X98806000Y-95758000D01*
X88625000Y-100605000D02*
X93472000Y-95758000D01*
X100330000Y-97282000D02*
X100330000Y-98552000D01*
%TO.N,Net-(J2-Pin_2)*%
X61468000Y-52070000D02*
X58181000Y-55357000D01*
X70612000Y-47244000D02*
X84328000Y-47244000D01*
X65786000Y-52070000D02*
X61468000Y-52070000D01*
X65786000Y-52070000D02*
X70612000Y-47244000D01*
X58181000Y-55357000D02*
X58181000Y-58674000D01*
%TO.N,Net-(J2-Pin_3)*%
X88392000Y-58166000D02*
X105431000Y-75205000D01*
X86360000Y-49784000D02*
X88392000Y-51816000D01*
X84328000Y-49784000D02*
X86360000Y-49784000D01*
X105431000Y-75205000D02*
X109474000Y-75205000D01*
X88392000Y-51816000D02*
X88392000Y-58166000D01*
%TO.N,Net-(J2-Pin_4)*%
X105177000Y-82825000D02*
X86614000Y-64262000D01*
X109474000Y-82825000D02*
X105177000Y-82825000D01*
X86614000Y-64262000D02*
X86614000Y-64008000D01*
X85598000Y-52324000D02*
X86614000Y-53340000D01*
X84328000Y-52324000D02*
X85598000Y-52324000D01*
X86614000Y-53340000D02*
X86614000Y-64008000D01*
%TO.N,+5V*%
X64770000Y-61468000D02*
X64770000Y-57912000D01*
X55641000Y-58674000D02*
X55641000Y-46751000D01*
X62484000Y-63754000D02*
X64770000Y-61468000D01*
X84328000Y-54864000D02*
X67818000Y-54864000D01*
X55641000Y-46751000D02*
X55626000Y-46736000D01*
X67818000Y-54864000D02*
X64770000Y-57912000D01*
X55641000Y-62499000D02*
X56896000Y-63754000D01*
X56896000Y-63754000D02*
X62484000Y-63754000D01*
X55641000Y-58674000D02*
X55641000Y-62499000D01*
%TO.N,Net-(J4-Pin_1)*%
X60706000Y-41656000D02*
X60706000Y-46736000D01*
%TO.N,+3.3V*%
X117602000Y-104902000D02*
X117602000Y-103124000D01*
X109474000Y-108225000D02*
X114279000Y-108225000D01*
X100330000Y-106172000D02*
X101854000Y-106172000D01*
X114279000Y-108225000D02*
X117602000Y-104902000D01*
X101854000Y-106172000D02*
X103907000Y-108225000D01*
X103907000Y-108225000D02*
X109474000Y-108225000D01*
X95758000Y-106172000D02*
X100330000Y-106172000D01*
%TO.N,Net-(U1-DIO1)*%
X109474000Y-98065000D02*
X135615000Y-98065000D01*
X148590000Y-85090000D02*
X148590000Y-75438000D01*
X148590000Y-75438000D02*
X147828000Y-74676000D01*
X135615000Y-98065000D02*
X148590000Y-85090000D01*
%TO.N,Net-(U1-MOSI)*%
X117348000Y-72644000D02*
X109495000Y-72644000D01*
X109495000Y-72644000D02*
X109474000Y-72665000D01*
%TO.N,Net-(U1-RESET)*%
X105664000Y-98298000D02*
X105664000Y-98806000D01*
X93218000Y-93218000D02*
X100584000Y-93218000D01*
X87355000Y-98065000D02*
X87884000Y-97536000D01*
X87884000Y-97536000D02*
X92202000Y-93218000D01*
X104648000Y-97282000D02*
X105664000Y-98298000D01*
X92202000Y-93218000D02*
X93218000Y-93218000D01*
X84074000Y-98065000D02*
X87355000Y-98065000D01*
X100584000Y-93218000D02*
X104648000Y-97282000D01*
X115824000Y-111506000D02*
X105664000Y-111506000D01*
X121666000Y-105664000D02*
X115824000Y-111506000D01*
X121666000Y-103124000D02*
X121666000Y-105664000D01*
X105664000Y-105156000D02*
X105664000Y-104902000D01*
X105664000Y-98806000D02*
X105664000Y-105156000D01*
%TD*%
%TA.AperFunction,Conductor*%
%TO.N,GNDREF*%
G36*
X73402000Y-102688498D02*
G01*
X73294315Y-102639320D01*
X73187763Y-102624000D01*
X73116237Y-102624000D01*
X73009685Y-102639320D01*
X72902000Y-102688498D01*
X72902000Y-101019501D01*
X73009685Y-101068680D01*
X73116237Y-101084000D01*
X73187763Y-101084000D01*
X73294315Y-101068680D01*
X73402000Y-101019501D01*
X73402000Y-102688498D01*
G37*
%TD.AperFunction*%
%TA.AperFunction,Conductor*%
G36*
X147222283Y-73664185D02*
G01*
X147268038Y-73716989D01*
X147277982Y-73786147D01*
X147248957Y-73849703D01*
X147237010Y-73860722D01*
X147237438Y-73861196D01*
X147232774Y-73865408D01*
X147232773Y-73865410D01*
X147208327Y-73887495D01*
X147176006Y-73916696D01*
X147173775Y-73918617D01*
X147117113Y-73965120D01*
X147107789Y-73976481D01*
X147095074Y-73989815D01*
X147081791Y-74001816D01*
X147081788Y-74001819D01*
X147038496Y-74060773D01*
X147036450Y-74063407D01*
X146992094Y-74117456D01*
X146992092Y-74117459D01*
X146992091Y-74117460D01*
X146992090Y-74117462D01*
X146983469Y-74133590D01*
X146974063Y-74148521D01*
X146961352Y-74165830D01*
X146932216Y-74229237D01*
X146930559Y-74232575D01*
X146899184Y-74291277D01*
X146891614Y-74316229D01*
X146888621Y-74324120D01*
X146876396Y-74350729D01*
X146876393Y-74350737D01*
X146861383Y-74415415D01*
X146860318Y-74419396D01*
X146841978Y-74479857D01*
X146841975Y-74479872D01*
X146839088Y-74509181D01*
X146837781Y-74517122D01*
X146830396Y-74548945D01*
X146830396Y-74548947D01*
X146828799Y-74611968D01*
X146828520Y-74616474D01*
X146822659Y-74675997D01*
X146822659Y-74676004D01*
X146825876Y-74708677D01*
X146826155Y-74716328D01*
X146825243Y-74752360D01*
X146825243Y-74752372D01*
X146835766Y-74811081D01*
X146836440Y-74815942D01*
X146841975Y-74872129D01*
X146841976Y-74872132D01*
X146852489Y-74906791D01*
X146854188Y-74913856D01*
X146861140Y-74952648D01*
X146861141Y-74952651D01*
X146882021Y-75004923D01*
X146883776Y-75009927D01*
X146899186Y-75060728D01*
X146917849Y-75095646D01*
X146920748Y-75101877D01*
X146936622Y-75141615D01*
X146965745Y-75185804D01*
X146968656Y-75190695D01*
X146992090Y-75234538D01*
X147005418Y-75250779D01*
X147019348Y-75267752D01*
X147023192Y-75272970D01*
X147048600Y-75311522D01*
X147083631Y-75346553D01*
X147087720Y-75351064D01*
X147117118Y-75386884D01*
X147152934Y-75416277D01*
X147157445Y-75420366D01*
X147369113Y-75632034D01*
X147553181Y-75816101D01*
X147586666Y-75877424D01*
X147589500Y-75903782D01*
X147589500Y-84624217D01*
X147569815Y-84691256D01*
X147553181Y-84711898D01*
X135236899Y-97028181D01*
X135175576Y-97061666D01*
X135149218Y-97064500D01*
X131961448Y-97064500D01*
X131894409Y-97044815D01*
X131848654Y-96992011D01*
X131838710Y-96922853D01*
X131867735Y-96859297D01*
X131890615Y-96838722D01*
X131892498Y-96837410D01*
X131892502Y-96837409D01*
X131892504Y-96837406D01*
X131892510Y-96837403D01*
X131918565Y-96815033D01*
X131924843Y-96810300D01*
X131953519Y-96791402D01*
X131996917Y-96748002D01*
X132000336Y-96744834D01*
X132046895Y-96704866D01*
X132067931Y-96677688D01*
X132073101Y-96671818D01*
X139636001Y-89108918D01*
X139637014Y-89107931D01*
X139701053Y-89047059D01*
X139736097Y-88996709D01*
X139738924Y-88992957D01*
X139777698Y-88945407D01*
X139793607Y-88914948D01*
X139797667Y-88908248D01*
X139817295Y-88880049D01*
X139841492Y-88823660D01*
X139843498Y-88819435D01*
X139871909Y-88765049D01*
X139881357Y-88732022D01*
X139883988Y-88724633D01*
X139897540Y-88693058D01*
X139909895Y-88632930D01*
X139910999Y-88628429D01*
X139927886Y-88569418D01*
X139930494Y-88535157D01*
X139931585Y-88527389D01*
X139938500Y-88493743D01*
X139938500Y-88432398D01*
X139938679Y-88427688D01*
X139943337Y-88366524D01*
X139938997Y-88332442D01*
X139938500Y-88324603D01*
X139938500Y-85852005D01*
X142258357Y-85852005D01*
X142278890Y-86099812D01*
X142278892Y-86099824D01*
X142339936Y-86340881D01*
X142439826Y-86568606D01*
X142575833Y-86776782D01*
X142575836Y-86776785D01*
X142744256Y-86959738D01*
X142940491Y-87112474D01*
X143159190Y-87230828D01*
X143347343Y-87295421D01*
X143385740Y-87308603D01*
X143394386Y-87311571D01*
X143639665Y-87352500D01*
X143888335Y-87352500D01*
X144133614Y-87311571D01*
X144368810Y-87230828D01*
X144587509Y-87112474D01*
X144783744Y-86959738D01*
X144952164Y-86776785D01*
X145088173Y-86568607D01*
X145188063Y-86340881D01*
X145249108Y-86099821D01*
X145249109Y-86099812D01*
X145269643Y-85852005D01*
X145269643Y-85851994D01*
X145249109Y-85604187D01*
X145249107Y-85604175D01*
X145188063Y-85363118D01*
X145088173Y-85135393D01*
X145060799Y-85093493D01*
X145040611Y-85026603D01*
X145059792Y-84959418D01*
X145076923Y-84937995D01*
X145477946Y-84536972D01*
X145478997Y-84535948D01*
X145543053Y-84475059D01*
X145578099Y-84424706D01*
X145580938Y-84420941D01*
X145592721Y-84406490D01*
X145619698Y-84373407D01*
X145635601Y-84342960D01*
X145639674Y-84336239D01*
X145647856Y-84324483D01*
X145659295Y-84308049D01*
X145683492Y-84251660D01*
X145685498Y-84247435D01*
X145713909Y-84193049D01*
X145723360Y-84160015D01*
X145725991Y-84152628D01*
X145739540Y-84121058D01*
X145751893Y-84060940D01*
X145753006Y-84056412D01*
X145769887Y-83997418D01*
X145772495Y-83963155D01*
X145773587Y-83955376D01*
X145776943Y-83939049D01*
X145780500Y-83921741D01*
X145780500Y-83860401D01*
X145780679Y-83855692D01*
X145785337Y-83794526D01*
X145784065Y-83784540D01*
X145782340Y-83770989D01*
X145780997Y-83760442D01*
X145780500Y-83752603D01*
X145780500Y-82499256D01*
X145765074Y-82347560D01*
X145704162Y-82153420D01*
X145704160Y-82153416D01*
X145704159Y-82153412D01*
X145605409Y-81975498D01*
X145605408Y-81975497D01*
X145605407Y-81975495D01*
X145472867Y-81821106D01*
X145472865Y-81821104D01*
X145311962Y-81696554D01*
X145311959Y-81696553D01*
X145311958Y-81696552D01*
X145129271Y-81606940D01*
X144932285Y-81555937D01*
X144932287Y-81555937D01*
X144796804Y-81549066D01*
X144729064Y-81545631D01*
X144729063Y-81545631D01*
X144729061Y-81545631D01*
X144527936Y-81576442D01*
X144527924Y-81576445D01*
X144337118Y-81647111D01*
X144337111Y-81647115D01*
X144164432Y-81754745D01*
X144164427Y-81754749D01*
X144016949Y-81894938D01*
X144016948Y-81894940D01*
X143900705Y-82061949D01*
X143820459Y-82248943D01*
X143779500Y-82448258D01*
X143779500Y-83354216D01*
X143759815Y-83421255D01*
X143743181Y-83441897D01*
X143066090Y-84118988D01*
X143064966Y-84120084D01*
X143000946Y-84180942D01*
X142965899Y-84231294D01*
X142963062Y-84235056D01*
X142924302Y-84282592D01*
X142924299Y-84282597D01*
X142908392Y-84313047D01*
X142904324Y-84319761D01*
X142884702Y-84347954D01*
X142860509Y-84404330D01*
X142858488Y-84408584D01*
X142830091Y-84462951D01*
X142830090Y-84462952D01*
X142820640Y-84495975D01*
X142818007Y-84503371D01*
X142804459Y-84534943D01*
X142792113Y-84595019D01*
X142790990Y-84599595D01*
X142774113Y-84658577D01*
X142774112Y-84658586D01*
X142772958Y-84673730D01*
X142748236Y-84739080D01*
X142740547Y-84748288D01*
X142575836Y-84927213D01*
X142439826Y-85135393D01*
X142339936Y-85363118D01*
X142278892Y-85604175D01*
X142278890Y-85604187D01*
X142258357Y-85851994D01*
X142258357Y-85852005D01*
X139938500Y-85852005D01*
X139938500Y-76411782D01*
X139958185Y-76344743D01*
X139974819Y-76324101D01*
X140586101Y-75712819D01*
X140647424Y-75679334D01*
X140673782Y-75676500D01*
X144727800Y-75676500D01*
X144733881Y-75676799D01*
X144743930Y-75677788D01*
X144780000Y-75681341D01*
X144811510Y-75678237D01*
X144825999Y-75676811D01*
X144828941Y-75676591D01*
X144830738Y-75676500D01*
X144830742Y-75676500D01*
X144879663Y-75671525D01*
X144976132Y-75662024D01*
X144976151Y-75662017D01*
X144976391Y-75661971D01*
X144982230Y-75661095D01*
X144982438Y-75661074D01*
X145074992Y-75632034D01*
X145164727Y-75604814D01*
X145164735Y-75604809D01*
X145171463Y-75602023D01*
X145176533Y-75600181D01*
X145176575Y-75600162D01*
X145176588Y-75600159D01*
X145258648Y-75554612D01*
X145338538Y-75511910D01*
X145338544Y-75511904D01*
X145343604Y-75508525D01*
X145343740Y-75508729D01*
X145354215Y-75501608D01*
X145354503Y-75501408D01*
X145422854Y-75442728D01*
X145423749Y-75441977D01*
X145490883Y-75386883D01*
X145491103Y-75386614D01*
X145506198Y-75371180D01*
X145508895Y-75368866D01*
X145561925Y-75300355D01*
X145562998Y-75299011D01*
X145615907Y-75234542D01*
X145615909Y-75234539D01*
X145615910Y-75234538D01*
X145617766Y-75231063D01*
X145629076Y-75213605D01*
X145633448Y-75207958D01*
X145670118Y-75133199D01*
X145671082Y-75131314D01*
X145708814Y-75060727D01*
X145711000Y-75053517D01*
X145718330Y-75034912D01*
X145723060Y-75025271D01*
X145743090Y-74947906D01*
X145743762Y-74945518D01*
X145766024Y-74872132D01*
X145767113Y-74861065D01*
X145770473Y-74842148D01*
X145774063Y-74828285D01*
X145777938Y-74751861D01*
X145778154Y-74748967D01*
X145785341Y-74676000D01*
X145783899Y-74661369D01*
X145783462Y-74642937D01*
X145784369Y-74625064D01*
X145773291Y-74552754D01*
X145772878Y-74549464D01*
X145768911Y-74509181D01*
X145766024Y-74479868D01*
X145760713Y-74462361D01*
X145756809Y-74445167D01*
X145753556Y-74423929D01*
X145729320Y-74358494D01*
X145728135Y-74354969D01*
X145708814Y-74291273D01*
X145696518Y-74268270D01*
X145693055Y-74260572D01*
X145682887Y-74233116D01*
X145682886Y-74233113D01*
X145647756Y-74176751D01*
X145645702Y-74173199D01*
X145615910Y-74117462D01*
X145615909Y-74117460D01*
X145597225Y-74094694D01*
X145592534Y-74088156D01*
X145575252Y-74060429D01*
X145531802Y-74014720D01*
X145528840Y-74011368D01*
X145490883Y-73965117D01*
X145490881Y-73965115D01*
X145490880Y-73965114D01*
X145465500Y-73944285D01*
X145459894Y-73939073D01*
X145435059Y-73912947D01*
X145421042Y-73903191D01*
X145386090Y-73878863D01*
X145382180Y-73875906D01*
X145368102Y-73864352D01*
X145328769Y-73806607D01*
X145326898Y-73736763D01*
X145363086Y-73676994D01*
X145425842Y-73646279D01*
X145446768Y-73644500D01*
X147155244Y-73644500D01*
X147222283Y-73664185D01*
G37*
%TD.AperFunction*%
%TA.AperFunction,Conductor*%
G36*
X83434281Y-48264185D02*
G01*
X83454923Y-48280819D01*
X83456597Y-48282493D01*
X83456603Y-48282498D01*
X83642158Y-48412425D01*
X83685783Y-48467002D01*
X83692977Y-48536500D01*
X83661454Y-48598855D01*
X83642158Y-48615575D01*
X83456597Y-48745505D01*
X83289505Y-48912597D01*
X83153965Y-49106169D01*
X83153964Y-49106171D01*
X83054098Y-49320335D01*
X83054094Y-49320344D01*
X82992938Y-49548586D01*
X82992936Y-49548596D01*
X82972341Y-49783999D01*
X82972341Y-49784000D01*
X82992936Y-50019403D01*
X82992938Y-50019413D01*
X83054094Y-50247655D01*
X83054096Y-50247659D01*
X83054097Y-50247663D01*
X83113707Y-50375496D01*
X83153965Y-50461830D01*
X83153967Y-50461834D01*
X83289501Y-50655395D01*
X83289506Y-50655402D01*
X83456597Y-50822493D01*
X83456603Y-50822498D01*
X83642158Y-50952425D01*
X83685783Y-51007002D01*
X83692977Y-51076500D01*
X83661454Y-51138855D01*
X83642158Y-51155575D01*
X83456597Y-51285505D01*
X83289505Y-51452597D01*
X83153965Y-51646169D01*
X83153964Y-51646171D01*
X83054098Y-51860335D01*
X83054094Y-51860344D01*
X82992938Y-52088586D01*
X82992936Y-52088596D01*
X82972341Y-52323999D01*
X82972341Y-52324000D01*
X82992936Y-52559403D01*
X82992938Y-52559413D01*
X83054094Y-52787655D01*
X83054096Y-52787659D01*
X83054097Y-52787663D01*
X83142614Y-52977488D01*
X83153965Y-53001830D01*
X83153967Y-53001834D01*
X83289501Y-53195395D01*
X83289506Y-53195402D01*
X83456597Y-53362493D01*
X83456603Y-53362498D01*
X83642158Y-53492425D01*
X83685783Y-53547002D01*
X83692977Y-53616500D01*
X83661454Y-53678855D01*
X83642158Y-53695575D01*
X83456597Y-53825505D01*
X83454922Y-53827181D01*
X83454000Y-53827684D01*
X83452449Y-53828986D01*
X83452187Y-53828674D01*
X83393599Y-53860666D01*
X83367241Y-53863500D01*
X67831493Y-53863500D01*
X67829930Y-53863480D01*
X67741637Y-53861243D01*
X67741628Y-53861243D01*
X67688636Y-53870741D01*
X67681254Y-53872064D01*
X67676595Y-53872718D01*
X67615564Y-53878925D01*
X67615562Y-53878926D01*
X67582780Y-53889210D01*
X67575156Y-53891081D01*
X67567308Y-53892488D01*
X67541349Y-53897141D01*
X67484381Y-53919895D01*
X67479945Y-53921474D01*
X67421414Y-53939840D01*
X67421410Y-53939842D01*
X67391378Y-53956510D01*
X67384284Y-53959879D01*
X67352382Y-53972623D01*
X67352377Y-53972625D01*
X67301156Y-54006381D01*
X67297128Y-54008822D01*
X67243501Y-54038588D01*
X67217434Y-54060965D01*
X67211165Y-54065692D01*
X67182484Y-54084595D01*
X67182478Y-54084600D01*
X67139109Y-54127968D01*
X67135655Y-54131169D01*
X67089102Y-54171136D01*
X67068076Y-54198298D01*
X67062885Y-54204192D01*
X64072091Y-57194987D01*
X64070967Y-57196083D01*
X64006946Y-57256942D01*
X63971899Y-57307294D01*
X63969062Y-57311056D01*
X63930302Y-57358592D01*
X63930299Y-57358597D01*
X63914392Y-57389047D01*
X63910324Y-57395761D01*
X63890702Y-57423954D01*
X63866509Y-57480330D01*
X63864488Y-57484584D01*
X63836091Y-57538951D01*
X63836090Y-57538952D01*
X63826640Y-57571975D01*
X63824007Y-57579371D01*
X63810459Y-57610943D01*
X63798113Y-57671019D01*
X63796990Y-57675595D01*
X63780113Y-57734577D01*
X63780113Y-57734579D01*
X63777503Y-57768841D01*
X63776414Y-57776608D01*
X63774095Y-57787898D01*
X63769500Y-57810258D01*
X63769500Y-57871597D01*
X63769321Y-57876306D01*
X63764662Y-57937474D01*
X63766707Y-57953527D01*
X63769003Y-57971560D01*
X63769500Y-57979388D01*
X63769500Y-61002217D01*
X63749815Y-61069256D01*
X63733181Y-61089898D01*
X62105899Y-62717181D01*
X62044576Y-62750666D01*
X62018218Y-62753500D01*
X57361783Y-62753500D01*
X57294744Y-62733815D01*
X57274102Y-62717181D01*
X56677818Y-62120897D01*
X56644333Y-62059574D01*
X56641499Y-62033216D01*
X56641499Y-61053579D01*
X56641499Y-60088137D01*
X56661184Y-60021102D01*
X56713988Y-59975347D01*
X56722134Y-59971971D01*
X56733331Y-59967796D01*
X56848546Y-59881546D01*
X56934796Y-59766331D01*
X56983810Y-59634916D01*
X57025681Y-59578984D01*
X57091145Y-59554566D01*
X57159418Y-59569417D01*
X57187673Y-59590569D01*
X57309599Y-59712495D01*
X57406384Y-59780265D01*
X57503165Y-59848032D01*
X57503167Y-59848033D01*
X57503170Y-59848035D01*
X57717337Y-59947903D01*
X57945592Y-60009063D01*
X58133918Y-60025539D01*
X58180999Y-60029659D01*
X58181000Y-60029659D01*
X58181001Y-60029659D01*
X58220234Y-60026226D01*
X58416408Y-60009063D01*
X58644663Y-59947903D01*
X58858830Y-59848035D01*
X59052401Y-59712495D01*
X59219495Y-59545401D01*
X59349730Y-59359405D01*
X59404307Y-59315781D01*
X59473805Y-59308587D01*
X59536160Y-59340110D01*
X59552879Y-59359405D01*
X59682890Y-59545078D01*
X59849917Y-59712105D01*
X60043421Y-59847600D01*
X60257507Y-59947429D01*
X60257516Y-59947433D01*
X60471000Y-60004634D01*
X60471000Y-59109501D01*
X60578685Y-59158680D01*
X60685237Y-59174000D01*
X60756763Y-59174000D01*
X60863315Y-59158680D01*
X60971000Y-59109501D01*
X60971000Y-60004633D01*
X61184483Y-59947433D01*
X61184492Y-59947429D01*
X61398578Y-59847600D01*
X61592082Y-59712105D01*
X61759105Y-59545082D01*
X61894600Y-59351578D01*
X61994429Y-59137492D01*
X61994432Y-59137486D01*
X62051636Y-58924000D01*
X61154686Y-58924000D01*
X61180493Y-58883844D01*
X61221000Y-58745889D01*
X61221000Y-58602111D01*
X61180493Y-58464156D01*
X61154686Y-58424000D01*
X62051636Y-58424000D01*
X62051635Y-58423999D01*
X61994432Y-58210513D01*
X61994429Y-58210507D01*
X61894600Y-57996422D01*
X61894599Y-57996420D01*
X61759113Y-57802926D01*
X61759108Y-57802920D01*
X61592082Y-57635894D01*
X61398578Y-57500399D01*
X61184492Y-57400570D01*
X61184486Y-57400567D01*
X60971000Y-57343364D01*
X60971000Y-58238498D01*
X60863315Y-58189320D01*
X60756763Y-58174000D01*
X60685237Y-58174000D01*
X60578685Y-58189320D01*
X60471000Y-58238498D01*
X60471000Y-57343364D01*
X60470999Y-57343364D01*
X60257513Y-57400567D01*
X60257507Y-57400570D01*
X60043422Y-57500399D01*
X60043420Y-57500400D01*
X59849926Y-57635886D01*
X59849920Y-57635891D01*
X59682891Y-57802920D01*
X59682890Y-57802922D01*
X59552880Y-57988595D01*
X59498303Y-58032219D01*
X59428804Y-58039412D01*
X59366450Y-58007890D01*
X59349730Y-57988594D01*
X59219494Y-57802597D01*
X59217819Y-57800922D01*
X59217315Y-57800000D01*
X59216014Y-57798449D01*
X59216325Y-57798187D01*
X59184334Y-57739599D01*
X59181500Y-57713241D01*
X59181500Y-55822781D01*
X59201185Y-55755742D01*
X59217814Y-55735105D01*
X61846101Y-53106818D01*
X61907424Y-53073334D01*
X61933782Y-53070500D01*
X65772507Y-53070500D01*
X65774069Y-53070519D01*
X65811283Y-53071462D01*
X65862358Y-53072757D01*
X65862358Y-53072756D01*
X65862363Y-53072757D01*
X65922753Y-53061932D01*
X65927412Y-53061280D01*
X65969607Y-53056988D01*
X65988438Y-53055074D01*
X66021227Y-53044786D01*
X66028840Y-53042918D01*
X66062653Y-53036858D01*
X66119621Y-53014101D01*
X66124053Y-53012524D01*
X66182588Y-52994159D01*
X66212627Y-52977484D01*
X66219708Y-52974122D01*
X66251617Y-52961377D01*
X66302854Y-52927608D01*
X66306851Y-52925187D01*
X66360502Y-52895409D01*
X66386568Y-52873030D01*
X66392843Y-52868300D01*
X66421519Y-52849402D01*
X66464917Y-52806002D01*
X66468336Y-52802834D01*
X66514895Y-52762866D01*
X66535931Y-52735688D01*
X66541101Y-52729818D01*
X70990101Y-48280819D01*
X71051425Y-48247334D01*
X71077783Y-48244500D01*
X83367242Y-48244500D01*
X83434281Y-48264185D01*
G37*
%TD.AperFunction*%
%TA.AperFunction,Conductor*%
G36*
X153867039Y-38881685D02*
G01*
X153912794Y-38934489D01*
X153924000Y-38986000D01*
X153924000Y-118748000D01*
X153904315Y-118815039D01*
X153851511Y-118860794D01*
X153800000Y-118872000D01*
X47114000Y-118872000D01*
X47046961Y-118852315D01*
X47001206Y-118799511D01*
X46990000Y-118748000D01*
X46990000Y-116316187D01*
X82793500Y-116316187D01*
X82813794Y-116450823D01*
X82832604Y-116575615D01*
X82832605Y-116575617D01*
X82832606Y-116575623D01*
X82909938Y-116826326D01*
X83023767Y-117062696D01*
X83023768Y-117062697D01*
X83023770Y-117062700D01*
X83023772Y-117062704D01*
X83171566Y-117279478D01*
X83171567Y-117279479D01*
X83350014Y-117471801D01*
X83350018Y-117471804D01*
X83350019Y-117471805D01*
X83555143Y-117635386D01*
X83782357Y-117766568D01*
X84026584Y-117862420D01*
X84282370Y-117920802D01*
X84282376Y-117920802D01*
X84282379Y-117920803D01*
X84478484Y-117935499D01*
X84478503Y-117935499D01*
X84478506Y-117935500D01*
X84478508Y-117935500D01*
X84609492Y-117935500D01*
X84609494Y-117935500D01*
X84609496Y-117935499D01*
X84609515Y-117935499D01*
X84805620Y-117920803D01*
X84805622Y-117920802D01*
X84805630Y-117920802D01*
X85061416Y-117862420D01*
X85305643Y-117766568D01*
X85532857Y-117635386D01*
X85737981Y-117471805D01*
X85916433Y-117279479D01*
X86064228Y-117062704D01*
X86178063Y-116826323D01*
X86255396Y-116575615D01*
X86294499Y-116316187D01*
X107303500Y-116316187D01*
X107323794Y-116450823D01*
X107342604Y-116575615D01*
X107342605Y-116575617D01*
X107342606Y-116575623D01*
X107419938Y-116826326D01*
X107533767Y-117062696D01*
X107533768Y-117062697D01*
X107533770Y-117062700D01*
X107533772Y-117062704D01*
X107681567Y-117279479D01*
X107860014Y-117471801D01*
X107860018Y-117471804D01*
X107860019Y-117471805D01*
X108065143Y-117635386D01*
X108292357Y-117766568D01*
X108536584Y-117862420D01*
X108792370Y-117920802D01*
X108792376Y-117920802D01*
X108792379Y-117920803D01*
X108988484Y-117935499D01*
X108988503Y-117935499D01*
X108988506Y-117935500D01*
X108988508Y-117935500D01*
X109119492Y-117935500D01*
X109119494Y-117935500D01*
X109119496Y-117935499D01*
X109119515Y-117935499D01*
X109315620Y-117920803D01*
X109315622Y-117920802D01*
X109315630Y-117920802D01*
X109571416Y-117862420D01*
X109815643Y-117766568D01*
X110042857Y-117635386D01*
X110247981Y-117471805D01*
X110426433Y-117279479D01*
X110574228Y-117062704D01*
X110688063Y-116826323D01*
X110765396Y-116575615D01*
X110804500Y-116316182D01*
X110804500Y-116053818D01*
X110765396Y-115794385D01*
X110688063Y-115543677D01*
X110676121Y-115518880D01*
X110574232Y-115307303D01*
X110574231Y-115307302D01*
X110574230Y-115307301D01*
X110574228Y-115307296D01*
X110426433Y-115090521D01*
X110416441Y-115079753D01*
X110247985Y-114898198D01*
X110208533Y-114866736D01*
X110042857Y-114734614D01*
X109815643Y-114603432D01*
X109571416Y-114507580D01*
X109571411Y-114507578D01*
X109571402Y-114507576D01*
X109353818Y-114457914D01*
X109315630Y-114449198D01*
X109315629Y-114449197D01*
X109315625Y-114449197D01*
X109315620Y-114449196D01*
X109119515Y-114434500D01*
X109119494Y-114434500D01*
X108988506Y-114434500D01*
X108988484Y-114434500D01*
X108792379Y-114449196D01*
X108792374Y-114449197D01*
X108536597Y-114507576D01*
X108536578Y-114507582D01*
X108292356Y-114603432D01*
X108065143Y-114734614D01*
X107860014Y-114898198D01*
X107681567Y-115090520D01*
X107533768Y-115307302D01*
X107533767Y-115307303D01*
X107419938Y-115543673D01*
X107342606Y-115794376D01*
X107342605Y-115794381D01*
X107342604Y-115794385D01*
X107327853Y-115892247D01*
X107303500Y-116053812D01*
X107303500Y-116316187D01*
X86294499Y-116316187D01*
X86294500Y-116316182D01*
X86294500Y-116053818D01*
X86255396Y-115794385D01*
X86178063Y-115543677D01*
X86166121Y-115518880D01*
X86064232Y-115307303D01*
X86064231Y-115307302D01*
X86064230Y-115307301D01*
X86064228Y-115307296D01*
X85916433Y-115090521D01*
X85906441Y-115079753D01*
X85737985Y-114898198D01*
X85698533Y-114866736D01*
X85532857Y-114734614D01*
X85305643Y-114603432D01*
X85061416Y-114507580D01*
X85061411Y-114507578D01*
X85061402Y-114507576D01*
X84843818Y-114457914D01*
X84805630Y-114449198D01*
X84805629Y-114449197D01*
X84805625Y-114449197D01*
X84805620Y-114449196D01*
X84609515Y-114434500D01*
X84609494Y-114434500D01*
X84478506Y-114434500D01*
X84478484Y-114434500D01*
X84282379Y-114449196D01*
X84282374Y-114449197D01*
X84026597Y-114507576D01*
X84026578Y-114507582D01*
X83782356Y-114603432D01*
X83555143Y-114734614D01*
X83350014Y-114898198D01*
X83171567Y-115090520D01*
X83023768Y-115307302D01*
X83023767Y-115307303D01*
X82909938Y-115543673D01*
X82832606Y-115794376D01*
X82832605Y-115794381D01*
X82832604Y-115794385D01*
X82817853Y-115892247D01*
X82793500Y-116053812D01*
X82793500Y-116316187D01*
X46990000Y-116316187D01*
X46990000Y-111505995D01*
X104658658Y-111505995D01*
X104658659Y-111506003D01*
X104660099Y-111520630D01*
X104660537Y-111539053D01*
X104659631Y-111556936D01*
X104668095Y-111612193D01*
X104670703Y-111629214D01*
X104671119Y-111632524D01*
X104677975Y-111702131D01*
X104683282Y-111719626D01*
X104687189Y-111736831D01*
X104690443Y-111758068D01*
X104690445Y-111758075D01*
X104714670Y-111823483D01*
X104715860Y-111827019D01*
X104735186Y-111890728D01*
X104747478Y-111913724D01*
X104750943Y-111921426D01*
X104755832Y-111934627D01*
X104761114Y-111948887D01*
X104761115Y-111948888D01*
X104761116Y-111948892D01*
X104785364Y-111987793D01*
X104796243Y-112005247D01*
X104798299Y-112008806D01*
X104828090Y-112064538D01*
X104846776Y-112087308D01*
X104851469Y-112093850D01*
X104868748Y-112121571D01*
X104912194Y-112167276D01*
X104915172Y-112170647D01*
X104953117Y-112216883D01*
X104978502Y-112237717D01*
X104984093Y-112242914D01*
X105008941Y-112269053D01*
X105057918Y-112303143D01*
X105061810Y-112306086D01*
X105105462Y-112341910D01*
X105137399Y-112358980D01*
X105143585Y-112362767D01*
X105163563Y-112376673D01*
X105175950Y-112385295D01*
X105175952Y-112385296D01*
X105227683Y-112407495D01*
X105232446Y-112409784D01*
X105279273Y-112434814D01*
X105317166Y-112446308D01*
X105323599Y-112448656D01*
X105362942Y-112465540D01*
X105414776Y-112476192D01*
X105420296Y-112477593D01*
X105467868Y-112492024D01*
X105510644Y-112496236D01*
X105517026Y-112497204D01*
X105531700Y-112500219D01*
X105562256Y-112506500D01*
X105562259Y-112506500D01*
X105611800Y-112506500D01*
X105617881Y-112506799D01*
X105627930Y-112507788D01*
X105664000Y-112511341D01*
X105700069Y-112507788D01*
X105710119Y-112506799D01*
X105716200Y-112506500D01*
X115810507Y-112506500D01*
X115812069Y-112506519D01*
X115849283Y-112507462D01*
X115900358Y-112508757D01*
X115900358Y-112508756D01*
X115900363Y-112508757D01*
X115960753Y-112497932D01*
X115965412Y-112497280D01*
X116007607Y-112492988D01*
X116026438Y-112491074D01*
X116059227Y-112480786D01*
X116066840Y-112478918D01*
X116100653Y-112472858D01*
X116157621Y-112450101D01*
X116162053Y-112448524D01*
X116220588Y-112430159D01*
X116250627Y-112413484D01*
X116257708Y-112410122D01*
X116289617Y-112397377D01*
X116340854Y-112363608D01*
X116344851Y-112361187D01*
X116398502Y-112331409D01*
X116424568Y-112309030D01*
X116430843Y-112304300D01*
X116459519Y-112285402D01*
X116502917Y-112242002D01*
X116506336Y-112238834D01*
X116552895Y-112198866D01*
X116573931Y-112171688D01*
X116579101Y-112165818D01*
X122364001Y-106380918D01*
X122365014Y-106379931D01*
X122429053Y-106319059D01*
X122464112Y-106268686D01*
X122466925Y-106264957D01*
X122505698Y-106217407D01*
X122521607Y-106186948D01*
X122525667Y-106180248D01*
X122545295Y-106152049D01*
X122569492Y-106095660D01*
X122571498Y-106091435D01*
X122599909Y-106037049D01*
X122609360Y-106004015D01*
X122611991Y-105996628D01*
X122613219Y-105993767D01*
X122625540Y-105965058D01*
X122637893Y-105904940D01*
X122639006Y-105900412D01*
X122655887Y-105841418D01*
X122658495Y-105807155D01*
X122659587Y-105799376D01*
X122666500Y-105765739D01*
X122666500Y-105704401D01*
X122666679Y-105699692D01*
X122671337Y-105638525D01*
X122670843Y-105634649D01*
X122668850Y-105618994D01*
X122666997Y-105604441D01*
X122666500Y-105596602D01*
X122666500Y-103176200D01*
X122666799Y-103170119D01*
X122669272Y-103145005D01*
X122671341Y-103124000D01*
X122666806Y-103077961D01*
X122666589Y-103075034D01*
X122666500Y-103073283D01*
X122666500Y-103073258D01*
X122661525Y-103024336D01*
X122652024Y-102927868D01*
X122652022Y-102927863D01*
X122652022Y-102927858D01*
X122651967Y-102927579D01*
X122651093Y-102921751D01*
X122651074Y-102921562D01*
X122622034Y-102829007D01*
X122594814Y-102739273D01*
X122594810Y-102739266D01*
X122592021Y-102732532D01*
X122590174Y-102727448D01*
X122590160Y-102727417D01*
X122590159Y-102727412D01*
X122544612Y-102645351D01*
X122541388Y-102639320D01*
X122501913Y-102565468D01*
X122501910Y-102565462D01*
X122501904Y-102565455D01*
X122498527Y-102560400D01*
X122498729Y-102560264D01*
X122491522Y-102549661D01*
X122491411Y-102549501D01*
X122491410Y-102549499D01*
X122491409Y-102549498D01*
X122476030Y-102531584D01*
X122432773Y-102481194D01*
X122431890Y-102480142D01*
X122397714Y-102438500D01*
X122376883Y-102413117D01*
X122376880Y-102413114D01*
X122376878Y-102413112D01*
X122376606Y-102412889D01*
X122361185Y-102397806D01*
X122358866Y-102395104D01*
X122358864Y-102395103D01*
X122290358Y-102342075D01*
X122288977Y-102340974D01*
X122224539Y-102288090D01*
X122224536Y-102288089D01*
X122221064Y-102286233D01*
X122203607Y-102274925D01*
X122197959Y-102270553D01*
X122197958Y-102270552D01*
X122161358Y-102252599D01*
X122123220Y-102233891D01*
X122121298Y-102232907D01*
X122050723Y-102195184D01*
X122043521Y-102193000D01*
X122024909Y-102185667D01*
X122020427Y-102183469D01*
X122015270Y-102180939D01*
X121974731Y-102170443D01*
X121937922Y-102160912D01*
X121935496Y-102160230D01*
X121862132Y-102137976D01*
X121851054Y-102136884D01*
X121832149Y-102133526D01*
X121818285Y-102129937D01*
X121741875Y-102126060D01*
X121738941Y-102125841D01*
X121666003Y-102118659D01*
X121665996Y-102118659D01*
X121651369Y-102120099D01*
X121632945Y-102120537D01*
X121615068Y-102119631D01*
X121615058Y-102119631D01*
X121542784Y-102130703D01*
X121539474Y-102131119D01*
X121469872Y-102137975D01*
X121469866Y-102137976D01*
X121452367Y-102143284D01*
X121435163Y-102147190D01*
X121413932Y-102150443D01*
X121413921Y-102150446D01*
X121348510Y-102174672D01*
X121344975Y-102175862D01*
X121281276Y-102195184D01*
X121281272Y-102195186D01*
X121258275Y-102207478D01*
X121250576Y-102210942D01*
X121223113Y-102221114D01*
X121223109Y-102221116D01*
X121166751Y-102256243D01*
X121163195Y-102258298D01*
X121132091Y-102274925D01*
X121107467Y-102288087D01*
X121107454Y-102288095D01*
X121090737Y-102301815D01*
X121084689Y-102306777D01*
X121078154Y-102311466D01*
X121050429Y-102328747D01*
X121050427Y-102328749D01*
X121004732Y-102372184D01*
X121001349Y-102375173D01*
X120955114Y-102413118D01*
X120934282Y-102438500D01*
X120929071Y-102444105D01*
X120902947Y-102468939D01*
X120868866Y-102517905D01*
X120865905Y-102521818D01*
X120830092Y-102565457D01*
X120830089Y-102565463D01*
X120813018Y-102597399D01*
X120809225Y-102603593D01*
X120786706Y-102635948D01*
X120786705Y-102635950D01*
X120764504Y-102687680D01*
X120762209Y-102692456D01*
X120737186Y-102739272D01*
X120737184Y-102739276D01*
X120729458Y-102764746D01*
X120725692Y-102777159D01*
X120723339Y-102783607D01*
X120706461Y-102822937D01*
X120695806Y-102874778D01*
X120694406Y-102880294D01*
X120679975Y-102927870D01*
X120675763Y-102970632D01*
X120674792Y-102977038D01*
X120665500Y-103022257D01*
X120665500Y-103071798D01*
X120665201Y-103077878D01*
X120660659Y-103123999D01*
X120660659Y-103124003D01*
X120665200Y-103170121D01*
X120665499Y-103176201D01*
X120665500Y-105198217D01*
X120645815Y-105265256D01*
X120629181Y-105285898D01*
X115445899Y-110469181D01*
X115384576Y-110502666D01*
X115358218Y-110505500D01*
X105716200Y-110505500D01*
X105710119Y-110505201D01*
X105664000Y-110500659D01*
X105618001Y-110505189D01*
X105615062Y-110505408D01*
X105613257Y-110505499D01*
X105564388Y-110510468D01*
X105467859Y-110519976D01*
X105467558Y-110520037D01*
X105461767Y-110520904D01*
X105461576Y-110520923D01*
X105461554Y-110520927D01*
X105393667Y-110542227D01*
X105369007Y-110549965D01*
X105314403Y-110566529D01*
X105279265Y-110577188D01*
X105272515Y-110579984D01*
X105267460Y-110581820D01*
X105267405Y-110581844D01*
X105185327Y-110627400D01*
X105105464Y-110670088D01*
X105100402Y-110673471D01*
X105100268Y-110673270D01*
X105089566Y-110680542D01*
X105089498Y-110680590D01*
X105021212Y-110739211D01*
X105020160Y-110740094D01*
X104953119Y-110795113D01*
X104953109Y-110795123D01*
X104952864Y-110795423D01*
X104937821Y-110810801D01*
X104935111Y-110813128D01*
X104935107Y-110813132D01*
X104935105Y-110813134D01*
X104882074Y-110881642D01*
X104880995Y-110882996D01*
X104828093Y-110947456D01*
X104828085Y-110947469D01*
X104826224Y-110950951D01*
X104814937Y-110968374D01*
X104810555Y-110974035D01*
X104810553Y-110974038D01*
X104773880Y-111048802D01*
X104772895Y-111050724D01*
X104735185Y-111121273D01*
X104735185Y-111121274D01*
X104732998Y-111128483D01*
X104725672Y-111147079D01*
X104720943Y-111156721D01*
X104720939Y-111156731D01*
X104700920Y-111234045D01*
X104700230Y-111236501D01*
X104677976Y-111309866D01*
X104676885Y-111320938D01*
X104673527Y-111339848D01*
X104669937Y-111353715D01*
X104666060Y-111430123D01*
X104665841Y-111433057D01*
X104658658Y-111505995D01*
X46990000Y-111505995D01*
X46990000Y-104021844D01*
X71802000Y-104021844D01*
X71808401Y-104081372D01*
X71808403Y-104081379D01*
X71858645Y-104216086D01*
X71858649Y-104216093D01*
X71944809Y-104331187D01*
X71944812Y-104331190D01*
X72059906Y-104417350D01*
X72059913Y-104417354D01*
X72194620Y-104467596D01*
X72194627Y-104467598D01*
X72254155Y-104473999D01*
X72254172Y-104474000D01*
X72902000Y-104474000D01*
X72902000Y-103559501D01*
X73009685Y-103608680D01*
X73116237Y-103624000D01*
X73187763Y-103624000D01*
X73294315Y-103608680D01*
X73402000Y-103559501D01*
X73402000Y-104474000D01*
X74049828Y-104474000D01*
X74049844Y-104473999D01*
X74109372Y-104467598D01*
X74109379Y-104467596D01*
X74244086Y-104417354D01*
X74244093Y-104417350D01*
X74359187Y-104331190D01*
X74359190Y-104331187D01*
X74445350Y-104216093D01*
X74445354Y-104216086D01*
X74494422Y-104084529D01*
X74536293Y-104028595D01*
X74601757Y-104004178D01*
X74670030Y-104019030D01*
X74698284Y-104040180D01*
X74820599Y-104162495D01*
X74823487Y-104164517D01*
X75014165Y-104298032D01*
X75014167Y-104298033D01*
X75014170Y-104298035D01*
X75228337Y-104397903D01*
X75228343Y-104397904D01*
X75228344Y-104397905D01*
X75283285Y-104412626D01*
X75456592Y-104459063D01*
X75627319Y-104474000D01*
X75691999Y-104479659D01*
X75692000Y-104479659D01*
X75692001Y-104479659D01*
X75756681Y-104474000D01*
X75927408Y-104459063D01*
X76155663Y-104397903D01*
X76369830Y-104298035D01*
X76563401Y-104162495D01*
X76565077Y-104160819D01*
X76565995Y-104160317D01*
X76567544Y-104159018D01*
X76567805Y-104159329D01*
X76626400Y-104127334D01*
X76652758Y-104124500D01*
X82881813Y-104124500D01*
X82948852Y-104144185D01*
X82973042Y-104164517D01*
X83054252Y-104252734D01*
X83054262Y-104252743D01*
X83157743Y-104333286D01*
X83198556Y-104389996D01*
X83205343Y-104438823D01*
X83203941Y-104461389D01*
X83932634Y-105190081D01*
X83928839Y-105190627D01*
X83795438Y-105251549D01*
X83684605Y-105347587D01*
X83605318Y-105470960D01*
X83582867Y-105547419D01*
X82850564Y-104815116D01*
X82750267Y-104968632D01*
X82650412Y-105196282D01*
X82589387Y-105437261D01*
X82589385Y-105437270D01*
X82568858Y-105684994D01*
X82568858Y-105685005D01*
X82589385Y-105932729D01*
X82589387Y-105932738D01*
X82650412Y-106173717D01*
X82750266Y-106401364D01*
X82850564Y-106554882D01*
X83582866Y-105822580D01*
X83605318Y-105899040D01*
X83684605Y-106022413D01*
X83795438Y-106118451D01*
X83928839Y-106179373D01*
X83932634Y-106179918D01*
X83203942Y-106908609D01*
X83205343Y-106931177D01*
X83189850Y-106999307D01*
X83157744Y-107036713D01*
X83054258Y-107117260D01*
X83054256Y-107117261D01*
X83054256Y-107117262D01*
X83047570Y-107124525D01*
X82885833Y-107300217D01*
X82749826Y-107508393D01*
X82649936Y-107736118D01*
X82588892Y-107977175D01*
X82588890Y-107977187D01*
X82568357Y-108224994D01*
X82568357Y-108225005D01*
X82588890Y-108472812D01*
X82588892Y-108472824D01*
X82649936Y-108713881D01*
X82749826Y-108941606D01*
X82885833Y-109149782D01*
X82885836Y-109149785D01*
X83054256Y-109332738D01*
X83250491Y-109485474D01*
X83469190Y-109603828D01*
X83704386Y-109684571D01*
X83949665Y-109725500D01*
X84198335Y-109725500D01*
X84443614Y-109684571D01*
X84678810Y-109603828D01*
X84897509Y-109485474D01*
X85093744Y-109332738D01*
X85262164Y-109149785D01*
X85398173Y-108941607D01*
X85498063Y-108713881D01*
X85559108Y-108472821D01*
X85579643Y-108225000D01*
X85559108Y-107977179D01*
X85498063Y-107736119D01*
X85398173Y-107508393D01*
X85326532Y-107398738D01*
X85262166Y-107300217D01*
X85192463Y-107224500D01*
X85093744Y-107117262D01*
X84990253Y-107036712D01*
X84949442Y-106980003D01*
X84942655Y-106931176D01*
X84944056Y-106908609D01*
X84215365Y-106179918D01*
X84219161Y-106179373D01*
X84352562Y-106118451D01*
X84463395Y-106022413D01*
X84542682Y-105899040D01*
X84565132Y-105822580D01*
X85297434Y-106554882D01*
X85397731Y-106401369D01*
X85497587Y-106173717D01*
X85558612Y-105932738D01*
X85558614Y-105932729D01*
X85579141Y-105685005D01*
X85579141Y-105684994D01*
X85558614Y-105437270D01*
X85558612Y-105437261D01*
X85497587Y-105196282D01*
X85397731Y-104968630D01*
X85297434Y-104815116D01*
X84565132Y-105547418D01*
X84542682Y-105470960D01*
X84463395Y-105347587D01*
X84352562Y-105251549D01*
X84219161Y-105190627D01*
X84215363Y-105190081D01*
X84944056Y-104461389D01*
X84942655Y-104438823D01*
X84958148Y-104370693D01*
X84990250Y-104333290D01*
X85093744Y-104252738D01*
X85127478Y-104216093D01*
X85155626Y-104185517D01*
X85215513Y-104149526D01*
X85246855Y-104145500D01*
X88865507Y-104145500D01*
X88867069Y-104145519D01*
X88904283Y-104146462D01*
X88955358Y-104147757D01*
X88955358Y-104147756D01*
X88955363Y-104147757D01*
X89015753Y-104136932D01*
X89020412Y-104136280D01*
X89062607Y-104131988D01*
X89081438Y-104130074D01*
X89114227Y-104119786D01*
X89121840Y-104117918D01*
X89155653Y-104111858D01*
X89212621Y-104089101D01*
X89217053Y-104087524D01*
X89226599Y-104084529D01*
X89275588Y-104069159D01*
X89305627Y-104052484D01*
X89312708Y-104049122D01*
X89344617Y-104036377D01*
X89395854Y-104002608D01*
X89399851Y-104000187D01*
X89453502Y-103970409D01*
X89479568Y-103948030D01*
X89485843Y-103943300D01*
X89514519Y-103924402D01*
X89557892Y-103881027D01*
X89561350Y-103877823D01*
X89564613Y-103875020D01*
X89607895Y-103837866D01*
X89628928Y-103810691D01*
X89634098Y-103804821D01*
X93850100Y-99588819D01*
X93911424Y-99555334D01*
X93937782Y-99552500D01*
X94880412Y-99552500D01*
X94947451Y-99572185D01*
X94951523Y-99574917D01*
X95105266Y-99682568D01*
X95311504Y-99778739D01*
X95531308Y-99837635D01*
X95693230Y-99851801D01*
X95757998Y-99857468D01*
X95758000Y-99857468D01*
X95758002Y-99857468D01*
X95814672Y-99852509D01*
X95984692Y-99837635D01*
X96204496Y-99778739D01*
X96410734Y-99682568D01*
X96597139Y-99552047D01*
X96758047Y-99391139D01*
X96888568Y-99204734D01*
X96984739Y-98998496D01*
X97043635Y-98778692D01*
X97060634Y-98584384D01*
X97063468Y-98552001D01*
X97063468Y-98551998D01*
X97057801Y-98487230D01*
X97043635Y-98325308D01*
X96984739Y-98105504D01*
X96888568Y-97899266D01*
X96758047Y-97712861D01*
X96758045Y-97712858D01*
X96597141Y-97551954D01*
X96410734Y-97421432D01*
X96410732Y-97421431D01*
X96204497Y-97325261D01*
X96204488Y-97325258D01*
X95984697Y-97266366D01*
X95984693Y-97266365D01*
X95984692Y-97266365D01*
X95984691Y-97266364D01*
X95984686Y-97266364D01*
X95758002Y-97246532D01*
X95757998Y-97246532D01*
X95531313Y-97266364D01*
X95531302Y-97266366D01*
X95311511Y-97325258D01*
X95311502Y-97325261D01*
X95105267Y-97421431D01*
X95105265Y-97421432D01*
X95030439Y-97473826D01*
X94953396Y-97527772D01*
X94951535Y-97529075D01*
X94885329Y-97551402D01*
X94880412Y-97551500D01*
X93485493Y-97551500D01*
X93483931Y-97551480D01*
X93467883Y-97551073D01*
X93391949Y-97549149D01*
X93325430Y-97527772D01*
X93281028Y-97473826D01*
X93272840Y-97404438D01*
X93303465Y-97341638D01*
X93307380Y-97337538D01*
X93850100Y-96794819D01*
X93911424Y-96761334D01*
X93937782Y-96758500D01*
X98340217Y-96758500D01*
X98407256Y-96778185D01*
X98427898Y-96794819D01*
X99262963Y-97629884D01*
X99296448Y-97691207D01*
X99291464Y-97760899D01*
X99276858Y-97788687D01*
X99199431Y-97899267D01*
X99103261Y-98105502D01*
X99103258Y-98105511D01*
X99044366Y-98325302D01*
X99044364Y-98325313D01*
X99024532Y-98551998D01*
X99024532Y-98552001D01*
X99044364Y-98778686D01*
X99044366Y-98778697D01*
X99103258Y-98998488D01*
X99103261Y-98998497D01*
X99199431Y-99204732D01*
X99199432Y-99204734D01*
X99329954Y-99391141D01*
X99490858Y-99552045D01*
X99490861Y-99552047D01*
X99677266Y-99682568D01*
X99883504Y-99778739D01*
X100103308Y-99837635D01*
X100265230Y-99851801D01*
X100329998Y-99857468D01*
X100330000Y-99857468D01*
X100330002Y-99857468D01*
X100386672Y-99852509D01*
X100556692Y-99837635D01*
X100776496Y-99778739D01*
X100982734Y-99682568D01*
X101169139Y-99552047D01*
X101330047Y-99391139D01*
X101460568Y-99204734D01*
X101556739Y-98998496D01*
X101615635Y-98778692D01*
X101632634Y-98584384D01*
X101635468Y-98552001D01*
X101635468Y-98551998D01*
X101629801Y-98487230D01*
X101615635Y-98325308D01*
X101556739Y-98105504D01*
X101460568Y-97899266D01*
X101352924Y-97745532D01*
X101330597Y-97679326D01*
X101330500Y-97674410D01*
X101330500Y-97295451D01*
X101330520Y-97293881D01*
X101332756Y-97205642D01*
X101332755Y-97205641D01*
X101332756Y-97205636D01*
X101321929Y-97145233D01*
X101321282Y-97140620D01*
X101315074Y-97079562D01*
X101315073Y-97079560D01*
X101315073Y-97079557D01*
X101304790Y-97046787D01*
X101302917Y-97039154D01*
X101296858Y-97005348D01*
X101274102Y-96948378D01*
X101272521Y-96943937D01*
X101263298Y-96914540D01*
X101254159Y-96885412D01*
X101254158Y-96885410D01*
X101254157Y-96885407D01*
X101243771Y-96866696D01*
X101237485Y-96855371D01*
X101234117Y-96848278D01*
X101221378Y-96816386D01*
X101221377Y-96816383D01*
X101187620Y-96765163D01*
X101185180Y-96761134D01*
X101163948Y-96722883D01*
X101155409Y-96707498D01*
X101155407Y-96707495D01*
X101133033Y-96681434D01*
X101128302Y-96675159D01*
X101126095Y-96671810D01*
X101109402Y-96646481D01*
X101066012Y-96603091D01*
X101062822Y-96599648D01*
X101022867Y-96553106D01*
X101022863Y-96553102D01*
X100995698Y-96532074D01*
X100989811Y-96526890D01*
X99523010Y-95060090D01*
X99521914Y-95058966D01*
X99461061Y-94994949D01*
X99461060Y-94994948D01*
X99461059Y-94994947D01*
X99432660Y-94975181D01*
X99410709Y-94959902D01*
X99406946Y-94957064D01*
X99359413Y-94918305D01*
X99359406Y-94918300D01*
X99328959Y-94902397D01*
X99322251Y-94898334D01*
X99294049Y-94878705D01*
X99294046Y-94878703D01*
X99294045Y-94878703D01*
X99294041Y-94878701D01*
X99237680Y-94854514D01*
X99233424Y-94852493D01*
X99179057Y-94824094D01*
X99179050Y-94824091D01*
X99179049Y-94824091D01*
X99173008Y-94822362D01*
X99146030Y-94814642D01*
X99138630Y-94812008D01*
X99107057Y-94798459D01*
X99107058Y-94798459D01*
X99046966Y-94786109D01*
X99042391Y-94784986D01*
X98983420Y-94768113D01*
X98983425Y-94768113D01*
X98949158Y-94765503D01*
X98941380Y-94764412D01*
X98907742Y-94757500D01*
X98907741Y-94757500D01*
X98846402Y-94757500D01*
X98841695Y-94757321D01*
X98836121Y-94756896D01*
X98780524Y-94752662D01*
X98760589Y-94755201D01*
X98746440Y-94757003D01*
X98738611Y-94757500D01*
X93485476Y-94757500D01*
X93483914Y-94757480D01*
X93474556Y-94757242D01*
X93395638Y-94755242D01*
X93395635Y-94755242D01*
X93344476Y-94764412D01*
X93335254Y-94766064D01*
X93330595Y-94766718D01*
X93269564Y-94772925D01*
X93269562Y-94772926D01*
X93236780Y-94783210D01*
X93229156Y-94785081D01*
X93226057Y-94785637D01*
X93195349Y-94791141D01*
X93138381Y-94813895D01*
X93133945Y-94815474D01*
X93075414Y-94833840D01*
X93075410Y-94833842D01*
X93045378Y-94850510D01*
X93038284Y-94853879D01*
X93006382Y-94866623D01*
X93006377Y-94866625D01*
X92955156Y-94900381D01*
X92951128Y-94902822D01*
X92897501Y-94932588D01*
X92871434Y-94954965D01*
X92865165Y-94959692D01*
X92836484Y-94978595D01*
X92836478Y-94978600D01*
X92793109Y-95021968D01*
X92789655Y-95025169D01*
X92743102Y-95065136D01*
X92722076Y-95092298D01*
X92716885Y-95098192D01*
X88246899Y-99568181D01*
X88185576Y-99601666D01*
X88159218Y-99604500D01*
X85246855Y-99604500D01*
X85179816Y-99584815D01*
X85155626Y-99564483D01*
X85093747Y-99497265D01*
X85093744Y-99497262D01*
X85093744Y-99497261D01*
X85010991Y-99432852D01*
X84970179Y-99376143D01*
X84966504Y-99306370D01*
X85001136Y-99245687D01*
X85010985Y-99237151D01*
X85093744Y-99172738D01*
X85118194Y-99146177D01*
X85155626Y-99105517D01*
X85215513Y-99069526D01*
X85246855Y-99065500D01*
X87341507Y-99065500D01*
X87343069Y-99065519D01*
X87380283Y-99066462D01*
X87431358Y-99067757D01*
X87431358Y-99067756D01*
X87431363Y-99067757D01*
X87491753Y-99056932D01*
X87496412Y-99056280D01*
X87538607Y-99051988D01*
X87557438Y-99050074D01*
X87590227Y-99039786D01*
X87597840Y-99037918D01*
X87631653Y-99031858D01*
X87688621Y-99009101D01*
X87693053Y-99007524D01*
X87751588Y-98989159D01*
X87781627Y-98972484D01*
X87788708Y-98969122D01*
X87820617Y-98956377D01*
X87871854Y-98922608D01*
X87875851Y-98920187D01*
X87929502Y-98890409D01*
X87955568Y-98868030D01*
X87961843Y-98863300D01*
X87990519Y-98844402D01*
X88033885Y-98801034D01*
X88037343Y-98797830D01*
X88065971Y-98773252D01*
X88083895Y-98757866D01*
X88104928Y-98730691D01*
X88110098Y-98724821D01*
X88509309Y-98325609D01*
X88509314Y-98325606D01*
X88519517Y-98315402D01*
X88519519Y-98315402D01*
X92580101Y-94254818D01*
X92641424Y-94221334D01*
X92667782Y-94218500D01*
X93116259Y-94218500D01*
X100118217Y-94218500D01*
X100185256Y-94238185D01*
X100205898Y-94254819D01*
X103866255Y-97915175D01*
X103866276Y-97915198D01*
X104627180Y-98676101D01*
X104660665Y-98737424D01*
X104663499Y-98763782D01*
X104663500Y-104800259D01*
X104663500Y-105103798D01*
X104663201Y-105109878D01*
X104658659Y-105155999D01*
X104658659Y-105156000D01*
X104663189Y-105201999D01*
X104663408Y-105204938D01*
X104663499Y-105206739D01*
X104668434Y-105255276D01*
X104668371Y-105255282D01*
X104668473Y-105255661D01*
X104668474Y-105255663D01*
X104677528Y-105347587D01*
X104677976Y-105352130D01*
X104678034Y-105352419D01*
X104678904Y-105358228D01*
X104678924Y-105358429D01*
X104678927Y-105358441D01*
X104707938Y-105450906D01*
X104735184Y-105540722D01*
X104737980Y-105547473D01*
X104739816Y-105552528D01*
X104739841Y-105552588D01*
X104785387Y-105634649D01*
X104811016Y-105682595D01*
X104828089Y-105714537D01*
X104831474Y-105719602D01*
X104831271Y-105719737D01*
X104838454Y-105730304D01*
X104838588Y-105730497D01*
X104838591Y-105730502D01*
X104838593Y-105730504D01*
X104897225Y-105798804D01*
X104898108Y-105799856D01*
X104953117Y-105866884D01*
X104953395Y-105867112D01*
X104968810Y-105882188D01*
X104971134Y-105884895D01*
X104971137Y-105884897D01*
X105039639Y-105937923D01*
X105041005Y-105939011D01*
X105105462Y-105991910D01*
X105108939Y-105993768D01*
X105126389Y-106005072D01*
X105132042Y-106009448D01*
X105157014Y-106021697D01*
X105206778Y-106046107D01*
X105208701Y-106047092D01*
X105256273Y-106072520D01*
X105279273Y-106084814D01*
X105286477Y-106086999D01*
X105305093Y-106094333D01*
X105314729Y-106099060D01*
X105392088Y-106119089D01*
X105394484Y-106119763D01*
X105467868Y-106142024D01*
X105476956Y-106142918D01*
X105478926Y-106143113D01*
X105497854Y-106146474D01*
X105511711Y-106150062D01*
X105511715Y-106150063D01*
X105588133Y-106153938D01*
X105591034Y-106154154D01*
X105664000Y-106161341D01*
X105678630Y-106159899D01*
X105697056Y-106159462D01*
X105714936Y-106160369D01*
X105787253Y-106149289D01*
X105790525Y-106148879D01*
X105860132Y-106142024D01*
X105877632Y-106136714D01*
X105894837Y-106132808D01*
X105916071Y-106129556D01*
X105981515Y-106105317D01*
X105985019Y-106104138D01*
X106048727Y-106084814D01*
X106071730Y-106072517D01*
X106079421Y-106069057D01*
X106106887Y-106058886D01*
X106106891Y-106058883D01*
X106106894Y-106058882D01*
X106163238Y-106023762D01*
X106166801Y-106021701D01*
X106222538Y-105991910D01*
X106245310Y-105973220D01*
X106251840Y-105968535D01*
X106279571Y-105951252D01*
X106325288Y-105907793D01*
X106328631Y-105904839D01*
X106374883Y-105866883D01*
X106395717Y-105841495D01*
X106400915Y-105835904D01*
X106427053Y-105811059D01*
X106461143Y-105762079D01*
X106464088Y-105758185D01*
X106499910Y-105714538D01*
X106516989Y-105682582D01*
X106520770Y-105676410D01*
X106543295Y-105644049D01*
X106565504Y-105592293D01*
X106567783Y-105587554D01*
X106592814Y-105540727D01*
X106604309Y-105502828D01*
X106606656Y-105496398D01*
X106623540Y-105457058D01*
X106634196Y-105405201D01*
X106635587Y-105399723D01*
X106650024Y-105352132D01*
X106654237Y-105309345D01*
X106655202Y-105302982D01*
X106664500Y-105257741D01*
X106664500Y-105208200D01*
X106664799Y-105202119D01*
X106669341Y-105155999D01*
X106664799Y-105109878D01*
X106664500Y-105103798D01*
X106664500Y-98311491D01*
X106664520Y-98309921D01*
X106666757Y-98221641D01*
X106666756Y-98221640D01*
X106666757Y-98221637D01*
X106655933Y-98161249D01*
X106655280Y-98156587D01*
X106649074Y-98095563D01*
X106649074Y-98095562D01*
X106638784Y-98062768D01*
X106636917Y-98055155D01*
X106630858Y-98021347D01*
X106630857Y-98021345D01*
X106608102Y-97964379D01*
X106606521Y-97959938D01*
X106593212Y-97917519D01*
X106588159Y-97901412D01*
X106588158Y-97901410D01*
X106588157Y-97901407D01*
X106571488Y-97871378D01*
X106568117Y-97864278D01*
X106555378Y-97832386D01*
X106555377Y-97832383D01*
X106521620Y-97781163D01*
X106519180Y-97777134D01*
X106501639Y-97745532D01*
X106489409Y-97723498D01*
X106469756Y-97700605D01*
X106467033Y-97697433D01*
X106462301Y-97691158D01*
X106443402Y-97662481D01*
X106400013Y-97619093D01*
X106396823Y-97615650D01*
X106362886Y-97576118D01*
X106356866Y-97569105D01*
X106354051Y-97566926D01*
X106329698Y-97548074D01*
X106323811Y-97542890D01*
X105434471Y-96653551D01*
X105434470Y-96653549D01*
X101301012Y-92520092D01*
X101299915Y-92518967D01*
X101239061Y-92454949D01*
X101239060Y-92454948D01*
X101239059Y-92454947D01*
X101203968Y-92430523D01*
X101188709Y-92419902D01*
X101184946Y-92417064D01*
X101137413Y-92378305D01*
X101137406Y-92378300D01*
X101106959Y-92362397D01*
X101100251Y-92358334D01*
X101072049Y-92338705D01*
X101072046Y-92338703D01*
X101072045Y-92338703D01*
X101072041Y-92338701D01*
X101015680Y-92314514D01*
X101011424Y-92312493D01*
X100957057Y-92284094D01*
X100957050Y-92284091D01*
X100957049Y-92284091D01*
X100951008Y-92282362D01*
X100924030Y-92274642D01*
X100916630Y-92272008D01*
X100885057Y-92258459D01*
X100885058Y-92258459D01*
X100824966Y-92246109D01*
X100820391Y-92244986D01*
X100761420Y-92228113D01*
X100761425Y-92228113D01*
X100727158Y-92225503D01*
X100719380Y-92224412D01*
X100685742Y-92217500D01*
X100685741Y-92217500D01*
X100624402Y-92217500D01*
X100619695Y-92217321D01*
X100614121Y-92216896D01*
X100558524Y-92212662D01*
X100538589Y-92215201D01*
X100524440Y-92217003D01*
X100516611Y-92217500D01*
X92215453Y-92217500D01*
X92213891Y-92217480D01*
X92125637Y-92215244D01*
X92125626Y-92215245D01*
X92065271Y-92226062D01*
X92060607Y-92226716D01*
X91999563Y-92232925D01*
X91999555Y-92232927D01*
X91966781Y-92243210D01*
X91959153Y-92245082D01*
X91925349Y-92251141D01*
X91868381Y-92273895D01*
X91863945Y-92275474D01*
X91805414Y-92293840D01*
X91805410Y-92293842D01*
X91775378Y-92310510D01*
X91768284Y-92313879D01*
X91736382Y-92326623D01*
X91736377Y-92326625D01*
X91685156Y-92360381D01*
X91681128Y-92362822D01*
X91627501Y-92392588D01*
X91601434Y-92414965D01*
X91595165Y-92419692D01*
X91566484Y-92438595D01*
X91566478Y-92438600D01*
X91523109Y-92481968D01*
X91519655Y-92485169D01*
X91473102Y-92525136D01*
X91452076Y-92552298D01*
X91446885Y-92558192D01*
X87248483Y-96756596D01*
X86976898Y-97028181D01*
X86915575Y-97061666D01*
X86889217Y-97064500D01*
X85246855Y-97064500D01*
X85179816Y-97044815D01*
X85155626Y-97024483D01*
X85093747Y-96957265D01*
X85093744Y-96957262D01*
X85082330Y-96948378D01*
X85010991Y-96892852D01*
X84970179Y-96836143D01*
X84966504Y-96766370D01*
X85001136Y-96705687D01*
X85010985Y-96697151D01*
X85093744Y-96632738D01*
X85262164Y-96449785D01*
X85398173Y-96241607D01*
X85498063Y-96013881D01*
X85559108Y-95772821D01*
X85559109Y-95772812D01*
X85579643Y-95525005D01*
X85579643Y-95524994D01*
X85559109Y-95277187D01*
X85559107Y-95277175D01*
X85498063Y-95036118D01*
X85398173Y-94808393D01*
X85262166Y-94600217D01*
X85240557Y-94576744D01*
X85093744Y-94417262D01*
X85010991Y-94352852D01*
X84970179Y-94296143D01*
X84966504Y-94226370D01*
X85001136Y-94165687D01*
X85010985Y-94157151D01*
X85093744Y-94092738D01*
X85262164Y-93909785D01*
X85398173Y-93701607D01*
X85498063Y-93473881D01*
X85559108Y-93232821D01*
X85560336Y-93218000D01*
X85579643Y-92985005D01*
X85579643Y-92984994D01*
X85559109Y-92737187D01*
X85559107Y-92737175D01*
X85498063Y-92496118D01*
X85398173Y-92268393D01*
X85262166Y-92060217D01*
X85197726Y-91990217D01*
X85093744Y-91877262D01*
X85010991Y-91812852D01*
X84970179Y-91756143D01*
X84966504Y-91686370D01*
X85001136Y-91625687D01*
X85010985Y-91617151D01*
X85093744Y-91552738D01*
X85262164Y-91369785D01*
X85398173Y-91161607D01*
X85498063Y-90933881D01*
X85559108Y-90692821D01*
X85579643Y-90445000D01*
X85559108Y-90197179D01*
X85498063Y-89956119D01*
X85398173Y-89728393D01*
X85398172Y-89728392D01*
X85262166Y-89520217D01*
X85192463Y-89444500D01*
X85093744Y-89337262D01*
X85010991Y-89272852D01*
X84970179Y-89216143D01*
X84966504Y-89146370D01*
X85001136Y-89085687D01*
X85010985Y-89077151D01*
X85093744Y-89012738D01*
X85262164Y-88829785D01*
X85398173Y-88621607D01*
X85498063Y-88393881D01*
X85559108Y-88152821D01*
X85564064Y-88093013D01*
X85579643Y-87905005D01*
X85579643Y-87904994D01*
X85559109Y-87657187D01*
X85559107Y-87657175D01*
X85498063Y-87416118D01*
X85398173Y-87188393D01*
X85262166Y-86980217D01*
X85197726Y-86910217D01*
X85093744Y-86797262D01*
X85010991Y-86732852D01*
X84970179Y-86676143D01*
X84966504Y-86606370D01*
X85001136Y-86545687D01*
X85010985Y-86537151D01*
X85093744Y-86472738D01*
X85262164Y-86289785D01*
X85398173Y-86081607D01*
X85498063Y-85853881D01*
X85559108Y-85612821D01*
X85559386Y-85609471D01*
X85579643Y-85365005D01*
X85579643Y-85364994D01*
X85559109Y-85117187D01*
X85559107Y-85117175D01*
X85498063Y-84876118D01*
X85398173Y-84648393D01*
X85262166Y-84440217D01*
X85231118Y-84406490D01*
X85093744Y-84257262D01*
X85010991Y-84192852D01*
X84970179Y-84136143D01*
X84966504Y-84066370D01*
X85001136Y-84005687D01*
X85010985Y-83997151D01*
X85093744Y-83932738D01*
X85262164Y-83749785D01*
X85398173Y-83541607D01*
X85498063Y-83313881D01*
X85559108Y-83072821D01*
X85579643Y-82825000D01*
X85559108Y-82577179D01*
X85500961Y-82347562D01*
X85498063Y-82336118D01*
X85398173Y-82108393D01*
X85262166Y-81900217D01*
X85155625Y-81784483D01*
X85093744Y-81717262D01*
X85010991Y-81652852D01*
X84970179Y-81596143D01*
X84966504Y-81526370D01*
X85001136Y-81465687D01*
X85010985Y-81457151D01*
X85093744Y-81392738D01*
X85262164Y-81209785D01*
X85398173Y-81001607D01*
X85498063Y-80773881D01*
X85559108Y-80532821D01*
X85561575Y-80503047D01*
X85579643Y-80285005D01*
X85579643Y-80284994D01*
X85559109Y-80037187D01*
X85559107Y-80037175D01*
X85498063Y-79796118D01*
X85398173Y-79568393D01*
X85262166Y-79360217D01*
X85186116Y-79277605D01*
X85093744Y-79177262D01*
X85010991Y-79112852D01*
X84970179Y-79056143D01*
X84966504Y-78986370D01*
X85001136Y-78925687D01*
X85010985Y-78917151D01*
X85093744Y-78852738D01*
X85262164Y-78669785D01*
X85398173Y-78461607D01*
X85498063Y-78233881D01*
X85559108Y-77992821D01*
X85560423Y-77976949D01*
X85579643Y-77745005D01*
X85579643Y-77744994D01*
X85559109Y-77497187D01*
X85559107Y-77497175D01*
X85498063Y-77256118D01*
X85398173Y-77028393D01*
X85262166Y-76820217D01*
X85227363Y-76782411D01*
X85093744Y-76637262D01*
X85010991Y-76572852D01*
X84970179Y-76516143D01*
X84966504Y-76446370D01*
X85001136Y-76385687D01*
X85010985Y-76377151D01*
X85093744Y-76312738D01*
X85262164Y-76129785D01*
X85398173Y-75921607D01*
X85498063Y-75693881D01*
X85559108Y-75452821D01*
X85559283Y-75450715D01*
X85579643Y-75205005D01*
X85579643Y-75204994D01*
X85559109Y-74957187D01*
X85559107Y-74957175D01*
X85498063Y-74716118D01*
X85398173Y-74488393D01*
X85262166Y-74280217D01*
X85218806Y-74233116D01*
X85093744Y-74097262D01*
X85010991Y-74032852D01*
X84970179Y-73976143D01*
X84966504Y-73906370D01*
X85001136Y-73845687D01*
X85010985Y-73837151D01*
X85093744Y-73772738D01*
X85262164Y-73589785D01*
X85398173Y-73381607D01*
X85498063Y-73153881D01*
X85559108Y-72912821D01*
X85565131Y-72840132D01*
X85579643Y-72665005D01*
X85579643Y-72664994D01*
X85559109Y-72417187D01*
X85559107Y-72417175D01*
X85498063Y-72176118D01*
X85398173Y-71948393D01*
X85262166Y-71740217D01*
X85225974Y-71700902D01*
X85093744Y-71557262D01*
X84897509Y-71404526D01*
X84897507Y-71404525D01*
X84897506Y-71404524D01*
X84678811Y-71286172D01*
X84678802Y-71286169D01*
X84505812Y-71226781D01*
X84448797Y-71186395D01*
X84422666Y-71121596D01*
X84435718Y-71052956D01*
X84483806Y-71002268D01*
X84546075Y-70985500D01*
X84609492Y-70985500D01*
X84609494Y-70985500D01*
X84609496Y-70985499D01*
X84609515Y-70985499D01*
X84805620Y-70970803D01*
X84805622Y-70970802D01*
X84805630Y-70970802D01*
X85061416Y-70912420D01*
X85305643Y-70816568D01*
X85532857Y-70685386D01*
X85737981Y-70521805D01*
X85770157Y-70487128D01*
X85804075Y-70450572D01*
X85916433Y-70329479D01*
X86064228Y-70112704D01*
X86178063Y-69876323D01*
X86255396Y-69625615D01*
X86294500Y-69366182D01*
X86294500Y-69103818D01*
X86255396Y-68844385D01*
X86178063Y-68593677D01*
X86166121Y-68568880D01*
X86064232Y-68357303D01*
X86064231Y-68357302D01*
X86064230Y-68357301D01*
X86064228Y-68357296D01*
X85916433Y-68140521D01*
X85906441Y-68129753D01*
X85737985Y-67948198D01*
X85698533Y-67916736D01*
X85532857Y-67784614D01*
X85305643Y-67653432D01*
X85061416Y-67557580D01*
X85061411Y-67557578D01*
X85061402Y-67557576D01*
X84843818Y-67507914D01*
X84805630Y-67499198D01*
X84805629Y-67499197D01*
X84805625Y-67499197D01*
X84805620Y-67499196D01*
X84609515Y-67484500D01*
X84609494Y-67484500D01*
X84478506Y-67484500D01*
X84478484Y-67484500D01*
X84282379Y-67499196D01*
X84282374Y-67499197D01*
X84026597Y-67557576D01*
X84026578Y-67557582D01*
X83782356Y-67653432D01*
X83555143Y-67784614D01*
X83350014Y-67948198D01*
X83171567Y-68140520D01*
X83023768Y-68357302D01*
X83023767Y-68357303D01*
X82909938Y-68593673D01*
X82832606Y-68844376D01*
X82832605Y-68844381D01*
X82832604Y-68844385D01*
X82817853Y-68942247D01*
X82793500Y-69103812D01*
X82793500Y-69366187D01*
X82813794Y-69500823D01*
X82832604Y-69625615D01*
X82832605Y-69625617D01*
X82832606Y-69625623D01*
X82879018Y-69776085D01*
X82909666Y-69875446D01*
X82909938Y-69876326D01*
X83023767Y-70112696D01*
X83023768Y-70112697D01*
X83023770Y-70112700D01*
X83023772Y-70112704D01*
X83138907Y-70281576D01*
X83171567Y-70329479D01*
X83350014Y-70521801D01*
X83350018Y-70521804D01*
X83350019Y-70521805D01*
X83555143Y-70685386D01*
X83782357Y-70816568D01*
X84026584Y-70912420D01*
X84026596Y-70912422D01*
X84026597Y-70912423D01*
X84058079Y-70919609D01*
X84119058Y-70953717D01*
X84151916Y-71015379D01*
X84146221Y-71085016D01*
X84103781Y-71140520D01*
X84038071Y-71164268D01*
X84030487Y-71164500D01*
X83949665Y-71164500D01*
X83704383Y-71205429D01*
X83469197Y-71286169D01*
X83469188Y-71286172D01*
X83250493Y-71404524D01*
X83054257Y-71557261D01*
X82885833Y-71740217D01*
X82749826Y-71948393D01*
X82649936Y-72176118D01*
X82588892Y-72417175D01*
X82588890Y-72417187D01*
X82568357Y-72664994D01*
X82568357Y-72665005D01*
X82588890Y-72912812D01*
X82588892Y-72912824D01*
X82649936Y-73153881D01*
X82749826Y-73381606D01*
X82885833Y-73589782D01*
X82885836Y-73589785D01*
X83054256Y-73772738D01*
X83137008Y-73837147D01*
X83177821Y-73893857D01*
X83181496Y-73963630D01*
X83146864Y-74024313D01*
X83137014Y-74032848D01*
X83101579Y-74060429D01*
X83054257Y-74097261D01*
X82885833Y-74280217D01*
X82749826Y-74488393D01*
X82649936Y-74716118D01*
X82588892Y-74957175D01*
X82588890Y-74957187D01*
X82568357Y-75204994D01*
X82568357Y-75205005D01*
X82588890Y-75452812D01*
X82588892Y-75452824D01*
X82649936Y-75693881D01*
X82749826Y-75921606D01*
X82885833Y-76129782D01*
X82885836Y-76129785D01*
X83054256Y-76312738D01*
X83137008Y-76377147D01*
X83177821Y-76433857D01*
X83181496Y-76503630D01*
X83146864Y-76564313D01*
X83137014Y-76572848D01*
X83121689Y-76584777D01*
X83054257Y-76637261D01*
X82885833Y-76820217D01*
X82749826Y-77028393D01*
X82649936Y-77256118D01*
X82588892Y-77497175D01*
X82588890Y-77497187D01*
X82568357Y-77744994D01*
X82568357Y-77745005D01*
X82588890Y-77992812D01*
X82588892Y-77992824D01*
X82649936Y-78233881D01*
X82749826Y-78461606D01*
X82885833Y-78669782D01*
X82907154Y-78692943D01*
X83054256Y-78852738D01*
X83137008Y-78917147D01*
X83177821Y-78973857D01*
X83181496Y-79043630D01*
X83146864Y-79104313D01*
X83137014Y-79112848D01*
X83078400Y-79158469D01*
X83054257Y-79177261D01*
X82885833Y-79360217D01*
X82749826Y-79568393D01*
X82649936Y-79796118D01*
X82588892Y-80037175D01*
X82588890Y-80037187D01*
X82568357Y-80284994D01*
X82568357Y-80285005D01*
X82588890Y-80532812D01*
X82588892Y-80532824D01*
X82649936Y-80773881D01*
X82749826Y-81001606D01*
X82885833Y-81209782D01*
X82885836Y-81209785D01*
X83054256Y-81392738D01*
X83137010Y-81457148D01*
X83177821Y-81513855D01*
X83181496Y-81583628D01*
X83146865Y-81644311D01*
X83137009Y-81652852D01*
X83054258Y-81717260D01*
X82885833Y-81900217D01*
X82749826Y-82108393D01*
X82649936Y-82336118D01*
X82588892Y-82577175D01*
X82588890Y-82577187D01*
X82568357Y-82824994D01*
X82568357Y-82825005D01*
X82588890Y-83072812D01*
X82588892Y-83072824D01*
X82649936Y-83313881D01*
X82749826Y-83541606D01*
X82885833Y-83749782D01*
X82885836Y-83749785D01*
X83054256Y-83932738D01*
X83137008Y-83997147D01*
X83177821Y-84053857D01*
X83181496Y-84123630D01*
X83146864Y-84184313D01*
X83137014Y-84192848D01*
X83136761Y-84193046D01*
X83054257Y-84257261D01*
X82885833Y-84440217D01*
X82749826Y-84648393D01*
X82649936Y-84876118D01*
X82588892Y-85117175D01*
X82588890Y-85117187D01*
X82568357Y-85364994D01*
X82568357Y-85365005D01*
X82588890Y-85612812D01*
X82588892Y-85612824D01*
X82649936Y-85853881D01*
X82749826Y-86081606D01*
X82885833Y-86289782D01*
X82885836Y-86289785D01*
X83054256Y-86472738D01*
X83137008Y-86537147D01*
X83177821Y-86593857D01*
X83181496Y-86663630D01*
X83146864Y-86724313D01*
X83137014Y-86732848D01*
X83080569Y-86776782D01*
X83054257Y-86797261D01*
X82885833Y-86980217D01*
X82749826Y-87188393D01*
X82649936Y-87416118D01*
X82588892Y-87657175D01*
X82588890Y-87657187D01*
X82568357Y-87904994D01*
X82568357Y-87905005D01*
X82588890Y-88152812D01*
X82588892Y-88152824D01*
X82649936Y-88393881D01*
X82749826Y-88621606D01*
X82885833Y-88829782D01*
X82885836Y-88829785D01*
X83054256Y-89012738D01*
X83137008Y-89077147D01*
X83177821Y-89133857D01*
X83181496Y-89203630D01*
X83146864Y-89264313D01*
X83137014Y-89272848D01*
X83078400Y-89318469D01*
X83054257Y-89337261D01*
X82885833Y-89520217D01*
X82749826Y-89728393D01*
X82649936Y-89956118D01*
X82588892Y-90197175D01*
X82588890Y-90197187D01*
X82568357Y-90444994D01*
X82568357Y-90445005D01*
X82588890Y-90692812D01*
X82588892Y-90692824D01*
X82649936Y-90933881D01*
X82749826Y-91161606D01*
X82885833Y-91369782D01*
X82885836Y-91369785D01*
X83054256Y-91552738D01*
X83137010Y-91617148D01*
X83177821Y-91673855D01*
X83181496Y-91743628D01*
X83146865Y-91804311D01*
X83137009Y-91812852D01*
X83054258Y-91877260D01*
X82885833Y-92060217D01*
X82749826Y-92268393D01*
X82649936Y-92496118D01*
X82588892Y-92737175D01*
X82588890Y-92737187D01*
X82568357Y-92984994D01*
X82568357Y-92985005D01*
X82588890Y-93232812D01*
X82588892Y-93232824D01*
X82649936Y-93473881D01*
X82749826Y-93701606D01*
X82885833Y-93909782D01*
X82885836Y-93909785D01*
X83054256Y-94092738D01*
X83137008Y-94157147D01*
X83177821Y-94213857D01*
X83181496Y-94283630D01*
X83146864Y-94344313D01*
X83137014Y-94352848D01*
X83078400Y-94398469D01*
X83054257Y-94417261D01*
X82885833Y-94600217D01*
X82749826Y-94808393D01*
X82649936Y-95036118D01*
X82588892Y-95277175D01*
X82588890Y-95277187D01*
X82568357Y-95524994D01*
X82568357Y-95525005D01*
X82588890Y-95772812D01*
X82588892Y-95772824D01*
X82649936Y-96013881D01*
X82749826Y-96241606D01*
X82885833Y-96449782D01*
X82890537Y-96454892D01*
X83054256Y-96632738D01*
X83137008Y-96697146D01*
X83177820Y-96753856D01*
X83181495Y-96823629D01*
X83146864Y-96884312D01*
X83137009Y-96892852D01*
X83054255Y-96957262D01*
X82885833Y-97140217D01*
X82749826Y-97348393D01*
X82649936Y-97576118D01*
X82588892Y-97817175D01*
X82588890Y-97817187D01*
X82568357Y-98064994D01*
X82568357Y-98065005D01*
X82588890Y-98312812D01*
X82588892Y-98312824D01*
X82649936Y-98553881D01*
X82749826Y-98781606D01*
X82885833Y-98989782D01*
X82893855Y-98998496D01*
X83054256Y-99172738D01*
X83137008Y-99237147D01*
X83177821Y-99293857D01*
X83181496Y-99363630D01*
X83146864Y-99424313D01*
X83137014Y-99432848D01*
X83054256Y-99497262D01*
X83011705Y-99543483D01*
X82951819Y-99579474D01*
X82920477Y-99583500D01*
X76652758Y-99583500D01*
X76585719Y-99563815D01*
X76565077Y-99547181D01*
X76563402Y-99545506D01*
X76563395Y-99545501D01*
X76369834Y-99409967D01*
X76369830Y-99409965D01*
X76329462Y-99391141D01*
X76155663Y-99310097D01*
X76155659Y-99310096D01*
X76155655Y-99310094D01*
X75927413Y-99248938D01*
X75927403Y-99248936D01*
X75692001Y-99228341D01*
X75691999Y-99228341D01*
X75456596Y-99248936D01*
X75456586Y-99248938D01*
X75228344Y-99310094D01*
X75228335Y-99310098D01*
X75014171Y-99409964D01*
X75014169Y-99409965D01*
X74820597Y-99545505D01*
X74653508Y-99712594D01*
X74523269Y-99898595D01*
X74468692Y-99942219D01*
X74399193Y-99949412D01*
X74336839Y-99917890D01*
X74320119Y-99898594D01*
X74190113Y-99712926D01*
X74190108Y-99712920D01*
X74023082Y-99545894D01*
X73829578Y-99410399D01*
X73615492Y-99310570D01*
X73615486Y-99310567D01*
X73402000Y-99253364D01*
X73402000Y-100148498D01*
X73294315Y-100099320D01*
X73187763Y-100084000D01*
X73116237Y-100084000D01*
X73009685Y-100099320D01*
X72902000Y-100148498D01*
X72902000Y-99253364D01*
X72901999Y-99253364D01*
X72688513Y-99310567D01*
X72688507Y-99310570D01*
X72474422Y-99410399D01*
X72474420Y-99410400D01*
X72280926Y-99545886D01*
X72280920Y-99545891D01*
X72113891Y-99712920D01*
X72113886Y-99712926D01*
X71978400Y-99906420D01*
X71978399Y-99906422D01*
X71878570Y-100120507D01*
X71878567Y-100120513D01*
X71821364Y-100333999D01*
X71821364Y-100334000D01*
X72718314Y-100334000D01*
X72692507Y-100374156D01*
X72652000Y-100512111D01*
X72652000Y-100655889D01*
X72692507Y-100793844D01*
X72718314Y-100834000D01*
X71821364Y-100834000D01*
X71878567Y-101047486D01*
X71878570Y-101047492D01*
X71978399Y-101261578D01*
X72113894Y-101455082D01*
X72236334Y-101577522D01*
X72269819Y-101638845D01*
X72264835Y-101708537D01*
X72222963Y-101764470D01*
X72191987Y-101781385D01*
X72059911Y-101830646D01*
X72059906Y-101830649D01*
X71944812Y-101916809D01*
X71944809Y-101916812D01*
X71858649Y-102031906D01*
X71858645Y-102031913D01*
X71808403Y-102166620D01*
X71808401Y-102166627D01*
X71802000Y-102226155D01*
X71802000Y-102874000D01*
X72718314Y-102874000D01*
X72692507Y-102914156D01*
X72652000Y-103052111D01*
X72652000Y-103195889D01*
X72692507Y-103333844D01*
X72718314Y-103374000D01*
X71802000Y-103374000D01*
X71802000Y-104021844D01*
X46990000Y-104021844D01*
X46990000Y-46843610D01*
X54173000Y-46843610D01*
X54187904Y-47023472D01*
X54187904Y-47023475D01*
X54187905Y-47023476D01*
X54247017Y-47256905D01*
X54343745Y-47477422D01*
X54459508Y-47654611D01*
X54475451Y-47679013D01*
X54554801Y-47765209D01*
X54607729Y-47822705D01*
X54638652Y-47885358D01*
X54640500Y-47906687D01*
X54640499Y-57259858D01*
X54620814Y-57326897D01*
X54568010Y-57372652D01*
X54559838Y-57376038D01*
X54548665Y-57380205D01*
X54433455Y-57466452D01*
X54433452Y-57466455D01*
X54347206Y-57581664D01*
X54347202Y-57581671D01*
X54296908Y-57716517D01*
X54290501Y-57776116D01*
X54290500Y-57776135D01*
X54290500Y-59571870D01*
X54290501Y-59571876D01*
X54296908Y-59631483D01*
X54347202Y-59766328D01*
X54347206Y-59766335D01*
X54433452Y-59881544D01*
X54433455Y-59881547D01*
X54548665Y-59967794D01*
X54548667Y-59967794D01*
X54548669Y-59967796D01*
X54559830Y-59971958D01*
X54615764Y-60013826D01*
X54640184Y-60079289D01*
X54640500Y-60088141D01*
X54640500Y-62485506D01*
X54640480Y-62487076D01*
X54638243Y-62575362D01*
X54638243Y-62575370D01*
X54649064Y-62635739D01*
X54649718Y-62640404D01*
X54655925Y-62701430D01*
X54655927Y-62701444D01*
X54666208Y-62734213D01*
X54668079Y-62741837D01*
X54674142Y-62775652D01*
X54674142Y-62775655D01*
X54696894Y-62832612D01*
X54698474Y-62837051D01*
X54716841Y-62895588D01*
X54716844Y-62895595D01*
X54733509Y-62925619D01*
X54736879Y-62932714D01*
X54749622Y-62964614D01*
X54749627Y-62964624D01*
X54783377Y-63015833D01*
X54785818Y-63019863D01*
X54815588Y-63073498D01*
X54815589Y-63073499D01*
X54815591Y-63073502D01*
X54837968Y-63099567D01*
X54842693Y-63105835D01*
X54855263Y-63124906D01*
X54861598Y-63134519D01*
X54904978Y-63177899D01*
X54908169Y-63181343D01*
X54948131Y-63227892D01*
X54948130Y-63227892D01*
X54975299Y-63248923D01*
X54981186Y-63254107D01*
X55610978Y-63883898D01*
X56178987Y-64451907D01*
X56180052Y-64452998D01*
X56215252Y-64490028D01*
X56240940Y-64517052D01*
X56240947Y-64517058D01*
X56271975Y-64538653D01*
X56291303Y-64552106D01*
X56295044Y-64554926D01*
X56342593Y-64593698D01*
X56373045Y-64609604D01*
X56379758Y-64613672D01*
X56407951Y-64633295D01*
X56464329Y-64657489D01*
X56468578Y-64659507D01*
X56522951Y-64687909D01*
X56550229Y-64695714D01*
X56555974Y-64697358D01*
X56563368Y-64699990D01*
X56594942Y-64713540D01*
X56594945Y-64713540D01*
X56594946Y-64713541D01*
X56655022Y-64725887D01*
X56659600Y-64727010D01*
X56661746Y-64727624D01*
X56718582Y-64743887D01*
X56752839Y-64746495D01*
X56760614Y-64747586D01*
X56794255Y-64754500D01*
X56794259Y-64754500D01*
X56855598Y-64754500D01*
X56860304Y-64754678D01*
X56887595Y-64756757D01*
X56921475Y-64759337D01*
X56921475Y-64759336D01*
X56921476Y-64759337D01*
X56955559Y-64754996D01*
X56963389Y-64754500D01*
X62470507Y-64754500D01*
X62472069Y-64754519D01*
X62509283Y-64755462D01*
X62560358Y-64756757D01*
X62560358Y-64756756D01*
X62560363Y-64756757D01*
X62620753Y-64745932D01*
X62625412Y-64745280D01*
X62667607Y-64740988D01*
X62686438Y-64739074D01*
X62719227Y-64728786D01*
X62726840Y-64726918D01*
X62760653Y-64720858D01*
X62817621Y-64698101D01*
X62822053Y-64696524D01*
X62824635Y-64695714D01*
X62880588Y-64678159D01*
X62910627Y-64661484D01*
X62917708Y-64658122D01*
X62949617Y-64645377D01*
X63000854Y-64611608D01*
X63004851Y-64609187D01*
X63058502Y-64579409D01*
X63084568Y-64557030D01*
X63090843Y-64552300D01*
X63111551Y-64538653D01*
X63119519Y-64533402D01*
X63162892Y-64490027D01*
X63166350Y-64486823D01*
X63169613Y-64484020D01*
X63212895Y-64446866D01*
X63233928Y-64419691D01*
X63239098Y-64413821D01*
X65467982Y-62184936D01*
X65468995Y-62183949D01*
X65533053Y-62123059D01*
X65568099Y-62072706D01*
X65570938Y-62068941D01*
X65578576Y-62059574D01*
X65609698Y-62021407D01*
X65625601Y-61990960D01*
X65629674Y-61984239D01*
X65634489Y-61977320D01*
X65649295Y-61956049D01*
X65673492Y-61899660D01*
X65675498Y-61895435D01*
X65703909Y-61841049D01*
X65713357Y-61808022D01*
X65715988Y-61800633D01*
X65729540Y-61769058D01*
X65741895Y-61708930D01*
X65742999Y-61704429D01*
X65759886Y-61645418D01*
X65762494Y-61611157D01*
X65763585Y-61603389D01*
X65770500Y-61569743D01*
X65770500Y-61508398D01*
X65770679Y-61503688D01*
X65772331Y-61481994D01*
X65775337Y-61442524D01*
X65770997Y-61408442D01*
X65770500Y-61400603D01*
X65770500Y-58377781D01*
X65790185Y-58310742D01*
X65806814Y-58290105D01*
X68196100Y-55900819D01*
X68257424Y-55867334D01*
X68283782Y-55864500D01*
X83367242Y-55864500D01*
X83434281Y-55884185D01*
X83454923Y-55900819D01*
X83456597Y-55902493D01*
X83456603Y-55902498D01*
X83642594Y-56032730D01*
X83686219Y-56087307D01*
X83693413Y-56156805D01*
X83661890Y-56219160D01*
X83642595Y-56235880D01*
X83456922Y-56365890D01*
X83456920Y-56365891D01*
X83289891Y-56532920D01*
X83289886Y-56532926D01*
X83154400Y-56726420D01*
X83154399Y-56726422D01*
X83054570Y-56940507D01*
X83054567Y-56940513D01*
X82997364Y-57153999D01*
X82997364Y-57154000D01*
X83894314Y-57154000D01*
X83868507Y-57194156D01*
X83828000Y-57332111D01*
X83828000Y-57475889D01*
X83868507Y-57613844D01*
X83894314Y-57654000D01*
X82997364Y-57654000D01*
X83054567Y-57867486D01*
X83054570Y-57867492D01*
X83154399Y-58081578D01*
X83289894Y-58275082D01*
X83456917Y-58442105D01*
X83650421Y-58577600D01*
X83864507Y-58677429D01*
X83864516Y-58677433D01*
X84078000Y-58734634D01*
X84078000Y-57839501D01*
X84185685Y-57888680D01*
X84292237Y-57904000D01*
X84363763Y-57904000D01*
X84470315Y-57888680D01*
X84578000Y-57839501D01*
X84578000Y-58734633D01*
X84791483Y-58677433D01*
X84791492Y-58677429D01*
X85005578Y-58577600D01*
X85199082Y-58442105D01*
X85366108Y-58275079D01*
X85387925Y-58243922D01*
X85442502Y-58200297D01*
X85512000Y-58193103D01*
X85574355Y-58224626D01*
X85609769Y-58284856D01*
X85613500Y-58315045D01*
X85613500Y-64248506D01*
X85613480Y-64250076D01*
X85611243Y-64338362D01*
X85611243Y-64338370D01*
X85622064Y-64398739D01*
X85622718Y-64403404D01*
X85628925Y-64464430D01*
X85628927Y-64464444D01*
X85639208Y-64497213D01*
X85641079Y-64504837D01*
X85647142Y-64538652D01*
X85647142Y-64538655D01*
X85669894Y-64595612D01*
X85671474Y-64600051D01*
X85689841Y-64658588D01*
X85689844Y-64658595D01*
X85706509Y-64688619D01*
X85709879Y-64695714D01*
X85717000Y-64713540D01*
X85722343Y-64726917D01*
X85722622Y-64727614D01*
X85722627Y-64727624D01*
X85756377Y-64778833D01*
X85758818Y-64782863D01*
X85788588Y-64836498D01*
X85788589Y-64836499D01*
X85788591Y-64836502D01*
X85810968Y-64862567D01*
X85815693Y-64868835D01*
X85828263Y-64887906D01*
X85834598Y-64897519D01*
X85877978Y-64940899D01*
X85881169Y-64944343D01*
X85921131Y-64990892D01*
X85921134Y-64990895D01*
X85948294Y-65011918D01*
X85954190Y-65017111D01*
X104460005Y-83522926D01*
X104461070Y-83524017D01*
X104518500Y-83584433D01*
X104521940Y-83588052D01*
X104521947Y-83588058D01*
X104541531Y-83601688D01*
X104572295Y-83623100D01*
X104576050Y-83625932D01*
X104623593Y-83664698D01*
X104654045Y-83680604D01*
X104660756Y-83684671D01*
X104688951Y-83704295D01*
X104745332Y-83728490D01*
X104749567Y-83730501D01*
X104803951Y-83758909D01*
X104836973Y-83768356D01*
X104844365Y-83770989D01*
X104875940Y-83784539D01*
X104875941Y-83784540D01*
X104889054Y-83787234D01*
X104936055Y-83796892D01*
X104940595Y-83798006D01*
X104999582Y-83814886D01*
X105033841Y-83817494D01*
X105041609Y-83818585D01*
X105075255Y-83825500D01*
X105075259Y-83825500D01*
X105136601Y-83825500D01*
X105141308Y-83825678D01*
X105177651Y-83828446D01*
X105202475Y-83830337D01*
X105202475Y-83830336D01*
X105202476Y-83830337D01*
X105236559Y-83825996D01*
X105244389Y-83825500D01*
X108301145Y-83825500D01*
X108368184Y-83845185D01*
X108392374Y-83865517D01*
X108454252Y-83932734D01*
X108454256Y-83932738D01*
X108537008Y-83997147D01*
X108577821Y-84053857D01*
X108581496Y-84123630D01*
X108546864Y-84184313D01*
X108537014Y-84192848D01*
X108536761Y-84193046D01*
X108454257Y-84257261D01*
X108285833Y-84440217D01*
X108149826Y-84648393D01*
X108049936Y-84876118D01*
X107988892Y-85117175D01*
X107988890Y-85117187D01*
X107968357Y-85364994D01*
X107968357Y-85365005D01*
X107988890Y-85612812D01*
X107988892Y-85612824D01*
X108049936Y-85853881D01*
X108149826Y-86081606D01*
X108285833Y-86289782D01*
X108285836Y-86289785D01*
X108454256Y-86472738D01*
X108537008Y-86537147D01*
X108577821Y-86593857D01*
X108581496Y-86663630D01*
X108546864Y-86724313D01*
X108537014Y-86732848D01*
X108480569Y-86776782D01*
X108454257Y-86797261D01*
X108285833Y-86980217D01*
X108149826Y-87188393D01*
X108049936Y-87416118D01*
X107988892Y-87657175D01*
X107988890Y-87657187D01*
X107968357Y-87904994D01*
X107968357Y-87905005D01*
X107988890Y-88152812D01*
X107988892Y-88152824D01*
X108049936Y-88393881D01*
X108149826Y-88621606D01*
X108285833Y-88829782D01*
X108285836Y-88829785D01*
X108454256Y-89012738D01*
X108537008Y-89077147D01*
X108577821Y-89133857D01*
X108581496Y-89203630D01*
X108546864Y-89264313D01*
X108537014Y-89272848D01*
X108478400Y-89318469D01*
X108454257Y-89337261D01*
X108285833Y-89520217D01*
X108149826Y-89728393D01*
X108049936Y-89956118D01*
X107988892Y-90197175D01*
X107988890Y-90197187D01*
X107968357Y-90444994D01*
X107968357Y-90445005D01*
X107988890Y-90692812D01*
X107988892Y-90692824D01*
X108049936Y-90933881D01*
X108149826Y-91161606D01*
X108285833Y-91369782D01*
X108285836Y-91369785D01*
X108454256Y-91552738D01*
X108537010Y-91617148D01*
X108577821Y-91673855D01*
X108581496Y-91743628D01*
X108546865Y-91804311D01*
X108537009Y-91812852D01*
X108454258Y-91877260D01*
X108285833Y-92060217D01*
X108149826Y-92268393D01*
X108049936Y-92496118D01*
X107988892Y-92737175D01*
X107988890Y-92737187D01*
X107968357Y-92984994D01*
X107968357Y-92985005D01*
X107988890Y-93232812D01*
X107988892Y-93232824D01*
X108049936Y-93473881D01*
X108149826Y-93701606D01*
X108285833Y-93909782D01*
X108285836Y-93909785D01*
X108454256Y-94092738D01*
X108537008Y-94157147D01*
X108577821Y-94213857D01*
X108581496Y-94283630D01*
X108546864Y-94344313D01*
X108537014Y-94352848D01*
X108478400Y-94398469D01*
X108454257Y-94417261D01*
X108285833Y-94600217D01*
X108149826Y-94808393D01*
X108049936Y-95036118D01*
X107988892Y-95277175D01*
X107988890Y-95277187D01*
X107968357Y-95524994D01*
X107968357Y-95525005D01*
X107988890Y-95772812D01*
X107988892Y-95772824D01*
X108049936Y-96013881D01*
X108149826Y-96241606D01*
X108285833Y-96449782D01*
X108290537Y-96454892D01*
X108454256Y-96632738D01*
X108537008Y-96697146D01*
X108577820Y-96753856D01*
X108581495Y-96823629D01*
X108546864Y-96884312D01*
X108537009Y-96892852D01*
X108454255Y-96957262D01*
X108285833Y-97140217D01*
X108149826Y-97348393D01*
X108049936Y-97576118D01*
X107988892Y-97817175D01*
X107988890Y-97817187D01*
X107968357Y-98064994D01*
X107968357Y-98065005D01*
X107988890Y-98312812D01*
X107988892Y-98312824D01*
X108049936Y-98553881D01*
X108149826Y-98781606D01*
X108285833Y-98989782D01*
X108293855Y-98998496D01*
X108454256Y-99172738D01*
X108537008Y-99237147D01*
X108577821Y-99293857D01*
X108581496Y-99363630D01*
X108546864Y-99424313D01*
X108537014Y-99432848D01*
X108478400Y-99478469D01*
X108454257Y-99497261D01*
X108285833Y-99680217D01*
X108149826Y-99888393D01*
X108049936Y-100116118D01*
X107988892Y-100357175D01*
X107988890Y-100357187D01*
X107968357Y-100604994D01*
X107968357Y-100605005D01*
X107988890Y-100852812D01*
X107988892Y-100852824D01*
X108049936Y-101093881D01*
X108149826Y-101321606D01*
X108285833Y-101529782D01*
X108285836Y-101529785D01*
X108454256Y-101712738D01*
X108537010Y-101777148D01*
X108577821Y-101833855D01*
X108581496Y-101903628D01*
X108546865Y-101964311D01*
X108537009Y-101972852D01*
X108454258Y-102037260D01*
X108285833Y-102220217D01*
X108149826Y-102428393D01*
X108049936Y-102656118D01*
X107988892Y-102897175D01*
X107988890Y-102897187D01*
X107968357Y-103144994D01*
X107968357Y-103145005D01*
X107988890Y-103392812D01*
X107988892Y-103392824D01*
X108049936Y-103633881D01*
X108149826Y-103861606D01*
X108285833Y-104069782D01*
X108296509Y-104081379D01*
X108454256Y-104252738D01*
X108454259Y-104252740D01*
X108454262Y-104252743D01*
X108557743Y-104333286D01*
X108598556Y-104389996D01*
X108605343Y-104438823D01*
X108603941Y-104461389D01*
X109332634Y-105190081D01*
X109328839Y-105190627D01*
X109195438Y-105251549D01*
X109084605Y-105347587D01*
X109005318Y-105470960D01*
X108982866Y-105547419D01*
X108250564Y-104815116D01*
X108150267Y-104968632D01*
X108050412Y-105196282D01*
X107989387Y-105437261D01*
X107989385Y-105437270D01*
X107968858Y-105684994D01*
X107968858Y-105685005D01*
X107989385Y-105932729D01*
X107989387Y-105932738D01*
X108050412Y-106173717D01*
X108150267Y-106401367D01*
X108281182Y-106601748D01*
X108301369Y-106668637D01*
X108282189Y-106735823D01*
X108236806Y-106778398D01*
X108231667Y-106781204D01*
X108116455Y-106867452D01*
X108116452Y-106867455D01*
X108030206Y-106982664D01*
X108030202Y-106982671D01*
X107979908Y-107117517D01*
X107978126Y-107125062D01*
X107975853Y-107124525D01*
X107953571Y-107178312D01*
X107896177Y-107218157D01*
X107857024Y-107224500D01*
X104372783Y-107224500D01*
X104305744Y-107204815D01*
X104285102Y-107188181D01*
X102571011Y-105474091D01*
X102569914Y-105472966D01*
X102509061Y-105408949D01*
X102509060Y-105408948D01*
X102509059Y-105408947D01*
X102481204Y-105389559D01*
X102458709Y-105373902D01*
X102454946Y-105371064D01*
X102407413Y-105332305D01*
X102407406Y-105332300D01*
X102376959Y-105316397D01*
X102370251Y-105312334D01*
X102342049Y-105292705D01*
X102342046Y-105292703D01*
X102342045Y-105292703D01*
X102342041Y-105292701D01*
X102285680Y-105268514D01*
X102281424Y-105266493D01*
X102227057Y-105238094D01*
X102227050Y-105238091D01*
X102227049Y-105238091D01*
X102214947Y-105234628D01*
X102194030Y-105228642D01*
X102186630Y-105226008D01*
X102155057Y-105212459D01*
X102155058Y-105212459D01*
X102094966Y-105200109D01*
X102090391Y-105198986D01*
X102031420Y-105182113D01*
X102031425Y-105182113D01*
X101997158Y-105179503D01*
X101989380Y-105178412D01*
X101955742Y-105171500D01*
X101955741Y-105171500D01*
X101894402Y-105171500D01*
X101889695Y-105171321D01*
X101884121Y-105170896D01*
X101828524Y-105166662D01*
X101808589Y-105169201D01*
X101794440Y-105171003D01*
X101786611Y-105171500D01*
X101207588Y-105171500D01*
X101140549Y-105151815D01*
X101136465Y-105149075D01*
X101124451Y-105140663D01*
X100982734Y-105041432D01*
X100901902Y-105003739D01*
X100776497Y-104945261D01*
X100776488Y-104945258D01*
X100556697Y-104886366D01*
X100556693Y-104886365D01*
X100556692Y-104886365D01*
X100556691Y-104886364D01*
X100556686Y-104886364D01*
X100330002Y-104866532D01*
X100329998Y-104866532D01*
X100103313Y-104886364D01*
X100103302Y-104886366D01*
X99883511Y-104945258D01*
X99883502Y-104945261D01*
X99677267Y-105041431D01*
X99677265Y-105041432D01*
X99588197Y-105103798D01*
X99535549Y-105140663D01*
X99523535Y-105149075D01*
X99457329Y-105171402D01*
X99452412Y-105171500D01*
X96635588Y-105171500D01*
X96568549Y-105151815D01*
X96564465Y-105149075D01*
X96552451Y-105140663D01*
X96410734Y-105041432D01*
X96329902Y-105003739D01*
X96204497Y-104945261D01*
X96204488Y-104945258D01*
X95984697Y-104886366D01*
X95984693Y-104886365D01*
X95984692Y-104886365D01*
X95984691Y-104886364D01*
X95984686Y-104886364D01*
X95758002Y-104866532D01*
X95757998Y-104866532D01*
X95531313Y-104886364D01*
X95531302Y-104886366D01*
X95311511Y-104945258D01*
X95311502Y-104945261D01*
X95105267Y-105041431D01*
X95105265Y-105041432D01*
X94918858Y-105171954D01*
X94757954Y-105332858D01*
X94627432Y-105519265D01*
X94627431Y-105519267D01*
X94531261Y-105725502D01*
X94531258Y-105725511D01*
X94472366Y-105945302D01*
X94472364Y-105945313D01*
X94452532Y-106171998D01*
X94452532Y-106172001D01*
X94472364Y-106398686D01*
X94472366Y-106398697D01*
X94531258Y-106618488D01*
X94531261Y-106618497D01*
X94627431Y-106824732D01*
X94627432Y-106824734D01*
X94757954Y-107011141D01*
X94918858Y-107172045D01*
X94918861Y-107172047D01*
X95105266Y-107302568D01*
X95311504Y-107398739D01*
X95531308Y-107457635D01*
X95693230Y-107471801D01*
X95757998Y-107477468D01*
X95758000Y-107477468D01*
X95758002Y-107477468D01*
X95814672Y-107472509D01*
X95984692Y-107457635D01*
X96204496Y-107398739D01*
X96410734Y-107302568D01*
X96564465Y-107194924D01*
X96630671Y-107172598D01*
X96635588Y-107172500D01*
X99452412Y-107172500D01*
X99519451Y-107192185D01*
X99523523Y-107194917D01*
X99677266Y-107302568D01*
X99883504Y-107398739D01*
X100103308Y-107457635D01*
X100265230Y-107471801D01*
X100329998Y-107477468D01*
X100330000Y-107477468D01*
X100330002Y-107477468D01*
X100386673Y-107472509D01*
X100556692Y-107457635D01*
X100776496Y-107398739D01*
X100982734Y-107302568D01*
X101136465Y-107194924D01*
X101202671Y-107172598D01*
X101207588Y-107172500D01*
X101388217Y-107172500D01*
X101455256Y-107192185D01*
X101475898Y-107208819D01*
X103190005Y-108922926D01*
X103191070Y-108924017D01*
X103226252Y-108961028D01*
X103251939Y-108988051D01*
X103251945Y-108988056D01*
X103302295Y-109023101D01*
X103306047Y-109025929D01*
X103353592Y-109064697D01*
X103353595Y-109064698D01*
X103353597Y-109064700D01*
X103384039Y-109080601D01*
X103390753Y-109084668D01*
X103418947Y-109104292D01*
X103418953Y-109104296D01*
X103475331Y-109128490D01*
X103479569Y-109130502D01*
X103533951Y-109158909D01*
X103566973Y-109168356D01*
X103574365Y-109170989D01*
X103605940Y-109184539D01*
X103605941Y-109184540D01*
X103619054Y-109187234D01*
X103666055Y-109196892D01*
X103670595Y-109198006D01*
X103729582Y-109214886D01*
X103763841Y-109217494D01*
X103771609Y-109218585D01*
X103805255Y-109225500D01*
X103805259Y-109225500D01*
X103866601Y-109225500D01*
X103871308Y-109225678D01*
X103898597Y-109227757D01*
X103932475Y-109230337D01*
X103932475Y-109230336D01*
X103932476Y-109230337D01*
X103966559Y-109225996D01*
X103974389Y-109225500D01*
X107857023Y-109225500D01*
X107924062Y-109245185D01*
X107969817Y-109297989D01*
X107977266Y-109325134D01*
X107978124Y-109324932D01*
X107979907Y-109332479D01*
X108030202Y-109467328D01*
X108030206Y-109467335D01*
X108116452Y-109582544D01*
X108116455Y-109582547D01*
X108231664Y-109668793D01*
X108231671Y-109668797D01*
X108366517Y-109719091D01*
X108366516Y-109719091D01*
X108373444Y-109719835D01*
X108426127Y-109725500D01*
X110521872Y-109725499D01*
X110581483Y-109719091D01*
X110716331Y-109668796D01*
X110831546Y-109582546D01*
X110917796Y-109467331D01*
X110968091Y-109332483D01*
X110968091Y-109332481D01*
X110969874Y-109324938D01*
X110972146Y-109325474D01*
X110994429Y-109271688D01*
X111051823Y-109231843D01*
X111090976Y-109225500D01*
X114265507Y-109225500D01*
X114267069Y-109225519D01*
X114304283Y-109226462D01*
X114355358Y-109227757D01*
X114355358Y-109227756D01*
X114355363Y-109227757D01*
X114415753Y-109216932D01*
X114420412Y-109216280D01*
X114462607Y-109211988D01*
X114481438Y-109210074D01*
X114514227Y-109199786D01*
X114521840Y-109197918D01*
X114555653Y-109191858D01*
X114612621Y-109169101D01*
X114617053Y-109167524D01*
X114675588Y-109149159D01*
X114705627Y-109132484D01*
X114712708Y-109129122D01*
X114744617Y-109116377D01*
X114795854Y-109082608D01*
X114799851Y-109080187D01*
X114853502Y-109050409D01*
X114879568Y-109028030D01*
X114885843Y-109023300D01*
X114886145Y-109023101D01*
X114914519Y-109004402D01*
X114957917Y-108961002D01*
X114961336Y-108957834D01*
X115007895Y-108917866D01*
X115028931Y-108890688D01*
X115034101Y-108884818D01*
X118300001Y-105618918D01*
X118301014Y-105617931D01*
X118365053Y-105557059D01*
X118400112Y-105506686D01*
X118402925Y-105502957D01*
X118441698Y-105455407D01*
X118457607Y-105424948D01*
X118461667Y-105418248D01*
X118481295Y-105390049D01*
X118505492Y-105333660D01*
X118507498Y-105329435D01*
X118535909Y-105275049D01*
X118545360Y-105242015D01*
X118547991Y-105234628D01*
X118551025Y-105227559D01*
X118561540Y-105203058D01*
X118573893Y-105142940D01*
X118575006Y-105138412D01*
X118591887Y-105079418D01*
X118594495Y-105045155D01*
X118595587Y-105037376D01*
X118602500Y-105003739D01*
X118602500Y-104942401D01*
X118602679Y-104937692D01*
X118607337Y-104876525D01*
X118602997Y-104842441D01*
X118602500Y-104834602D01*
X118602500Y-103176200D01*
X118602799Y-103170119D01*
X118605272Y-103145005D01*
X118607341Y-103124000D01*
X118602806Y-103077961D01*
X118602589Y-103075034D01*
X118602500Y-103073283D01*
X118602500Y-103073258D01*
X118597525Y-103024336D01*
X118588024Y-102927868D01*
X118588022Y-102927863D01*
X118588022Y-102927858D01*
X118587967Y-102927579D01*
X118587093Y-102921751D01*
X118587074Y-102921562D01*
X118558034Y-102829007D01*
X118530814Y-102739273D01*
X118530810Y-102739266D01*
X118528021Y-102732532D01*
X118526174Y-102727448D01*
X118526160Y-102727417D01*
X118526159Y-102727412D01*
X118480612Y-102645351D01*
X118477388Y-102639320D01*
X118437913Y-102565468D01*
X118437910Y-102565462D01*
X118437904Y-102565455D01*
X118434527Y-102560400D01*
X118434729Y-102560264D01*
X118427522Y-102549661D01*
X118427411Y-102549501D01*
X118427410Y-102549499D01*
X118427409Y-102549498D01*
X118412030Y-102531584D01*
X118368773Y-102481194D01*
X118367890Y-102480142D01*
X118333714Y-102438500D01*
X118312883Y-102413117D01*
X118312880Y-102413114D01*
X118312878Y-102413112D01*
X118312606Y-102412889D01*
X118297185Y-102397806D01*
X118294866Y-102395104D01*
X118294864Y-102395103D01*
X118226358Y-102342075D01*
X118224977Y-102340974D01*
X118160539Y-102288090D01*
X118160536Y-102288089D01*
X118157064Y-102286233D01*
X118139607Y-102274925D01*
X118133959Y-102270553D01*
X118133958Y-102270552D01*
X118097358Y-102252599D01*
X118059220Y-102233891D01*
X118057298Y-102232907D01*
X117986723Y-102195184D01*
X117979521Y-102193000D01*
X117960909Y-102185667D01*
X117956427Y-102183469D01*
X117951270Y-102180939D01*
X117910731Y-102170443D01*
X117873922Y-102160912D01*
X117871496Y-102160230D01*
X117798132Y-102137976D01*
X117787054Y-102136884D01*
X117768149Y-102133526D01*
X117754285Y-102129937D01*
X117677875Y-102126060D01*
X117674941Y-102125841D01*
X117602003Y-102118659D01*
X117601996Y-102118659D01*
X117587369Y-102120099D01*
X117568945Y-102120537D01*
X117551068Y-102119631D01*
X117551058Y-102119631D01*
X117478784Y-102130703D01*
X117475474Y-102131119D01*
X117405872Y-102137975D01*
X117405866Y-102137976D01*
X117388367Y-102143284D01*
X117371163Y-102147190D01*
X117349932Y-102150443D01*
X117349921Y-102150446D01*
X117284510Y-102174672D01*
X117280975Y-102175862D01*
X117217276Y-102195184D01*
X117217272Y-102195186D01*
X117194275Y-102207478D01*
X117186576Y-102210942D01*
X117159113Y-102221114D01*
X117159109Y-102221116D01*
X117102751Y-102256243D01*
X117099195Y-102258298D01*
X117068091Y-102274925D01*
X117043467Y-102288087D01*
X117043454Y-102288095D01*
X117026737Y-102301815D01*
X117020689Y-102306777D01*
X117014154Y-102311466D01*
X116986429Y-102328747D01*
X116986427Y-102328749D01*
X116940732Y-102372184D01*
X116937349Y-102375173D01*
X116891114Y-102413118D01*
X116870282Y-102438500D01*
X116865071Y-102444105D01*
X116838947Y-102468939D01*
X116804866Y-102517905D01*
X116801905Y-102521818D01*
X116766092Y-102565457D01*
X116766089Y-102565463D01*
X116749018Y-102597399D01*
X116745225Y-102603593D01*
X116722706Y-102635948D01*
X116722705Y-102635950D01*
X116700504Y-102687680D01*
X116698209Y-102692456D01*
X116673186Y-102739272D01*
X116673184Y-102739276D01*
X116665458Y-102764746D01*
X116661692Y-102777159D01*
X116659339Y-102783607D01*
X116642461Y-102822937D01*
X116631806Y-102874778D01*
X116630406Y-102880294D01*
X116615975Y-102927870D01*
X116611763Y-102970632D01*
X116610792Y-102977038D01*
X116601500Y-103022257D01*
X116601500Y-103071798D01*
X116601201Y-103077878D01*
X116596659Y-103123999D01*
X116601201Y-103170119D01*
X116601500Y-103176200D01*
X116601499Y-104436218D01*
X116581814Y-104503258D01*
X116565180Y-104523899D01*
X113900899Y-107188181D01*
X113839576Y-107221666D01*
X113813218Y-107224500D01*
X111090977Y-107224500D01*
X111023938Y-107204815D01*
X110978183Y-107152011D01*
X110970733Y-107124865D01*
X110969876Y-107125068D01*
X110968092Y-107117520D01*
X110967995Y-107117261D01*
X110952054Y-107074522D01*
X110917797Y-106982671D01*
X110917793Y-106982664D01*
X110831547Y-106867455D01*
X110831544Y-106867452D01*
X110716333Y-106781204D01*
X110711197Y-106778400D01*
X110661793Y-106728994D01*
X110646942Y-106660721D01*
X110666817Y-106601747D01*
X110797733Y-106401364D01*
X110897587Y-106173717D01*
X110958612Y-105932738D01*
X110958614Y-105932729D01*
X110979141Y-105685005D01*
X110979141Y-105684994D01*
X110958614Y-105437270D01*
X110958612Y-105437261D01*
X110897587Y-105196282D01*
X110797731Y-104968630D01*
X110697434Y-104815116D01*
X109965132Y-105547418D01*
X109942682Y-105470960D01*
X109863395Y-105347587D01*
X109752562Y-105251549D01*
X109619161Y-105190627D01*
X109615363Y-105190081D01*
X110344056Y-104461389D01*
X110342655Y-104438823D01*
X110358148Y-104370693D01*
X110390250Y-104333290D01*
X110493744Y-104252738D01*
X110662164Y-104069785D01*
X110798173Y-103861607D01*
X110898063Y-103633881D01*
X110959108Y-103392821D01*
X110963995Y-103333844D01*
X110979643Y-103145005D01*
X110979643Y-103144994D01*
X110959109Y-102897187D01*
X110959107Y-102897175D01*
X110898063Y-102656118D01*
X110798173Y-102428393D01*
X110662166Y-102220217D01*
X110612826Y-102166620D01*
X110493744Y-102037262D01*
X110410991Y-101972852D01*
X110370179Y-101916143D01*
X110366504Y-101846370D01*
X110401136Y-101785687D01*
X110410985Y-101777151D01*
X110493744Y-101712738D01*
X110518194Y-101686177D01*
X110555626Y-101645517D01*
X110615513Y-101609526D01*
X110646855Y-101605500D01*
X137379507Y-101605500D01*
X137381069Y-101605519D01*
X137418283Y-101606462D01*
X137469358Y-101607757D01*
X137469358Y-101607756D01*
X137469363Y-101607757D01*
X137529753Y-101596932D01*
X137534412Y-101596280D01*
X137576607Y-101591988D01*
X137595438Y-101590074D01*
X137628227Y-101579786D01*
X137635840Y-101577918D01*
X137669653Y-101571858D01*
X137726621Y-101549101D01*
X137731053Y-101547524D01*
X137789588Y-101529159D01*
X137819627Y-101512484D01*
X137826708Y-101509122D01*
X137858617Y-101496377D01*
X137909854Y-101462608D01*
X137913851Y-101460187D01*
X137967502Y-101430409D01*
X137993568Y-101408030D01*
X137999843Y-101403300D01*
X138028519Y-101384402D01*
X138071892Y-101341027D01*
X138075350Y-101337823D01*
X138078613Y-101335020D01*
X138121895Y-101297866D01*
X138142928Y-101270691D01*
X138148098Y-101264821D01*
X151319981Y-88092937D01*
X151320994Y-88091950D01*
X151385053Y-88031059D01*
X151420099Y-87980706D01*
X151422938Y-87976941D01*
X151426612Y-87972435D01*
X151461698Y-87929407D01*
X151477601Y-87898960D01*
X151481674Y-87892239D01*
X151486489Y-87885320D01*
X151501295Y-87864049D01*
X151525492Y-87807660D01*
X151527498Y-87803435D01*
X151555909Y-87749049D01*
X151565357Y-87716022D01*
X151567988Y-87708633D01*
X151581540Y-87677058D01*
X151593895Y-87616930D01*
X151594999Y-87612429D01*
X151611886Y-87553418D01*
X151614494Y-87519157D01*
X151615585Y-87511389D01*
X151622500Y-87477743D01*
X151622500Y-87416398D01*
X151622679Y-87411688D01*
X151627337Y-87350524D01*
X151622997Y-87316442D01*
X151622500Y-87308603D01*
X151622500Y-74435491D01*
X151622520Y-74433921D01*
X151624757Y-74345641D01*
X151624756Y-74345640D01*
X151624757Y-74345637D01*
X151613933Y-74285253D01*
X151613280Y-74280587D01*
X151608229Y-74230920D01*
X151607074Y-74219562D01*
X151596788Y-74186780D01*
X151594918Y-74179166D01*
X151588858Y-74145348D01*
X151566092Y-74088352D01*
X151564527Y-74083955D01*
X151546159Y-74025412D01*
X151541041Y-74016192D01*
X151529491Y-73995382D01*
X151526120Y-73988284D01*
X151524063Y-73983134D01*
X151513378Y-73956383D01*
X151479605Y-73905139D01*
X151477183Y-73901142D01*
X151447409Y-73847498D01*
X151425034Y-73821434D01*
X151420306Y-73815163D01*
X151401404Y-73786484D01*
X151401399Y-73786478D01*
X151370385Y-73755465D01*
X151358019Y-73743099D01*
X151354828Y-73739655D01*
X151328633Y-73709142D01*
X151314866Y-73693105D01*
X151312052Y-73690927D01*
X151287694Y-73672072D01*
X151281807Y-73666887D01*
X149560973Y-71946053D01*
X149559915Y-71944967D01*
X149499061Y-71880949D01*
X149499060Y-71880948D01*
X149499059Y-71880947D01*
X149464122Y-71856630D01*
X149448709Y-71845902D01*
X149444946Y-71843064D01*
X149397413Y-71804305D01*
X149397406Y-71804300D01*
X149366959Y-71788397D01*
X149360251Y-71784334D01*
X149332049Y-71764705D01*
X149332046Y-71764703D01*
X149332045Y-71764703D01*
X149332041Y-71764701D01*
X149275680Y-71740514D01*
X149271424Y-71738493D01*
X149217057Y-71710094D01*
X149217050Y-71710091D01*
X149217049Y-71710091D01*
X149211008Y-71708362D01*
X149184030Y-71700642D01*
X149176630Y-71698008D01*
X149145057Y-71684459D01*
X149145058Y-71684459D01*
X149084966Y-71672109D01*
X149080391Y-71670986D01*
X149021420Y-71654113D01*
X149021425Y-71654113D01*
X148987158Y-71651503D01*
X148979380Y-71650412D01*
X148945742Y-71643500D01*
X148945741Y-71643500D01*
X148884402Y-71643500D01*
X148879695Y-71643321D01*
X148874121Y-71642896D01*
X148818524Y-71638662D01*
X148798589Y-71641201D01*
X148784440Y-71643003D01*
X148776611Y-71643500D01*
X148497244Y-71643500D01*
X148430205Y-71623815D01*
X148384450Y-71571011D01*
X148374506Y-71501853D01*
X148403531Y-71438297D01*
X148416472Y-71425416D01*
X148432261Y-71411861D01*
X148470851Y-71378731D01*
X148471792Y-71377942D01*
X148538883Y-71322883D01*
X148539103Y-71322614D01*
X148554198Y-71307180D01*
X148556895Y-71304866D01*
X148609925Y-71236355D01*
X148610998Y-71235011D01*
X148663907Y-71170542D01*
X148663907Y-71170541D01*
X148663910Y-71170538D01*
X148665766Y-71167063D01*
X148677076Y-71149605D01*
X148681448Y-71143958D01*
X148706928Y-71092011D01*
X148718118Y-71069199D01*
X148719082Y-71067314D01*
X148756814Y-70996727D01*
X148759000Y-70989517D01*
X148766330Y-70970912D01*
X148771060Y-70961271D01*
X148791090Y-70883906D01*
X148791762Y-70881518D01*
X148814024Y-70808132D01*
X148815113Y-70797065D01*
X148818473Y-70778148D01*
X148822063Y-70764285D01*
X148825938Y-70687861D01*
X148826154Y-70684967D01*
X148833341Y-70612000D01*
X148831899Y-70597369D01*
X148831462Y-70578937D01*
X148832369Y-70561064D01*
X148821291Y-70488754D01*
X148820878Y-70485464D01*
X148818342Y-70459715D01*
X148814024Y-70415868D01*
X148808713Y-70398361D01*
X148804809Y-70381167D01*
X148801556Y-70359929D01*
X148777320Y-70294494D01*
X148776135Y-70290969D01*
X148756814Y-70227273D01*
X148744518Y-70204270D01*
X148741055Y-70196572D01*
X148730887Y-70169116D01*
X148730886Y-70169113D01*
X148695756Y-70112751D01*
X148693702Y-70109199D01*
X148671392Y-70067459D01*
X148663911Y-70053463D01*
X148663909Y-70053460D01*
X148645225Y-70030694D01*
X148640534Y-70024156D01*
X148623252Y-69996429D01*
X148579802Y-69950720D01*
X148576840Y-69947368D01*
X148538883Y-69901117D01*
X148538881Y-69901115D01*
X148538880Y-69901114D01*
X148513500Y-69880285D01*
X148507894Y-69875073D01*
X148483059Y-69848947D01*
X148477691Y-69845211D01*
X148434090Y-69814863D01*
X148430184Y-69811909D01*
X148386538Y-69776090D01*
X148386535Y-69776088D01*
X148386531Y-69776085D01*
X148354602Y-69759019D01*
X148348406Y-69755225D01*
X148316051Y-69732706D01*
X148264328Y-69710509D01*
X148259552Y-69708213D01*
X148212727Y-69683186D01*
X148212721Y-69683183D01*
X148174841Y-69671692D01*
X148168388Y-69669337D01*
X148129061Y-69652461D01*
X148129059Y-69652460D01*
X148129058Y-69652460D01*
X148077218Y-69641806D01*
X148071708Y-69640407D01*
X148024139Y-69625977D01*
X148024128Y-69625975D01*
X147981368Y-69621763D01*
X147974962Y-69620792D01*
X147929743Y-69611500D01*
X147929741Y-69611500D01*
X147880200Y-69611500D01*
X147874119Y-69611201D01*
X147828000Y-69606659D01*
X147781881Y-69611201D01*
X147775800Y-69611500D01*
X144832200Y-69611500D01*
X144826119Y-69611201D01*
X144780000Y-69606659D01*
X144734001Y-69611189D01*
X144731062Y-69611408D01*
X144729257Y-69611499D01*
X144680388Y-69616468D01*
X144583859Y-69625976D01*
X144583558Y-69626037D01*
X144577767Y-69626904D01*
X144577576Y-69626923D01*
X144577554Y-69626927D01*
X144509667Y-69648227D01*
X144485007Y-69655965D01*
X144436450Y-69670695D01*
X144395265Y-69683188D01*
X144388515Y-69685984D01*
X144383460Y-69687820D01*
X144383405Y-69687844D01*
X144301327Y-69733400D01*
X144221464Y-69776088D01*
X144216402Y-69779471D01*
X144216268Y-69779270D01*
X144205566Y-69786542D01*
X144205498Y-69786590D01*
X144137212Y-69845211D01*
X144136160Y-69846094D01*
X144069119Y-69901113D01*
X144069109Y-69901123D01*
X144068864Y-69901423D01*
X144053821Y-69916801D01*
X144051111Y-69919128D01*
X144051107Y-69919132D01*
X144051105Y-69919134D01*
X143998074Y-69987642D01*
X143996995Y-69988996D01*
X143944093Y-70053456D01*
X143944085Y-70053469D01*
X143942224Y-70056951D01*
X143930937Y-70074374D01*
X143926555Y-70080035D01*
X143926553Y-70080038D01*
X143889880Y-70154802D01*
X143888895Y-70156724D01*
X143851185Y-70227273D01*
X143851185Y-70227274D01*
X143848998Y-70234483D01*
X143841672Y-70253079D01*
X143836943Y-70262721D01*
X143836939Y-70262731D01*
X143816920Y-70340045D01*
X143816230Y-70342501D01*
X143793976Y-70415866D01*
X143792885Y-70426938D01*
X143789527Y-70445848D01*
X143785937Y-70459715D01*
X143782060Y-70536123D01*
X143781841Y-70539057D01*
X143774659Y-70611995D01*
X143774659Y-70612003D01*
X143776099Y-70626630D01*
X143776537Y-70645053D01*
X143775631Y-70662936D01*
X143784095Y-70718193D01*
X143786703Y-70735214D01*
X143787119Y-70738524D01*
X143793975Y-70808131D01*
X143799282Y-70825626D01*
X143803189Y-70842831D01*
X143806443Y-70864068D01*
X143806445Y-70864075D01*
X143830670Y-70929483D01*
X143831860Y-70933019D01*
X143851186Y-70996728D01*
X143863478Y-71019724D01*
X143866943Y-71027426D01*
X143871832Y-71040627D01*
X143877114Y-71054887D01*
X143877115Y-71054888D01*
X143877116Y-71054892D01*
X143895893Y-71085016D01*
X143912243Y-71111247D01*
X143914299Y-71114806D01*
X143944090Y-71170538D01*
X143962776Y-71193308D01*
X143967469Y-71199850D01*
X143984255Y-71226781D01*
X143984748Y-71227571D01*
X144028194Y-71273276D01*
X144031172Y-71276647D01*
X144069117Y-71322883D01*
X144094502Y-71343717D01*
X144100093Y-71348914D01*
X144124941Y-71375053D01*
X144173918Y-71409143D01*
X144177810Y-71412086D01*
X144221462Y-71447910D01*
X144253399Y-71464980D01*
X144259585Y-71468767D01*
X144288670Y-71489011D01*
X144291951Y-71491295D01*
X144343688Y-71513497D01*
X144348441Y-71515781D01*
X144352807Y-71518115D01*
X144402641Y-71567086D01*
X144418090Y-71635226D01*
X144394246Y-71700902D01*
X144354509Y-71735882D01*
X144301327Y-71765399D01*
X144221465Y-71808087D01*
X144216402Y-71811471D01*
X144216268Y-71811270D01*
X144205566Y-71818542D01*
X144205498Y-71818590D01*
X144137212Y-71877211D01*
X144136160Y-71878094D01*
X144069119Y-71933113D01*
X144069109Y-71933123D01*
X144068864Y-71933423D01*
X144053821Y-71948801D01*
X144051111Y-71951128D01*
X144051107Y-71951132D01*
X144051105Y-71951134D01*
X143998074Y-72019642D01*
X143996995Y-72020996D01*
X143944093Y-72085456D01*
X143944085Y-72085469D01*
X143942224Y-72088951D01*
X143930937Y-72106374D01*
X143926555Y-72112035D01*
X143926553Y-72112038D01*
X143889880Y-72186802D01*
X143888895Y-72188724D01*
X143851185Y-72259273D01*
X143851185Y-72259274D01*
X143848998Y-72266483D01*
X143841672Y-72285079D01*
X143836943Y-72294721D01*
X143836939Y-72294731D01*
X143816920Y-72372045D01*
X143816230Y-72374501D01*
X143793976Y-72447866D01*
X143792885Y-72458938D01*
X143789527Y-72477848D01*
X143785937Y-72491715D01*
X143782060Y-72568123D01*
X143781841Y-72571057D01*
X143774659Y-72643995D01*
X143774659Y-72644003D01*
X143776099Y-72658630D01*
X143776537Y-72677053D01*
X143775631Y-72694936D01*
X143784095Y-72750193D01*
X143786703Y-72767214D01*
X143787119Y-72770524D01*
X143793975Y-72840131D01*
X143799282Y-72857626D01*
X143803189Y-72874831D01*
X143806443Y-72896068D01*
X143806445Y-72896075D01*
X143830670Y-72961483D01*
X143831860Y-72965019D01*
X143851186Y-73028728D01*
X143863478Y-73051724D01*
X143866943Y-73059426D01*
X143871832Y-73072627D01*
X143877114Y-73086887D01*
X143877115Y-73086888D01*
X143877116Y-73086892D01*
X143898444Y-73121108D01*
X143912243Y-73143247D01*
X143914299Y-73146806D01*
X143944090Y-73202538D01*
X143962776Y-73225308D01*
X143967469Y-73231850D01*
X143984748Y-73259571D01*
X144028194Y-73305276D01*
X144031172Y-73308647D01*
X144069117Y-73354883D01*
X144094502Y-73375717D01*
X144100093Y-73380914D01*
X144124941Y-73407053D01*
X144173914Y-73441140D01*
X144177817Y-73444092D01*
X144191899Y-73455649D01*
X144231232Y-73513395D01*
X144233101Y-73583240D01*
X144196913Y-73643007D01*
X144134156Y-73673722D01*
X144113232Y-73675500D01*
X140221453Y-73675500D01*
X140219891Y-73675480D01*
X140131637Y-73673244D01*
X140131626Y-73673245D01*
X140071271Y-73684062D01*
X140066607Y-73684716D01*
X140005563Y-73690925D01*
X140005555Y-73690927D01*
X139972781Y-73701210D01*
X139965153Y-73703082D01*
X139931349Y-73709141D01*
X139874381Y-73731895D01*
X139869945Y-73733474D01*
X139811414Y-73751840D01*
X139811410Y-73751842D01*
X139781378Y-73768510D01*
X139774284Y-73771879D01*
X139742382Y-73784623D01*
X139742377Y-73784625D01*
X139691156Y-73818381D01*
X139687128Y-73820822D01*
X139633501Y-73850588D01*
X139607434Y-73872965D01*
X139601165Y-73877692D01*
X139572484Y-73896595D01*
X139572478Y-73896600D01*
X139529109Y-73939968D01*
X139525655Y-73943169D01*
X139479102Y-73983136D01*
X139479101Y-73983137D01*
X139458077Y-74010298D01*
X139452885Y-74016193D01*
X138240090Y-75228988D01*
X138238966Y-75230084D01*
X138174946Y-75290942D01*
X138139899Y-75341294D01*
X138137062Y-75345056D01*
X138098302Y-75392592D01*
X138098299Y-75392597D01*
X138082392Y-75423047D01*
X138078324Y-75429761D01*
X138058702Y-75457954D01*
X138034509Y-75514330D01*
X138032488Y-75518584D01*
X138004091Y-75572951D01*
X138004090Y-75572952D01*
X137994640Y-75605975D01*
X137992007Y-75613371D01*
X137978459Y-75644943D01*
X137966113Y-75705019D01*
X137964990Y-75709595D01*
X137948113Y-75768577D01*
X137948113Y-75768579D01*
X137945503Y-75802841D01*
X137944414Y-75810608D01*
X137943179Y-75816623D01*
X137937500Y-75844258D01*
X137937500Y-75905597D01*
X137937321Y-75910306D01*
X137932662Y-75971474D01*
X137933133Y-75975169D01*
X137937003Y-76005560D01*
X137937500Y-76013388D01*
X137937500Y-87926217D01*
X137917815Y-87993256D01*
X137901181Y-88013898D01*
X130939899Y-94975181D01*
X130878576Y-95008666D01*
X130852218Y-95011500D01*
X117654200Y-95011500D01*
X117648119Y-95011201D01*
X117602000Y-95006659D01*
X117556001Y-95011189D01*
X117553062Y-95011408D01*
X117551257Y-95011499D01*
X117502388Y-95016468D01*
X117405859Y-95025976D01*
X117405558Y-95026037D01*
X117399767Y-95026904D01*
X117399576Y-95026923D01*
X117399554Y-95026927D01*
X117331667Y-95048227D01*
X117307007Y-95055965D01*
X117252403Y-95072529D01*
X117217265Y-95083188D01*
X117210515Y-95085984D01*
X117205460Y-95087820D01*
X117205405Y-95087844D01*
X117123327Y-95133400D01*
X117043464Y-95176088D01*
X117038402Y-95179471D01*
X117038268Y-95179270D01*
X117027566Y-95186542D01*
X117027498Y-95186590D01*
X116959212Y-95245211D01*
X116958160Y-95246094D01*
X116891119Y-95301113D01*
X116891109Y-95301123D01*
X116890864Y-95301423D01*
X116875821Y-95316801D01*
X116873111Y-95319128D01*
X116873107Y-95319132D01*
X116873105Y-95319134D01*
X116820074Y-95387642D01*
X116818995Y-95388996D01*
X116766093Y-95453456D01*
X116766085Y-95453469D01*
X116764224Y-95456951D01*
X116752937Y-95474374D01*
X116748555Y-95480035D01*
X116748553Y-95480038D01*
X116711880Y-95554802D01*
X116710895Y-95556724D01*
X116673185Y-95627273D01*
X116673185Y-95627274D01*
X116670998Y-95634483D01*
X116663672Y-95653079D01*
X116658943Y-95662721D01*
X116658939Y-95662731D01*
X116638920Y-95740045D01*
X116638230Y-95742501D01*
X116615976Y-95815866D01*
X116614885Y-95826938D01*
X116611527Y-95845848D01*
X116607937Y-95859715D01*
X116604060Y-95936123D01*
X116603841Y-95939057D01*
X116596658Y-96011995D01*
X116596659Y-96012003D01*
X116598099Y-96026630D01*
X116598537Y-96045053D01*
X116597631Y-96062936D01*
X116606095Y-96118193D01*
X116608703Y-96135214D01*
X116609119Y-96138524D01*
X116615975Y-96208131D01*
X116621282Y-96225626D01*
X116625189Y-96242831D01*
X116628443Y-96264068D01*
X116628445Y-96264075D01*
X116652670Y-96329483D01*
X116653860Y-96333019D01*
X116673186Y-96396728D01*
X116685478Y-96419724D01*
X116688943Y-96427426D01*
X116693832Y-96440627D01*
X116699114Y-96454887D01*
X116699115Y-96454888D01*
X116699116Y-96454892D01*
X116723364Y-96493793D01*
X116734243Y-96511247D01*
X116736299Y-96514806D01*
X116766090Y-96570538D01*
X116784776Y-96593308D01*
X116789469Y-96599850D01*
X116806748Y-96627571D01*
X116850194Y-96673276D01*
X116853172Y-96676647D01*
X116891117Y-96722883D01*
X116916502Y-96743717D01*
X116922093Y-96748914D01*
X116946941Y-96775053D01*
X116995931Y-96809151D01*
X116999810Y-96812086D01*
X117032266Y-96838722D01*
X117039486Y-96844647D01*
X117078820Y-96902393D01*
X117080691Y-96972237D01*
X117044503Y-97032006D01*
X116981747Y-97062721D01*
X116960821Y-97064500D01*
X110646855Y-97064500D01*
X110579816Y-97044815D01*
X110555626Y-97024483D01*
X110493747Y-96957265D01*
X110493744Y-96957262D01*
X110482330Y-96948378D01*
X110410991Y-96892852D01*
X110370179Y-96836143D01*
X110366504Y-96766370D01*
X110401136Y-96705687D01*
X110410985Y-96697151D01*
X110493744Y-96632738D01*
X110662164Y-96449785D01*
X110798173Y-96241607D01*
X110898063Y-96013881D01*
X110959108Y-95772821D01*
X110959109Y-95772812D01*
X110979643Y-95525005D01*
X110979643Y-95524994D01*
X110959109Y-95277187D01*
X110959107Y-95277175D01*
X110898063Y-95036118D01*
X110798173Y-94808393D01*
X110662166Y-94600217D01*
X110640557Y-94576744D01*
X110493744Y-94417262D01*
X110410991Y-94352852D01*
X110370179Y-94296143D01*
X110366504Y-94226370D01*
X110401136Y-94165687D01*
X110410985Y-94157151D01*
X110493744Y-94092738D01*
X110662164Y-93909785D01*
X110798173Y-93701607D01*
X110898063Y-93473881D01*
X110959108Y-93232821D01*
X110960336Y-93218000D01*
X110979643Y-92985005D01*
X110979643Y-92984994D01*
X110959109Y-92737187D01*
X110959107Y-92737175D01*
X110898063Y-92496118D01*
X110798173Y-92268393D01*
X110662166Y-92060217D01*
X110597726Y-91990217D01*
X110493744Y-91877262D01*
X110410991Y-91812852D01*
X110370179Y-91756143D01*
X110366504Y-91686370D01*
X110401136Y-91625687D01*
X110410985Y-91617151D01*
X110493744Y-91552738D01*
X110518194Y-91526177D01*
X110555626Y-91485517D01*
X110615513Y-91449526D01*
X110646855Y-91445500D01*
X116551507Y-91445500D01*
X116553069Y-91445519D01*
X116590283Y-91446462D01*
X116641358Y-91447757D01*
X116641358Y-91447756D01*
X116641363Y-91447757D01*
X116701753Y-91436932D01*
X116706412Y-91436280D01*
X116748607Y-91431988D01*
X116767438Y-91430074D01*
X116800227Y-91419786D01*
X116807840Y-91417918D01*
X116841653Y-91411858D01*
X116898621Y-91389101D01*
X116903053Y-91387524D01*
X116961588Y-91369159D01*
X116991627Y-91352484D01*
X116998708Y-91349122D01*
X117030617Y-91336377D01*
X117081854Y-91302608D01*
X117085851Y-91300187D01*
X117139502Y-91270409D01*
X117165568Y-91248030D01*
X117171843Y-91243300D01*
X117200519Y-91224402D01*
X117243892Y-91181027D01*
X117247350Y-91177823D01*
X117250613Y-91175020D01*
X117293895Y-91137866D01*
X117314928Y-91110691D01*
X117320098Y-91104821D01*
X120839981Y-87584937D01*
X120840994Y-87583950D01*
X120905053Y-87523059D01*
X120936593Y-87477743D01*
X120940099Y-87472706D01*
X120942938Y-87468941D01*
X120946612Y-87464435D01*
X120981698Y-87421407D01*
X120997601Y-87390960D01*
X121001674Y-87384239D01*
X121006489Y-87377320D01*
X121021295Y-87356049D01*
X121045492Y-87299660D01*
X121047498Y-87295435D01*
X121075909Y-87241049D01*
X121085360Y-87208015D01*
X121087991Y-87200628D01*
X121093242Y-87188393D01*
X121101540Y-87169058D01*
X121113893Y-87108940D01*
X121115006Y-87104412D01*
X121131887Y-87045418D01*
X121134495Y-87011155D01*
X121135587Y-87003376D01*
X121140956Y-86977256D01*
X121142500Y-86969741D01*
X121142500Y-86908401D01*
X121142679Y-86903692D01*
X121147337Y-86842524D01*
X121147337Y-86842523D01*
X121142995Y-86808440D01*
X121142499Y-86800606D01*
X121142499Y-84123630D01*
X121142499Y-81491778D01*
X121162184Y-81424743D01*
X121178813Y-81404106D01*
X121286167Y-81296752D01*
X121347488Y-81263269D01*
X121417180Y-81268253D01*
X121473113Y-81310125D01*
X121497530Y-81375589D01*
X121493060Y-81418552D01*
X121484640Y-81447974D01*
X121482007Y-81455371D01*
X121468459Y-81486943D01*
X121456113Y-81547019D01*
X121454990Y-81551595D01*
X121438113Y-81610577D01*
X121438113Y-81610579D01*
X121435503Y-81644841D01*
X121434414Y-81652610D01*
X121432251Y-81663136D01*
X121427499Y-81686258D01*
X121427499Y-81747599D01*
X121427320Y-81752307D01*
X121422662Y-81813474D01*
X121424067Y-81824500D01*
X121427003Y-81847560D01*
X121427500Y-81855388D01*
X121427500Y-91990217D01*
X121407815Y-92057256D01*
X121391181Y-92077898D01*
X120995451Y-92473627D01*
X120990941Y-92477715D01*
X120955119Y-92507114D01*
X120925794Y-92542845D01*
X120923886Y-92545062D01*
X120922663Y-92546415D01*
X120891552Y-92584568D01*
X120830080Y-92659473D01*
X120829912Y-92659725D01*
X120826441Y-92664421D01*
X120826309Y-92664582D01*
X120826299Y-92664597D01*
X120781402Y-92750546D01*
X120737182Y-92833279D01*
X120734382Y-92840038D01*
X120732115Y-92844891D01*
X120732089Y-92844957D01*
X120706286Y-92935132D01*
X120679974Y-93021871D01*
X120678788Y-93027837D01*
X120678552Y-93027790D01*
X120676125Y-93040514D01*
X120676112Y-93040587D01*
X120669280Y-93130306D01*
X120669160Y-93131674D01*
X120660659Y-93217998D01*
X120660659Y-93218005D01*
X120660694Y-93218361D01*
X120660933Y-93239923D01*
X120660662Y-93243472D01*
X120671604Y-93329393D01*
X120671802Y-93331148D01*
X120679975Y-93414130D01*
X120679977Y-93414137D01*
X120681125Y-93417923D01*
X120685463Y-93438220D01*
X120686368Y-93445324D01*
X120686369Y-93445329D01*
X120713297Y-93524110D01*
X120713960Y-93526164D01*
X120737186Y-93602728D01*
X120737188Y-93602733D01*
X120740735Y-93609369D01*
X120748708Y-93627705D01*
X120752184Y-93637872D01*
X120792700Y-93706699D01*
X120793949Y-93708924D01*
X120830091Y-93776539D01*
X120830092Y-93776540D01*
X120837143Y-93785133D01*
X120848143Y-93800884D01*
X120855409Y-93813226D01*
X120906695Y-93869991D01*
X120908609Y-93872213D01*
X120925721Y-93893064D01*
X120955118Y-93928884D01*
X120966473Y-93938203D01*
X120979815Y-93950926D01*
X120991816Y-93964209D01*
X120991820Y-93964212D01*
X120991821Y-93964213D01*
X121050774Y-94007503D01*
X121053402Y-94009544D01*
X121107460Y-94053909D01*
X121123583Y-94062527D01*
X121138519Y-94071936D01*
X121155831Y-94084648D01*
X121155832Y-94084648D01*
X121155833Y-94084649D01*
X121219230Y-94113778D01*
X121222556Y-94115430D01*
X121254338Y-94132417D01*
X121281273Y-94146814D01*
X121300117Y-94152530D01*
X121306231Y-94154385D01*
X121314127Y-94157380D01*
X121340732Y-94169605D01*
X121405421Y-94184616D01*
X121409366Y-94185670D01*
X121469868Y-94204024D01*
X121499194Y-94206912D01*
X121507115Y-94208216D01*
X121538946Y-94215603D01*
X121538941Y-94215603D01*
X121549740Y-94215876D01*
X121601978Y-94217200D01*
X121606470Y-94217477D01*
X121666000Y-94223341D01*
X121698676Y-94220121D01*
X121706328Y-94219843D01*
X121737136Y-94220624D01*
X121742360Y-94220757D01*
X121742360Y-94220756D01*
X121742363Y-94220757D01*
X121801100Y-94210229D01*
X121805948Y-94209557D01*
X121862132Y-94204024D01*
X121896808Y-94193504D01*
X121903836Y-94191814D01*
X121942653Y-94184858D01*
X121961143Y-94177471D01*
X121994928Y-94163977D01*
X121999932Y-94162222D01*
X122050727Y-94146814D01*
X122085653Y-94128145D01*
X122091856Y-94125258D01*
X122131617Y-94109377D01*
X122175825Y-94080239D01*
X122180678Y-94077352D01*
X122224538Y-94053910D01*
X122257764Y-94026640D01*
X122262957Y-94022815D01*
X122301519Y-93997402D01*
X122336562Y-93962357D01*
X122341063Y-93958279D01*
X122365526Y-93938203D01*
X122376883Y-93928883D01*
X122406279Y-93893062D01*
X122410357Y-93888562D01*
X123126001Y-93172918D01*
X123127014Y-93171931D01*
X123191053Y-93111059D01*
X123226112Y-93060686D01*
X123228925Y-93056957D01*
X123267698Y-93009407D01*
X123283607Y-92978948D01*
X123287667Y-92972248D01*
X123307295Y-92944049D01*
X123331492Y-92887660D01*
X123333498Y-92883435D01*
X123361909Y-92829049D01*
X123371360Y-92796015D01*
X123373991Y-92788628D01*
X123387540Y-92757058D01*
X123399893Y-92696940D01*
X123401006Y-92692412D01*
X123417887Y-92633418D01*
X123420495Y-92599155D01*
X123421587Y-92591376D01*
X123422985Y-92584577D01*
X123428500Y-92557741D01*
X123428500Y-92496401D01*
X123428679Y-92491692D01*
X123433337Y-92430525D01*
X123428997Y-92396441D01*
X123428500Y-92388602D01*
X123428500Y-82253782D01*
X123448185Y-82186743D01*
X123464819Y-82166101D01*
X125854101Y-79776819D01*
X125915424Y-79743334D01*
X125941782Y-79740500D01*
X127455800Y-79740500D01*
X127461881Y-79740799D01*
X127471930Y-79741788D01*
X127508000Y-79745341D01*
X127539510Y-79742237D01*
X127553999Y-79740811D01*
X127556941Y-79740591D01*
X127558738Y-79740500D01*
X127558742Y-79740500D01*
X127607663Y-79735525D01*
X127704132Y-79726024D01*
X127704151Y-79726017D01*
X127704391Y-79725971D01*
X127710230Y-79725095D01*
X127710438Y-79725074D01*
X127802992Y-79696034D01*
X127892727Y-79668814D01*
X127892735Y-79668809D01*
X127899463Y-79666023D01*
X127904533Y-79664181D01*
X127904575Y-79664162D01*
X127904588Y-79664159D01*
X127986648Y-79618612D01*
X128066538Y-79575910D01*
X128066544Y-79575904D01*
X128071604Y-79572525D01*
X128071740Y-79572729D01*
X128082215Y-79565608D01*
X128082503Y-79565408D01*
X128150854Y-79506728D01*
X128151749Y-79505977D01*
X128218883Y-79450883D01*
X128219103Y-79450614D01*
X128234198Y-79435180D01*
X128236895Y-79432866D01*
X128289925Y-79364355D01*
X128290998Y-79363011D01*
X128343907Y-79298542D01*
X128343907Y-79298541D01*
X128343910Y-79298538D01*
X128345766Y-79295063D01*
X128357076Y-79277605D01*
X128361448Y-79271958D01*
X128398118Y-79197199D01*
X128399082Y-79195314D01*
X128436814Y-79124727D01*
X128439000Y-79117517D01*
X128446330Y-79098912D01*
X128451060Y-79089271D01*
X128471090Y-79011906D01*
X128471762Y-79009518D01*
X128494024Y-78936132D01*
X128495113Y-78925065D01*
X128498473Y-78906148D01*
X128502063Y-78892285D01*
X128505938Y-78815861D01*
X128506154Y-78812967D01*
X128513341Y-78740000D01*
X128511899Y-78725369D01*
X128511462Y-78706937D01*
X128512369Y-78689064D01*
X128501291Y-78616754D01*
X128500878Y-78613464D01*
X128494024Y-78543872D01*
X128494024Y-78543868D01*
X128488713Y-78526361D01*
X128484809Y-78509167D01*
X128481556Y-78487929D01*
X128457320Y-78422494D01*
X128456135Y-78418969D01*
X128436814Y-78355273D01*
X128424518Y-78332270D01*
X128421055Y-78324572D01*
X128410887Y-78297116D01*
X128410886Y-78297113D01*
X128375756Y-78240751D01*
X128373702Y-78237199D01*
X128343910Y-78181462D01*
X128343909Y-78181460D01*
X128325225Y-78158694D01*
X128320534Y-78152156D01*
X128303252Y-78124429D01*
X128259802Y-78078720D01*
X128256840Y-78075368D01*
X128218883Y-78029117D01*
X128218881Y-78029115D01*
X128218880Y-78029114D01*
X128193500Y-78008285D01*
X128187894Y-78003073D01*
X128163059Y-77976947D01*
X128114088Y-77942861D01*
X128110184Y-77939909D01*
X128066538Y-77904090D01*
X128066535Y-77904088D01*
X128066531Y-77904085D01*
X128034602Y-77887019D01*
X128028406Y-77883225D01*
X127996051Y-77860706D01*
X127944332Y-77838511D01*
X127939565Y-77836220D01*
X127935234Y-77833905D01*
X127885380Y-77784952D01*
X127869906Y-77716818D01*
X127893726Y-77651133D01*
X127933487Y-77616118D01*
X127986648Y-77586612D01*
X128066538Y-77543910D01*
X128066539Y-77543908D01*
X128066541Y-77543908D01*
X128071604Y-77540525D01*
X128071740Y-77540729D01*
X128082215Y-77533608D01*
X128082503Y-77533408D01*
X128150854Y-77474728D01*
X128151749Y-77473977D01*
X128218883Y-77418883D01*
X128219103Y-77418614D01*
X128234198Y-77403180D01*
X128236895Y-77400866D01*
X128289925Y-77332355D01*
X128290998Y-77331011D01*
X128343907Y-77266542D01*
X128343907Y-77266541D01*
X128343910Y-77266538D01*
X128345766Y-77263063D01*
X128357076Y-77245605D01*
X128361448Y-77239958D01*
X128398118Y-77165199D01*
X128399082Y-77163314D01*
X128436814Y-77092727D01*
X128439000Y-77085517D01*
X128446330Y-77066912D01*
X128451060Y-77057271D01*
X128471090Y-76979906D01*
X128471762Y-76977518D01*
X128494024Y-76904132D01*
X128495113Y-76893065D01*
X128498473Y-76874148D01*
X128502063Y-76860285D01*
X128505938Y-76783861D01*
X128506154Y-76780967D01*
X128513341Y-76708000D01*
X128511899Y-76693369D01*
X128511462Y-76674937D01*
X128512369Y-76657064D01*
X128501291Y-76584754D01*
X128500878Y-76581464D01*
X128494024Y-76511872D01*
X128494024Y-76511868D01*
X128488713Y-76494361D01*
X128484809Y-76477167D01*
X128481556Y-76455929D01*
X128457320Y-76390494D01*
X128456135Y-76386969D01*
X128455746Y-76385687D01*
X128436814Y-76323273D01*
X128424518Y-76300270D01*
X128421055Y-76292572D01*
X128410887Y-76265116D01*
X128410886Y-76265113D01*
X128375756Y-76208751D01*
X128373702Y-76205199D01*
X128351970Y-76164541D01*
X128343911Y-76149463D01*
X128343909Y-76149460D01*
X128325225Y-76126694D01*
X128320534Y-76120156D01*
X128303252Y-76092429D01*
X128259802Y-76046720D01*
X128256840Y-76043368D01*
X128218883Y-75997117D01*
X128218881Y-75997115D01*
X128218880Y-75997114D01*
X128193500Y-75976285D01*
X128187894Y-75971073D01*
X128163059Y-75944947D01*
X128139564Y-75928594D01*
X128114090Y-75910863D01*
X128110184Y-75907909D01*
X128066538Y-75872090D01*
X128066535Y-75872088D01*
X128066531Y-75872085D01*
X128034602Y-75855019D01*
X128028406Y-75851225D01*
X127996051Y-75828706D01*
X127996049Y-75828705D01*
X127944328Y-75806509D01*
X127939565Y-75804220D01*
X127935234Y-75801905D01*
X127885380Y-75752952D01*
X127869906Y-75684818D01*
X127893726Y-75619133D01*
X127933487Y-75584118D01*
X127986648Y-75554612D01*
X128066538Y-75511910D01*
X128066539Y-75511908D01*
X128066541Y-75511908D01*
X128071604Y-75508525D01*
X128071740Y-75508729D01*
X128082215Y-75501608D01*
X128082503Y-75501408D01*
X128150854Y-75442728D01*
X128151749Y-75441977D01*
X128218883Y-75386883D01*
X128219103Y-75386614D01*
X128234198Y-75371180D01*
X128236895Y-75368866D01*
X128289925Y-75300355D01*
X128290998Y-75299011D01*
X128343907Y-75234542D01*
X128343909Y-75234539D01*
X128343910Y-75234538D01*
X128345766Y-75231063D01*
X128357076Y-75213605D01*
X128361448Y-75207958D01*
X128398118Y-75133199D01*
X128399082Y-75131314D01*
X128436814Y-75060727D01*
X128439000Y-75053517D01*
X128446330Y-75034912D01*
X128451060Y-75025271D01*
X128471090Y-74947906D01*
X128471762Y-74945518D01*
X128494024Y-74872132D01*
X128495113Y-74861065D01*
X128498473Y-74842148D01*
X128502063Y-74828285D01*
X128505938Y-74751861D01*
X128506154Y-74748967D01*
X128513341Y-74676000D01*
X128511899Y-74661369D01*
X128511462Y-74642937D01*
X128512369Y-74625064D01*
X128501291Y-74552754D01*
X128500878Y-74549464D01*
X128496911Y-74509181D01*
X128494024Y-74479868D01*
X128488713Y-74462361D01*
X128484809Y-74445167D01*
X128481556Y-74423929D01*
X128457320Y-74358494D01*
X128456135Y-74354969D01*
X128436814Y-74291273D01*
X128424518Y-74268270D01*
X128421055Y-74260572D01*
X128410887Y-74233116D01*
X128410886Y-74233113D01*
X128375756Y-74176751D01*
X128373702Y-74173199D01*
X128343910Y-74117462D01*
X128343909Y-74117460D01*
X128325225Y-74094694D01*
X128320534Y-74088156D01*
X128303252Y-74060429D01*
X128259802Y-74014720D01*
X128256840Y-74011368D01*
X128218883Y-73965117D01*
X128218881Y-73965115D01*
X128218880Y-73965114D01*
X128193500Y-73944285D01*
X128187894Y-73939073D01*
X128163059Y-73912947D01*
X128149042Y-73903191D01*
X128114090Y-73878863D01*
X128110184Y-73875909D01*
X128066538Y-73840090D01*
X128066535Y-73840088D01*
X128066531Y-73840085D01*
X128034602Y-73823019D01*
X128028406Y-73819225D01*
X127996051Y-73796706D01*
X127972218Y-73786478D01*
X127944328Y-73774509D01*
X127939565Y-73772220D01*
X127935234Y-73769905D01*
X127885380Y-73720952D01*
X127869906Y-73652818D01*
X127893726Y-73587133D01*
X127933487Y-73552118D01*
X127986648Y-73522612D01*
X128066538Y-73479910D01*
X128066539Y-73479908D01*
X128066541Y-73479908D01*
X128071604Y-73476525D01*
X128071740Y-73476729D01*
X128082215Y-73469608D01*
X128082503Y-73469408D01*
X128098531Y-73455648D01*
X128150854Y-73410728D01*
X128151749Y-73409977D01*
X128218883Y-73354883D01*
X128219103Y-73354614D01*
X128234198Y-73339180D01*
X128236895Y-73336866D01*
X128289925Y-73268355D01*
X128290998Y-73267011D01*
X128343907Y-73202542D01*
X128343907Y-73202541D01*
X128343910Y-73202538D01*
X128345766Y-73199063D01*
X128357076Y-73181605D01*
X128361448Y-73175958D01*
X128398118Y-73101199D01*
X128399082Y-73099314D01*
X128436814Y-73028727D01*
X128439000Y-73021517D01*
X128446330Y-73002912D01*
X128451060Y-72993271D01*
X128471090Y-72915906D01*
X128471762Y-72913518D01*
X128494024Y-72840132D01*
X128495113Y-72829065D01*
X128498473Y-72810148D01*
X128502063Y-72796285D01*
X128505938Y-72719861D01*
X128506154Y-72716967D01*
X128513341Y-72644000D01*
X128511899Y-72629369D01*
X128511462Y-72610937D01*
X128512369Y-72593064D01*
X128501291Y-72520754D01*
X128500878Y-72517464D01*
X128498342Y-72491715D01*
X128494024Y-72447868D01*
X128488713Y-72430361D01*
X128484809Y-72413167D01*
X128481556Y-72391929D01*
X128457320Y-72326494D01*
X128456135Y-72322969D01*
X128436814Y-72259273D01*
X128424518Y-72236270D01*
X128421055Y-72228572D01*
X128410887Y-72201116D01*
X128410886Y-72201113D01*
X128375756Y-72144751D01*
X128373702Y-72141199D01*
X128355088Y-72106374D01*
X128343911Y-72085463D01*
X128343909Y-72085460D01*
X128325225Y-72062694D01*
X128320534Y-72056156D01*
X128303252Y-72028429D01*
X128259802Y-71982720D01*
X128256840Y-71979368D01*
X128218883Y-71933117D01*
X128218881Y-71933115D01*
X128218880Y-71933114D01*
X128193500Y-71912285D01*
X128187894Y-71907073D01*
X128163059Y-71880947D01*
X128142303Y-71866500D01*
X128128123Y-71856630D01*
X128084345Y-71802176D01*
X128076957Y-71732698D01*
X128108304Y-71670255D01*
X128118179Y-71660779D01*
X128150803Y-71632772D01*
X128151753Y-71631974D01*
X128218883Y-71576883D01*
X128219103Y-71576614D01*
X128234198Y-71561180D01*
X128236895Y-71558866D01*
X128289925Y-71490355D01*
X128290998Y-71489011D01*
X128343907Y-71424542D01*
X128343907Y-71424541D01*
X128343910Y-71424538D01*
X128345766Y-71421063D01*
X128357076Y-71403605D01*
X128361448Y-71397958D01*
X128385499Y-71348925D01*
X128398118Y-71323199D01*
X128399082Y-71321314D01*
X128436814Y-71250727D01*
X128439000Y-71243517D01*
X128446330Y-71224912D01*
X128451060Y-71215271D01*
X128471090Y-71137906D01*
X128471762Y-71135518D01*
X128494024Y-71062132D01*
X128495113Y-71051065D01*
X128498473Y-71032148D01*
X128502063Y-71018285D01*
X128505938Y-70941861D01*
X128506154Y-70938967D01*
X128513341Y-70866000D01*
X128511899Y-70851369D01*
X128511462Y-70832937D01*
X128511833Y-70825626D01*
X128512369Y-70815064D01*
X128501291Y-70742754D01*
X128500878Y-70739464D01*
X128494024Y-70669868D01*
X128488713Y-70652361D01*
X128484809Y-70635167D01*
X128481556Y-70613929D01*
X128457320Y-70548494D01*
X128456135Y-70544969D01*
X128453452Y-70536123D01*
X128436814Y-70481273D01*
X128424518Y-70458270D01*
X128421055Y-70450572D01*
X128412302Y-70426938D01*
X128410886Y-70423113D01*
X128375756Y-70366751D01*
X128373702Y-70363199D01*
X128343910Y-70307462D01*
X128343909Y-70307460D01*
X128325225Y-70284694D01*
X128320534Y-70278156D01*
X128303252Y-70250429D01*
X128259802Y-70204720D01*
X128256840Y-70201368D01*
X128218883Y-70155117D01*
X128218881Y-70155115D01*
X128218880Y-70155114D01*
X128193500Y-70134285D01*
X128187894Y-70129073D01*
X128163059Y-70102947D01*
X128139577Y-70086603D01*
X128114090Y-70068863D01*
X128110184Y-70065909D01*
X128066538Y-70030090D01*
X128066535Y-70030088D01*
X128066531Y-70030085D01*
X128034602Y-70013019D01*
X128028406Y-70009225D01*
X127996051Y-69986706D01*
X127944328Y-69964509D01*
X127939552Y-69962213D01*
X127892727Y-69937186D01*
X127892721Y-69937183D01*
X127854841Y-69925692D01*
X127848388Y-69923337D01*
X127809061Y-69906461D01*
X127809059Y-69906460D01*
X127809058Y-69906460D01*
X127757218Y-69895806D01*
X127751708Y-69894407D01*
X127704139Y-69879977D01*
X127704128Y-69879975D01*
X127661368Y-69875763D01*
X127654962Y-69874792D01*
X127609743Y-69865500D01*
X127609741Y-69865500D01*
X127560200Y-69865500D01*
X127554119Y-69865201D01*
X127508000Y-69860659D01*
X127461881Y-69865201D01*
X127455800Y-69865500D01*
X122187493Y-69865500D01*
X122185930Y-69865480D01*
X122097637Y-69863243D01*
X122097628Y-69863243D01*
X122044636Y-69872741D01*
X122037254Y-69874064D01*
X122032595Y-69874718D01*
X121971564Y-69880925D01*
X121971562Y-69880926D01*
X121938780Y-69891210D01*
X121931156Y-69893081D01*
X121923761Y-69894407D01*
X121897349Y-69899141D01*
X121897341Y-69899143D01*
X121840382Y-69921895D01*
X121835946Y-69923474D01*
X121777415Y-69941840D01*
X121777412Y-69941841D01*
X121777410Y-69941842D01*
X121777403Y-69941845D01*
X121747384Y-69958507D01*
X121740290Y-69961876D01*
X121708390Y-69974619D01*
X121708388Y-69974619D01*
X121708383Y-69974622D01*
X121708376Y-69974626D01*
X121708377Y-69974626D01*
X121657154Y-70008383D01*
X121653126Y-70010824D01*
X121599502Y-70040588D01*
X121599499Y-70040590D01*
X121573427Y-70062970D01*
X121567160Y-70067695D01*
X121538482Y-70086598D01*
X121538475Y-70086603D01*
X121495116Y-70129962D01*
X121491661Y-70133164D01*
X121445106Y-70173132D01*
X121445105Y-70173133D01*
X121424076Y-70200300D01*
X121418884Y-70206194D01*
X118490599Y-73134479D01*
X118429276Y-73167964D01*
X118359584Y-73162980D01*
X118303651Y-73121108D01*
X118279234Y-73055644D01*
X118290142Y-72999641D01*
X118288874Y-72999172D01*
X118291053Y-72993284D01*
X118291060Y-72993271D01*
X118311090Y-72915906D01*
X118311762Y-72913518D01*
X118334024Y-72840132D01*
X118335113Y-72829065D01*
X118338473Y-72810148D01*
X118342063Y-72796285D01*
X118345938Y-72719861D01*
X118346154Y-72716967D01*
X118353341Y-72644000D01*
X118351899Y-72629369D01*
X118351462Y-72610937D01*
X118352369Y-72593064D01*
X118341291Y-72520754D01*
X118340878Y-72517464D01*
X118338342Y-72491715D01*
X118334024Y-72447868D01*
X118328713Y-72430361D01*
X118324809Y-72413167D01*
X118321556Y-72391929D01*
X118297320Y-72326494D01*
X118296135Y-72322969D01*
X118276814Y-72259273D01*
X118264518Y-72236270D01*
X118261055Y-72228572D01*
X118250887Y-72201116D01*
X118250886Y-72201113D01*
X118215756Y-72144751D01*
X118213702Y-72141199D01*
X118195088Y-72106374D01*
X118183911Y-72085463D01*
X118183909Y-72085460D01*
X118165225Y-72062694D01*
X118160534Y-72056156D01*
X118143252Y-72028429D01*
X118099802Y-71982720D01*
X118096840Y-71979368D01*
X118058883Y-71933117D01*
X118058881Y-71933115D01*
X118058880Y-71933114D01*
X118033500Y-71912285D01*
X118027894Y-71907073D01*
X118003059Y-71880947D01*
X117997691Y-71877211D01*
X117954090Y-71846863D01*
X117950184Y-71843909D01*
X117906538Y-71808090D01*
X117906535Y-71808088D01*
X117906531Y-71808085D01*
X117874602Y-71791019D01*
X117868406Y-71787225D01*
X117836051Y-71764706D01*
X117836039Y-71764701D01*
X117784328Y-71742509D01*
X117779552Y-71740213D01*
X117732727Y-71715186D01*
X117732721Y-71715183D01*
X117694841Y-71703692D01*
X117688388Y-71701337D01*
X117649061Y-71684461D01*
X117649059Y-71684460D01*
X117649058Y-71684460D01*
X117597218Y-71673806D01*
X117591708Y-71672407D01*
X117544139Y-71657977D01*
X117544128Y-71657975D01*
X117501368Y-71653763D01*
X117494962Y-71652792D01*
X117449743Y-71643500D01*
X117449741Y-71643500D01*
X117400200Y-71643500D01*
X117394119Y-71643201D01*
X117348000Y-71638659D01*
X117301881Y-71643201D01*
X117295800Y-71643500D01*
X110627523Y-71643500D01*
X110560484Y-71623815D01*
X110536295Y-71603485D01*
X110493744Y-71557262D01*
X110297509Y-71404526D01*
X110297507Y-71404525D01*
X110297506Y-71404524D01*
X110078811Y-71286172D01*
X110078802Y-71286169D01*
X109843616Y-71205429D01*
X109598335Y-71164500D01*
X109567513Y-71164500D01*
X109500474Y-71144815D01*
X109454719Y-71092011D01*
X109444775Y-71022853D01*
X109473800Y-70959297D01*
X109532578Y-70921523D01*
X109539921Y-70919609D01*
X109561212Y-70914748D01*
X109571416Y-70912420D01*
X109815643Y-70816568D01*
X110042857Y-70685386D01*
X110247981Y-70521805D01*
X110280157Y-70487128D01*
X110314075Y-70450572D01*
X110426433Y-70329479D01*
X110574228Y-70112704D01*
X110688063Y-69876323D01*
X110765396Y-69625615D01*
X110804500Y-69366182D01*
X110804500Y-69103818D01*
X110765396Y-68844385D01*
X110688063Y-68593677D01*
X110676121Y-68568880D01*
X110574232Y-68357303D01*
X110574231Y-68357302D01*
X110574230Y-68357301D01*
X110574228Y-68357296D01*
X110426433Y-68140521D01*
X110416441Y-68129753D01*
X110247985Y-67948198D01*
X110208533Y-67916736D01*
X110042857Y-67784614D01*
X109815643Y-67653432D01*
X109571416Y-67557580D01*
X109571411Y-67557578D01*
X109571402Y-67557576D01*
X109353818Y-67507914D01*
X109315630Y-67499198D01*
X109315629Y-67499197D01*
X109315625Y-67499197D01*
X109315620Y-67499196D01*
X109119515Y-67484500D01*
X109119494Y-67484500D01*
X108988506Y-67484500D01*
X108988484Y-67484500D01*
X108792379Y-67499196D01*
X108792374Y-67499197D01*
X108536597Y-67557576D01*
X108536578Y-67557582D01*
X108292356Y-67653432D01*
X108065143Y-67784614D01*
X107860014Y-67948198D01*
X107681567Y-68140520D01*
X107533768Y-68357302D01*
X107533767Y-68357303D01*
X107419938Y-68593673D01*
X107342606Y-68844376D01*
X107342605Y-68844381D01*
X107342604Y-68844385D01*
X107327853Y-68942247D01*
X107303500Y-69103812D01*
X107303500Y-69366187D01*
X107323794Y-69500823D01*
X107342604Y-69625615D01*
X107342605Y-69625617D01*
X107342606Y-69625623D01*
X107389018Y-69776085D01*
X107419666Y-69875446D01*
X107419938Y-69876326D01*
X107533767Y-70112696D01*
X107533768Y-70112697D01*
X107533770Y-70112700D01*
X107533772Y-70112704D01*
X107648907Y-70281576D01*
X107681567Y-70329479D01*
X107860014Y-70521801D01*
X107860018Y-70521804D01*
X107860019Y-70521805D01*
X108065143Y-70685386D01*
X108292357Y-70816568D01*
X108536584Y-70912420D01*
X108792370Y-70970802D01*
X108792376Y-70970802D01*
X108792379Y-70970803D01*
X108988484Y-70985499D01*
X108988503Y-70985499D01*
X108988506Y-70985500D01*
X108988508Y-70985500D01*
X109001925Y-70985500D01*
X109068964Y-71005185D01*
X109114719Y-71057989D01*
X109124663Y-71127147D01*
X109095638Y-71190703D01*
X109042188Y-71226781D01*
X108869197Y-71286169D01*
X108869188Y-71286172D01*
X108650493Y-71404524D01*
X108454257Y-71557261D01*
X108285833Y-71740217D01*
X108149826Y-71948393D01*
X108049936Y-72176118D01*
X107988892Y-72417175D01*
X107988890Y-72417187D01*
X107968357Y-72664994D01*
X107968357Y-72665005D01*
X107988890Y-72912812D01*
X107988892Y-72912824D01*
X108049936Y-73153881D01*
X108149826Y-73381606D01*
X108285833Y-73589782D01*
X108285836Y-73589785D01*
X108454256Y-73772738D01*
X108537008Y-73837147D01*
X108577821Y-73893857D01*
X108581496Y-73963630D01*
X108546864Y-74024313D01*
X108537014Y-74032848D01*
X108503182Y-74059180D01*
X108454255Y-74097262D01*
X108454252Y-74097265D01*
X108392374Y-74164483D01*
X108332487Y-74200474D01*
X108301145Y-74204500D01*
X105896783Y-74204500D01*
X105829744Y-74184815D01*
X105809102Y-74168181D01*
X89428819Y-57787898D01*
X89395334Y-57726575D01*
X89392500Y-57700217D01*
X89392500Y-55220889D01*
X89661416Y-55220889D01*
X89661459Y-55245001D01*
X89661544Y-55245206D01*
X89661616Y-55245382D01*
X89661618Y-55245384D01*
X89661808Y-55245462D01*
X89662000Y-55245541D01*
X89662002Y-55245539D01*
X89686616Y-55245524D01*
X89686616Y-55245528D01*
X89686760Y-55245500D01*
X93193240Y-55245500D01*
X93193383Y-55245528D01*
X93193384Y-55245524D01*
X93217998Y-55245540D01*
X93218000Y-55245541D01*
X93218383Y-55245383D01*
X93218383Y-55245380D01*
X93223833Y-55243134D01*
X93293313Y-55235763D01*
X93355748Y-55267126D01*
X93386363Y-55311980D01*
X93530947Y-55675920D01*
X93530960Y-55675950D01*
X93817818Y-56291120D01*
X93817827Y-56291139D01*
X94139980Y-56888608D01*
X94139985Y-56888616D01*
X94496315Y-57466316D01*
X94496325Y-57466330D01*
X94496329Y-57466337D01*
X94885667Y-58022370D01*
X95306678Y-58554825D01*
X95757936Y-59061899D01*
X95757938Y-59061901D01*
X95757954Y-59061918D01*
X96237894Y-59541858D01*
X96237911Y-59541874D01*
X96237914Y-59541877D01*
X96744988Y-59993135D01*
X97277443Y-60414146D01*
X97833476Y-60803484D01*
X97833486Y-60803490D01*
X97833496Y-60803497D01*
X98264358Y-61069256D01*
X98411207Y-61159834D01*
X99008680Y-61481989D01*
X99623874Y-61768858D01*
X100254707Y-62019472D01*
X100899045Y-62232983D01*
X101554708Y-62408667D01*
X102219476Y-62545930D01*
X102891100Y-62644309D01*
X103567309Y-62703470D01*
X104245813Y-62723212D01*
X104924317Y-62703470D01*
X105600526Y-62644309D01*
X106272150Y-62545930D01*
X106936918Y-62408667D01*
X107592581Y-62232983D01*
X108236919Y-62019472D01*
X108867752Y-61768858D01*
X109482946Y-61481989D01*
X110080419Y-61159834D01*
X110658150Y-60803484D01*
X111214183Y-60414146D01*
X111746638Y-59993135D01*
X112253712Y-59541877D01*
X112733690Y-59061899D01*
X113184948Y-58554825D01*
X113605959Y-58022370D01*
X113995297Y-57466337D01*
X114351647Y-56888606D01*
X114673802Y-56291133D01*
X114960671Y-55675939D01*
X115211285Y-55045106D01*
X115424796Y-54400768D01*
X115600480Y-53745105D01*
X115737743Y-53080337D01*
X115836122Y-52408713D01*
X115895283Y-51732504D01*
X115915025Y-51054000D01*
X115895283Y-50375496D01*
X115836122Y-49699287D01*
X115737743Y-49027663D01*
X115621976Y-48467002D01*
X115600484Y-48362914D01*
X115600480Y-48362897D01*
X115600480Y-48362895D01*
X115424796Y-47707232D01*
X115211285Y-47062894D01*
X114960671Y-46432061D01*
X114673802Y-45816867D01*
X114351647Y-45219394D01*
X113997310Y-44644926D01*
X113995310Y-44641683D01*
X113995299Y-44641667D01*
X113995297Y-44641663D01*
X113605959Y-44085630D01*
X113184948Y-43553175D01*
X112733690Y-43046101D01*
X112733687Y-43046098D01*
X112733671Y-43046081D01*
X112253731Y-42566141D01*
X112253714Y-42566125D01*
X112239947Y-42553873D01*
X111746638Y-42114865D01*
X111214183Y-41693854D01*
X110658150Y-41304516D01*
X110658143Y-41304512D01*
X110658129Y-41304502D01*
X110080429Y-40948172D01*
X110080421Y-40948167D01*
X109482952Y-40626014D01*
X109482933Y-40626005D01*
X109465532Y-40617891D01*
X109283664Y-40533084D01*
X108867763Y-40339147D01*
X108867759Y-40339145D01*
X108867752Y-40339142D01*
X108867745Y-40339139D01*
X108867733Y-40339134D01*
X108415347Y-40159413D01*
X108236919Y-40088528D01*
X108236916Y-40088527D01*
X108236911Y-40088525D01*
X107592580Y-39875016D01*
X106936915Y-39699332D01*
X106936898Y-39699328D01*
X106272167Y-39562073D01*
X106272158Y-39562071D01*
X106272150Y-39562070D01*
X105600526Y-39463691D01*
X105600510Y-39463689D01*
X105600505Y-39463689D01*
X104924324Y-39404530D01*
X104330626Y-39387255D01*
X104245813Y-39384788D01*
X104245812Y-39384788D01*
X103567304Y-39404530D01*
X103567299Y-39404530D01*
X102891120Y-39463689D01*
X102891111Y-39463689D01*
X102891100Y-39463691D01*
X102219476Y-39562070D01*
X102219469Y-39562071D01*
X102219458Y-39562073D01*
X101554727Y-39699328D01*
X101554710Y-39699332D01*
X100899045Y-39875016D01*
X100254714Y-40088525D01*
X99623892Y-40339134D01*
X99623862Y-40339147D01*
X99008692Y-40626005D01*
X99008673Y-40626014D01*
X98411204Y-40948167D01*
X98411196Y-40948172D01*
X97833496Y-41304502D01*
X97833480Y-41304513D01*
X97277451Y-41693848D01*
X97277446Y-41693851D01*
X97277443Y-41693854D01*
X97270009Y-41699732D01*
X96744992Y-42114861D01*
X96237911Y-42566125D01*
X96237894Y-42566141D01*
X95757954Y-43046081D01*
X95757938Y-43046098D01*
X95306674Y-43553179D01*
X94885661Y-44085638D01*
X94496326Y-44641667D01*
X94496315Y-44641683D01*
X94139985Y-45219383D01*
X94139980Y-45219391D01*
X93817827Y-45816860D01*
X93817818Y-45816879D01*
X93530960Y-46432049D01*
X93530947Y-46432080D01*
X93386364Y-46796016D01*
X93343319Y-46851051D01*
X93277352Y-46874078D01*
X93223895Y-46864887D01*
X93218093Y-46862497D01*
X93218001Y-46862459D01*
X93193446Y-46862459D01*
X93193240Y-46862500D01*
X89686760Y-46862500D01*
X89686554Y-46862459D01*
X89661998Y-46862459D01*
X89661909Y-46862496D01*
X89661619Y-46862615D01*
X89661615Y-46862618D01*
X89661459Y-46862999D01*
X89661476Y-46887616D01*
X89661471Y-46887616D01*
X89661500Y-46887759D01*
X89661500Y-55220467D01*
X89661416Y-55220889D01*
X89392500Y-55220889D01*
X89392500Y-51829491D01*
X89392520Y-51827921D01*
X89394757Y-51739641D01*
X89394756Y-51739640D01*
X89394757Y-51739637D01*
X89383933Y-51679249D01*
X89383280Y-51674587D01*
X89377074Y-51613563D01*
X89377074Y-51613562D01*
X89366784Y-51580768D01*
X89364917Y-51573155D01*
X89362729Y-51560949D01*
X89358858Y-51539347D01*
X89336100Y-51482374D01*
X89334521Y-51477938D01*
X89330250Y-51464326D01*
X89316159Y-51419412D01*
X89316158Y-51419410D01*
X89316157Y-51419407D01*
X89306000Y-51401110D01*
X89299485Y-51389371D01*
X89296117Y-51382278D01*
X89283378Y-51350386D01*
X89283377Y-51350383D01*
X89249620Y-51299163D01*
X89247180Y-51295134D01*
X89231544Y-51266965D01*
X89217409Y-51241498D01*
X89217407Y-51241495D01*
X89195033Y-51215434D01*
X89190302Y-51209159D01*
X89171402Y-51180481D01*
X89128012Y-51137091D01*
X89124822Y-51133648D01*
X89084867Y-51087106D01*
X89084863Y-51087102D01*
X89057698Y-51066074D01*
X89051811Y-51060890D01*
X87077010Y-49086090D01*
X87075914Y-49084966D01*
X87015061Y-49020949D01*
X87015060Y-49020948D01*
X87015059Y-49020947D01*
X86987204Y-49001559D01*
X86964709Y-48985902D01*
X86960946Y-48983064D01*
X86913413Y-48944305D01*
X86913406Y-48944300D01*
X86882959Y-48928397D01*
X86876251Y-48924334D01*
X86848049Y-48904705D01*
X86848046Y-48904703D01*
X86848045Y-48904703D01*
X86848041Y-48904701D01*
X86791680Y-48880514D01*
X86787424Y-48878493D01*
X86733057Y-48850094D01*
X86733050Y-48850091D01*
X86733049Y-48850091D01*
X86727008Y-48848362D01*
X86700030Y-48840642D01*
X86692630Y-48838008D01*
X86661057Y-48824459D01*
X86661058Y-48824459D01*
X86600966Y-48812109D01*
X86596391Y-48810986D01*
X86537420Y-48794113D01*
X86537425Y-48794113D01*
X86503158Y-48791503D01*
X86495380Y-48790412D01*
X86461742Y-48783500D01*
X86461741Y-48783500D01*
X86400402Y-48783500D01*
X86395695Y-48783321D01*
X86390121Y-48782896D01*
X86334524Y-48778662D01*
X86314589Y-48781201D01*
X86300440Y-48783003D01*
X86292611Y-48783500D01*
X85288758Y-48783500D01*
X85221719Y-48763815D01*
X85201077Y-48747181D01*
X85199402Y-48745506D01*
X85199396Y-48745501D01*
X85013842Y-48615575D01*
X84970217Y-48560998D01*
X84963023Y-48491500D01*
X84994546Y-48429145D01*
X85013842Y-48412425D01*
X85085099Y-48362530D01*
X85199401Y-48282495D01*
X85366495Y-48115401D01*
X85502035Y-47921830D01*
X85601903Y-47707663D01*
X85663063Y-47479408D01*
X85683659Y-47244000D01*
X85663063Y-47008592D01*
X85601903Y-46780337D01*
X85502035Y-46566171D01*
X85491505Y-46551133D01*
X85366496Y-46372600D01*
X85313736Y-46319840D01*
X85244567Y-46250671D01*
X85211084Y-46189351D01*
X85216068Y-46119659D01*
X85257939Y-46063725D01*
X85288915Y-46046810D01*
X85420331Y-45997796D01*
X85535546Y-45911546D01*
X85621796Y-45796331D01*
X85672091Y-45661483D01*
X85678500Y-45601873D01*
X85678499Y-43806128D01*
X85672091Y-43746517D01*
X85621796Y-43611669D01*
X85621795Y-43611668D01*
X85621793Y-43611664D01*
X85535547Y-43496455D01*
X85535544Y-43496452D01*
X85420335Y-43410206D01*
X85420328Y-43410202D01*
X85285482Y-43359908D01*
X85285483Y-43359908D01*
X85225883Y-43353501D01*
X85225881Y-43353500D01*
X85225873Y-43353500D01*
X85225864Y-43353500D01*
X83430129Y-43353500D01*
X83430123Y-43353501D01*
X83370516Y-43359908D01*
X83235671Y-43410202D01*
X83235664Y-43410206D01*
X83120455Y-43496452D01*
X83120452Y-43496455D01*
X83034206Y-43611664D01*
X83034202Y-43611671D01*
X82983908Y-43746517D01*
X82977501Y-43806116D01*
X82977501Y-43806123D01*
X82977500Y-43806135D01*
X82977500Y-45601870D01*
X82977501Y-45601876D01*
X82983908Y-45661483D01*
X83034202Y-45796328D01*
X83034206Y-45796335D01*
X83120452Y-45911544D01*
X83120455Y-45911547D01*
X83235664Y-45997793D01*
X83235671Y-45997797D01*
X83250473Y-46003318D01*
X83306407Y-46045189D01*
X83330824Y-46110654D01*
X83315972Y-46178927D01*
X83266567Y-46228332D01*
X83207140Y-46243500D01*
X70625493Y-46243500D01*
X70623930Y-46243480D01*
X70535637Y-46241243D01*
X70535628Y-46241243D01*
X70475260Y-46252064D01*
X70470595Y-46252718D01*
X70409563Y-46258925D01*
X70409555Y-46258927D01*
X70376781Y-46269210D01*
X70369154Y-46271082D01*
X70335350Y-46277141D01*
X70278384Y-46299894D01*
X70273948Y-46301473D01*
X70215414Y-46319840D01*
X70215412Y-46319841D01*
X70185385Y-46336506D01*
X70178293Y-46339874D01*
X70146383Y-46352621D01*
X70095154Y-46386383D01*
X70091126Y-46388824D01*
X70037502Y-46418588D01*
X70037499Y-46418590D01*
X70011427Y-46440970D01*
X70005160Y-46445695D01*
X69976482Y-46464598D01*
X69976475Y-46464603D01*
X69933116Y-46507962D01*
X69929661Y-46511164D01*
X69883106Y-46551132D01*
X69883105Y-46551133D01*
X69862076Y-46578300D01*
X69856884Y-46584194D01*
X65407899Y-51033181D01*
X65346576Y-51066666D01*
X65320218Y-51069500D01*
X61481493Y-51069500D01*
X61479930Y-51069480D01*
X61391637Y-51067243D01*
X61391628Y-51067243D01*
X61339985Y-51076500D01*
X61331254Y-51078064D01*
X61326595Y-51078718D01*
X61265564Y-51084925D01*
X61265562Y-51084926D01*
X61232780Y-51095210D01*
X61225156Y-51097081D01*
X61217308Y-51098488D01*
X61191349Y-51103141D01*
X61134381Y-51125895D01*
X61129945Y-51127474D01*
X61071414Y-51145840D01*
X61071410Y-51145842D01*
X61041378Y-51162510D01*
X61034284Y-51165879D01*
X61002382Y-51178623D01*
X61002377Y-51178625D01*
X60951156Y-51212381D01*
X60947128Y-51214822D01*
X60893501Y-51244588D01*
X60867434Y-51266965D01*
X60861165Y-51271692D01*
X60832484Y-51290595D01*
X60832478Y-51290600D01*
X60789109Y-51333968D01*
X60785655Y-51337169D01*
X60739102Y-51377136D01*
X60718076Y-51404298D01*
X60712885Y-51410192D01*
X57483091Y-54639987D01*
X57481967Y-54641083D01*
X57417946Y-54701942D01*
X57382899Y-54752294D01*
X57380062Y-54756056D01*
X57341302Y-54803592D01*
X57341299Y-54803597D01*
X57325392Y-54834047D01*
X57321324Y-54840761D01*
X57301702Y-54868954D01*
X57277509Y-54925330D01*
X57275488Y-54929584D01*
X57247091Y-54983951D01*
X57247090Y-54983952D01*
X57237640Y-55016975D01*
X57235007Y-55024371D01*
X57221459Y-55055943D01*
X57209113Y-55116019D01*
X57207990Y-55120595D01*
X57191113Y-55179577D01*
X57191113Y-55179579D01*
X57188503Y-55213841D01*
X57187414Y-55221608D01*
X57182711Y-55244500D01*
X57180500Y-55255258D01*
X57180500Y-55316597D01*
X57180321Y-55321306D01*
X57175662Y-55382474D01*
X57177707Y-55398527D01*
X57180003Y-55416560D01*
X57180500Y-55424388D01*
X57180500Y-57553140D01*
X57160815Y-57620179D01*
X57108011Y-57665934D01*
X57038853Y-57675878D01*
X56975297Y-57646853D01*
X56940318Y-57596473D01*
X56934797Y-57581671D01*
X56934793Y-57581664D01*
X56848547Y-57466455D01*
X56848544Y-57466452D01*
X56733335Y-57380206D01*
X56733332Y-57380205D01*
X56733331Y-57380204D01*
X56722161Y-57376038D01*
X56666231Y-57334166D01*
X56641816Y-57268701D01*
X56641500Y-57259858D01*
X56641500Y-47874099D01*
X56661185Y-47807060D01*
X56674270Y-47790116D01*
X56680018Y-47783872D01*
X56776551Y-47679010D01*
X56792489Y-47654613D01*
X56845631Y-47609258D01*
X56914862Y-47599831D01*
X56978199Y-47629330D01*
X57000106Y-47654611D01*
X57015847Y-47678704D01*
X57015851Y-47678710D01*
X57178873Y-47855797D01*
X57178883Y-47855806D01*
X57368831Y-48003649D01*
X57368840Y-48003655D01*
X57580531Y-48118215D01*
X57580545Y-48118221D01*
X57808207Y-48196379D01*
X57916000Y-48214366D01*
X57916000Y-47227683D01*
X57944819Y-47245209D01*
X58090404Y-47286000D01*
X58203622Y-47286000D01*
X58315783Y-47270584D01*
X58415999Y-47227053D01*
X58415999Y-48214365D01*
X58523792Y-48196379D01*
X58751454Y-48118221D01*
X58751468Y-48118215D01*
X58963159Y-48003655D01*
X58963162Y-48003653D01*
X59105746Y-47892675D01*
X59170740Y-47867032D01*
X59239280Y-47880598D01*
X59289605Y-47929066D01*
X59298091Y-47947196D01*
X59309701Y-47978326D01*
X59309706Y-47978335D01*
X59395952Y-48093544D01*
X59395955Y-48093547D01*
X59511164Y-48179793D01*
X59511171Y-48179797D01*
X59646017Y-48230091D01*
X59646016Y-48230091D01*
X59652944Y-48230835D01*
X59705627Y-48236500D01*
X61706372Y-48236499D01*
X61765983Y-48230091D01*
X61900831Y-48179796D01*
X62016046Y-48093546D01*
X62102296Y-47978331D01*
X62152591Y-47843483D01*
X62159000Y-47783873D01*
X62158999Y-45688128D01*
X62152591Y-45628517D01*
X62147994Y-45616193D01*
X62102297Y-45493671D01*
X62102293Y-45493664D01*
X62016047Y-45378455D01*
X62016044Y-45378452D01*
X61900835Y-45292206D01*
X61900828Y-45292202D01*
X61787166Y-45249809D01*
X61731232Y-45207938D01*
X61706815Y-45142473D01*
X61706499Y-45133627D01*
X61706499Y-44641663D01*
X61706499Y-43070137D01*
X61726184Y-43003102D01*
X61778988Y-42957347D01*
X61787134Y-42953971D01*
X61798331Y-42949796D01*
X61913546Y-42863546D01*
X61999796Y-42748331D01*
X62050091Y-42613483D01*
X62056500Y-42553873D01*
X62056499Y-40758128D01*
X62050091Y-40698517D01*
X62049002Y-40695598D01*
X61999797Y-40563671D01*
X61999793Y-40563664D01*
X61913547Y-40448455D01*
X61913544Y-40448452D01*
X61798335Y-40362206D01*
X61798328Y-40362202D01*
X61663482Y-40311908D01*
X61663483Y-40311908D01*
X61603883Y-40305501D01*
X61603881Y-40305500D01*
X61603873Y-40305500D01*
X61603864Y-40305500D01*
X59808129Y-40305500D01*
X59808123Y-40305501D01*
X59748516Y-40311908D01*
X59613671Y-40362202D01*
X59613664Y-40362206D01*
X59498455Y-40448452D01*
X59498452Y-40448455D01*
X59412206Y-40563664D01*
X59412202Y-40563671D01*
X59362997Y-40695598D01*
X59321126Y-40751532D01*
X59255661Y-40775949D01*
X59187388Y-40761097D01*
X59159134Y-40739946D01*
X59037082Y-40617894D01*
X58843578Y-40482399D01*
X58629492Y-40382570D01*
X58629486Y-40382567D01*
X58416000Y-40325364D01*
X58416000Y-41220498D01*
X58308315Y-41171320D01*
X58201763Y-41156000D01*
X58130237Y-41156000D01*
X58023685Y-41171320D01*
X57916000Y-41220498D01*
X57916000Y-40325364D01*
X57915999Y-40325364D01*
X57702513Y-40382567D01*
X57702507Y-40382570D01*
X57488422Y-40482399D01*
X57488420Y-40482400D01*
X57294926Y-40617886D01*
X57294920Y-40617891D01*
X57127891Y-40784920D01*
X57127886Y-40784926D01*
X56992400Y-40978420D01*
X56992399Y-40978422D01*
X56892570Y-41192507D01*
X56892567Y-41192513D01*
X56835364Y-41405999D01*
X56835364Y-41406000D01*
X57732314Y-41406000D01*
X57706507Y-41446156D01*
X57666000Y-41584111D01*
X57666000Y-41727889D01*
X57706507Y-41865844D01*
X57732314Y-41906000D01*
X56835364Y-41906000D01*
X56892567Y-42119486D01*
X56892570Y-42119492D01*
X56992399Y-42333578D01*
X57127894Y-42527082D01*
X57294917Y-42694105D01*
X57488421Y-42829600D01*
X57702507Y-42929429D01*
X57702516Y-42929433D01*
X57916000Y-42986634D01*
X57916000Y-42091501D01*
X58023685Y-42140680D01*
X58130237Y-42156000D01*
X58201763Y-42156000D01*
X58308315Y-42140680D01*
X58416000Y-42091501D01*
X58416000Y-42986633D01*
X58629483Y-42929433D01*
X58629492Y-42929429D01*
X58843578Y-42829600D01*
X59037078Y-42694108D01*
X59159133Y-42572053D01*
X59220456Y-42538568D01*
X59290148Y-42543552D01*
X59346082Y-42585423D01*
X59362997Y-42616401D01*
X59412202Y-42748328D01*
X59412206Y-42748335D01*
X59498452Y-42863544D01*
X59498455Y-42863547D01*
X59613665Y-42949794D01*
X59613667Y-42949794D01*
X59613669Y-42949796D01*
X59624830Y-42953958D01*
X59680764Y-42995826D01*
X59705184Y-43061289D01*
X59705500Y-43070141D01*
X59705500Y-45133627D01*
X59685815Y-45200666D01*
X59633011Y-45246421D01*
X59624834Y-45249809D01*
X59511169Y-45292203D01*
X59511164Y-45292206D01*
X59395955Y-45378452D01*
X59395952Y-45378455D01*
X59309706Y-45493664D01*
X59309702Y-45493671D01*
X59298091Y-45524804D01*
X59256220Y-45580738D01*
X59190756Y-45605155D01*
X59122483Y-45590303D01*
X59105747Y-45579324D01*
X58963168Y-45468350D01*
X58963159Y-45468344D01*
X58751468Y-45353784D01*
X58751454Y-45353778D01*
X58523791Y-45275619D01*
X58416000Y-45257633D01*
X58415999Y-46244316D01*
X58387181Y-46226791D01*
X58241596Y-46186000D01*
X58128378Y-46186000D01*
X58016217Y-46201416D01*
X57916000Y-46244946D01*
X57916000Y-45257633D01*
X57915999Y-45257633D01*
X57808208Y-45275619D01*
X57580545Y-45353778D01*
X57580531Y-45353784D01*
X57368840Y-45468344D01*
X57368831Y-45468350D01*
X57178883Y-45616193D01*
X57178873Y-45616202D01*
X57015851Y-45793289D01*
X57015846Y-45793297D01*
X57000104Y-45817390D01*
X56946955Y-45862745D01*
X56877724Y-45872165D01*
X56814389Y-45842660D01*
X56792489Y-45817384D01*
X56776555Y-45792994D01*
X56728547Y-45740844D01*
X56613463Y-45615829D01*
X56456505Y-45493664D01*
X56423441Y-45467929D01*
X56211665Y-45353321D01*
X56211656Y-45353318D01*
X55983916Y-45275134D01*
X55784806Y-45241909D01*
X55746399Y-45235500D01*
X55505601Y-45235500D01*
X55467194Y-45241909D01*
X55268083Y-45275134D01*
X55040343Y-45353318D01*
X55040334Y-45353321D01*
X54828558Y-45467929D01*
X54755486Y-45524804D01*
X54638537Y-45615829D01*
X54638534Y-45615831D01*
X54638534Y-45615832D01*
X54475449Y-45792990D01*
X54343743Y-45994581D01*
X54247017Y-46215094D01*
X54187904Y-46448527D01*
X54173000Y-46628389D01*
X54173000Y-46843610D01*
X46990000Y-46843610D01*
X46990000Y-38986000D01*
X47009685Y-38918961D01*
X47062489Y-38873206D01*
X47114000Y-38862000D01*
X153800000Y-38862000D01*
X153867039Y-38881685D01*
G37*
%TD.AperFunction*%
%TD*%
M02*
