M48
; DRILL file {KiCad 7.0.5} date Fri Dec 29 19:04:11 2023
; FORMAT={-:-/ absolute / metric / decimal}
; #@! TF.CreationDate,2023-12-29T19:04:11-03:00
; #@! TF.GenerationSoftware,Kicad,Pcbnew,7.0.5
; #@! TF.FileFunction,Plated,1,2,PTH
FMAT,2
METRIC
; #@! TA.AperFunction,Plated,PTH,ViaDrill
T1C0.300
; #@! TA.AperFunction,Plated,PTH,ViaDrill
T2C0.400
; #@! TA.AperFunction,Plated,PTH,ComponentDrill
T3C0.800
; #@! TA.AperFunction,Plated,PTH,ComponentDrill
T4C1.000
; #@! TA.AperFunction,Plated,PTH,ComponentDrill
T5C1.020
; #@! TA.AperFunction,Plated,PTH,ComponentDrill
T6C1.100
%
G90
G05
T1
X105.664Y-105.156
X105.664Y-111.506
X117.348Y-72.644
X117.602Y-96.012
X117.602Y-103.124
X121.666Y-93.218
X121.666Y-103.124
X123.698Y-72.644
X127.508Y-68.834
X127.508Y-70.866
X127.508Y-72.644
X127.508Y-74.676
X127.508Y-76.708
X127.508Y-78.74
X127.508Y-82.804
X144.78Y-70.612
X144.78Y-72.644
X144.78Y-74.676
X144.78Y-80.772
X147.828Y-70.612
X147.828Y-74.676
T2
X62.992Y-50.038
X62.992Y-55.118
X143.764Y-85.852
X144.78Y-82.55
T3
X95.758Y-98.552
X95.758Y-106.172
X100.33Y-98.552
X100.33Y-106.172
T4
X55.641Y-58.674
X58.166Y-41.656
X58.181Y-58.674
X60.706Y-41.656
X60.721Y-58.674
X73.152Y-100.584
X73.152Y-103.124
X75.692Y-100.584
X75.692Y-103.124
X84.328Y-44.704
X84.328Y-47.244
X84.328Y-49.784
X84.328Y-52.324
X84.328Y-54.864
X84.328Y-57.404
T5
X84.074Y-72.665
X84.074Y-75.205
X84.074Y-77.745
X84.074Y-80.285
X84.074Y-82.825
X84.074Y-85.365
X84.074Y-87.905
X84.074Y-90.445
X84.074Y-92.985
X84.074Y-95.525
X84.074Y-98.065
X84.074Y-100.605
X84.074Y-103.145
X84.074Y-105.685
X84.074Y-108.225
X109.474Y-72.665
X109.474Y-75.205
X109.474Y-77.745
X109.474Y-80.285
X109.474Y-82.825
X109.474Y-85.365
X109.474Y-87.905
X109.474Y-90.445
X109.474Y-92.985
X109.474Y-95.525
X109.474Y-98.065
X109.474Y-100.605
X109.474Y-103.145
X109.474Y-105.685
X109.474Y-108.225
T6
X55.626Y-46.736
X58.166Y-46.736
X60.706Y-46.736
T0
M30
